<svg version="1.1" id="Layer_1" xmlns="http://www.w3.org/2000/svg" xmlns:xlink="http://www.w3.org/1999/xlink" x="0px" y="0px"
	 width="100%" viewBox="0 0 512 512" enable-background="new 0 0 512 512" xml:space="preserve">
<path fill="#FFFFFF" opacity="1.000000" stroke="none" 
	d="
M356.000000,513.000000 
	C237.362167,513.000000 119.224319,513.000000 1.043242,513.000000 
	C1.043242,342.403809 1.043242,171.807602 1.043242,1.105696 
	C171.554504,1.105696 342.109100,1.105696 512.831848,1.105696 
	C512.831848,171.666534 512.831848,342.333252 512.831848,513.000000 
	C460.807526,513.000000 408.653778,513.000000 356.000000,513.000000 
M246.839676,369.075348 
	C250.876984,369.676147 254.914291,370.276917 259.755890,371.069489 
	C296.266968,376.616058 332.761047,382.278107 369.295349,387.667175 
	C392.310852,391.062042 409.606628,381.213409 416.053925,361.272369 
	C419.903168,349.366882 418.669739,337.622223 414.852417,325.963715 
	C419.220428,325.545349 423.588409,325.127014 428.821289,324.793488 
	C431.965942,324.529480 435.124756,324.377747 438.252838,323.982666 
	C454.770447,321.896484 465.432678,309.963348 462.850708,295.564941 
	C461.945374,290.516510 459.627991,285.294495 456.592896,281.149384 
	C451.317993,273.945312 445.043243,267.463867 439.079193,260.776184 
	C430.632568,251.304779 421.134888,243.479401 407.977478,241.589554 
	C407.402496,241.506973 406.909332,240.854523 406.331970,239.843124 
	C406.154877,239.241501 405.977783,238.639862 406.146210,237.304352 
	C408.403015,230.139343 405.694305,224.788208 398.454742,224.079132 
	C393.896179,223.632629 389.155609,225.044312 384.162201,225.193558 
	C384.038116,225.061371 383.914032,224.929199 383.961884,224.095108 
	C384.351715,223.365463 384.748444,222.639404 385.130157,221.905533 
	C386.905731,218.491470 387.702759,215.009537 385.304077,211.578003 
	C382.925354,208.175049 379.374969,208.177429 375.872162,208.958038 
	C370.068268,210.251450 364.241974,211.554031 358.580688,213.344574 
	C353.597260,214.920715 348.826813,217.170166 343.846619,218.516647 
	C343.487122,218.025223 343.127594,217.533783 343.153442,216.427582 
	C354.702637,196.796249 349.871704,177.357269 330.513092,165.600723 
	C328.812531,164.567947 327.103241,163.543854 325.352173,162.600845 
	C312.522675,155.691818 299.681458,148.804535 286.941528,141.962799 
	C288.155609,130.505386 283.499329,125.852585 273.131470,128.389481 
	C272.865234,128.304779 272.598999,128.220093 272.356995,127.256630 
	C275.183014,117.985352 276.445862,108.699860 271.796967,99.629486 
	C264.977325,86.323814 249.739716,84.058708 239.668365,94.951317 
	C231.988617,103.257332 226.863525,113.042526 223.736938,124.722908 
	C223.128326,128.777603 222.519714,132.832306 221.332275,136.509247 
	C219.982803,131.287033 217.615753,126.730286 212.123810,124.977684 
	C207.494583,123.500397 205.755096,120.316711 204.989944,115.836571 
	C203.944870,109.717201 200.024643,105.850983 194.197952,103.929298 
	C187.422623,101.694748 181.004990,103.114990 174.949951,106.320259 
	C161.627411,113.372612 153.718246,124.751411 150.078522,139.076233 
	C144.909943,159.418182 144.261154,180.110428 145.791107,200.978394 
	C148.714355,240.850098 160.734283,277.776550 181.370987,311.912781 
	C185.085510,318.057190 189.667572,323.677094 193.777359,330.325592 
	C197.553986,335.242859 201.330612,340.160095 204.185486,345.139862 
	C191.909760,345.440735 181.721725,342.462158 176.498489,329.650085 
	C174.564575,324.906433 169.889877,322.248810 164.530762,321.880096 
	C161.106842,321.644531 157.652588,321.849823 153.929703,321.230713 
	C146.407059,309.870605 137.782074,299.071747 131.639969,287.008698 
	C123.913307,271.833588 118.068130,255.684052 111.740768,239.823471 
	C109.959717,235.358963 110.192955,230.378387 114.021698,226.828140 
	C115.427490,225.524612 118.288925,225.010712 120.246674,225.386246 
	C121.354424,225.598724 121.918579,228.381165 122.833084,229.944336 
	C123.640945,231.325226 124.595055,232.620544 125.484589,233.953644 
	C126.737625,232.864960 128.566132,232.013718 129.132294,230.641617 
	C130.635590,226.998322 128.249161,222.311401 124.093681,219.775116 
	C116.758888,215.298279 106.399445,220.433090 105.276367,230.190994 
	C104.585709,236.191818 105.735191,242.795181 107.603531,248.633545 
	C116.666374,276.953949 131.069534,302.497101 149.027283,326.432190 
	C148.701065,326.620880 148.374847,326.809540 147.492950,326.543152 
	C132.387558,320.176453 116.545898,318.667786 100.462700,320.271210 
	C85.563263,321.756622 71.378052,325.833832 59.179775,335.095245 
	C54.497852,338.649933 51.234901,343.146515 50.612408,349.181000 
	C49.848946,356.582184 54.722260,362.980286 62.091785,364.342468 
	C68.988976,365.617371 76.766808,360.839508 78.202568,354.093140 
	C78.493011,352.728424 77.240295,351.035309 76.699013,349.493591 
	C75.258125,350.224518 73.757011,350.862793 72.410248,351.738464 
	C71.961853,352.030029 71.982903,352.971191 71.663620,353.545471 
	C69.559074,357.330627 65.116425,359.006287 61.448605,357.433563 
	C57.678169,355.816833 55.827000,351.566467 57.806244,347.378052 
	C59.105839,344.627899 61.112400,341.842682 63.534100,340.076477 
	C67.389832,337.264404 71.662285,334.801727 76.096016,333.041382 
	C98.863564,324.002106 121.834389,324.047516 144.988876,333.092590 
	C145.805649,337.745880 146.622421,342.399170 147.753922,347.710632 
	C150.706390,352.235077 155.198242,354.315063 160.277435,354.950897 
	C168.945007,356.035980 174.835007,360.494720 178.744507,368.254913 
	C185.594711,381.852417 196.611359,391.524384 210.094910,397.846100 
	C228.985840,406.703033 248.343155,414.565857 267.526489,422.794434 
	C267.929535,422.967285 268.642242,422.418091 269.805603,422.564697 
	C272.722504,423.629456 275.590576,424.864319 278.567749,425.718933 
	C282.999390,426.991119 288.494507,424.820892 290.323914,421.329773 
	C292.350128,417.463013 290.934875,412.942719 286.467377,409.697937 
	C284.599945,408.341614 282.554688,407.169647 280.458313,406.198914 
	C267.678467,400.281097 257.825378,391.285004 251.120224,378.845551 
	C249.641098,376.101440 247.806396,373.548981 246.063095,370.308868 
	C246.057022,369.906464 246.050964,369.504059 246.839676,369.075348 
z"/>
<path fill="#F56357" opacity="1.000000" stroke="none" 
	d="
M414.034393,326.137848 
	C418.669739,337.622223 419.903168,349.366882 416.053925,361.272369 
	C409.606628,381.213409 392.310852,391.062042 369.295349,387.667175 
	C332.761047,382.278107 296.266968,376.616058 259.366394,370.606262 
	C255.677094,359.976410 249.149200,352.142365 240.718765,345.947632 
	C226.813217,335.729675 210.443451,332.242035 193.849091,329.539154 
	C189.667572,323.677094 185.085510,318.057190 181.370987,311.912781 
	C160.734283,277.776550 148.714355,240.850098 145.791107,200.978394 
	C144.261154,180.110428 144.909943,159.418182 150.078522,139.076233 
	C153.718246,124.751411 161.627411,113.372612 174.949951,106.320259 
	C181.004990,103.114990 187.422623,101.694748 194.197952,103.929298 
	C200.024643,105.850983 203.944870,109.717201 204.989944,115.836571 
	C205.755096,120.316711 207.494583,123.500397 212.123810,124.977684 
	C217.615753,126.730286 219.982803,131.287033 221.702362,137.146896 
	C222.573212,142.218033 222.701569,146.733032 223.650650,151.068375 
	C225.760223,160.704590 233.842102,164.457687 241.835785,167.185516 
	C261.264282,173.815491 276.125732,186.626160 289.626617,201.276520 
	C297.181702,209.474854 302.363007,219.154037 302.964722,230.651276 
	C303.487671,240.642776 300.433289,248.566025 293.001404,256.268036 
	C282.175598,267.487305 270.677826,276.983154 256.375305,283.172363 
	C254.753098,283.874359 253.876892,286.300293 252.654755,287.926819 
	C254.675095,288.308197 257.069092,289.590607 258.658020,288.931671 
	C274.769806,282.250244 288.470856,272.276581 299.192078,258.356812 
	C300.422882,256.758850 302.185944,255.313858 304.012848,254.472244 
	C320.345215,246.948242 336.307953,248.306961 350.840179,258.478241 
	C361.134491,265.683411 370.633972,274.095428 380.063782,282.447876 
	C394.074951,294.858246 406.495880,308.634003 414.034393,326.137848 
M226.555084,250.172195 
	C225.872360,249.031937 225.232803,247.863068 224.499374,246.756409 
	C221.393295,242.069748 217.433487,238.379120 211.412567,239.526962 
	C204.968918,240.755417 201.020599,244.930939 199.664352,251.561295 
	C198.194489,258.747162 203.512909,270.191315 210.195908,273.657227 
	C214.883469,276.088257 220.066986,275.341400 223.973694,271.579803 
	C230.338806,265.451172 229.839584,258.320587 226.555084,250.172195 
M184.150269,135.016220 
	C175.540375,134.486664 168.409134,137.521851 163.444885,144.544266 
	C162.333405,146.116547 162.116638,150.082489 163.206665,151.093628 
	C165.693268,153.400269 166.994247,150.356445 168.338074,148.518600 
	C175.424957,138.826324 188.172287,138.745544 194.448318,149.026108 
	C198.456726,155.592117 201.018082,163.076813 203.921661,170.273285 
	C207.743896,179.746613 212.438492,188.446121 222.703522,192.194168 
	C224.364212,192.800522 226.716034,191.514038 228.748383,191.102509 
	C227.522064,189.468948 226.610397,186.930786 225.009537,186.373962 
	C220.476593,184.797272 216.929474,182.247925 215.002304,177.989380 
	C211.453842,170.148239 208.247421,162.151779 204.926575,154.208298 
	C201.051575,144.939255 195.611313,137.316711 184.150269,135.016220 
M373.830475,322.865295 
	C378.682556,335.667969 378.039093,348.175873 371.836334,360.393921 
	C370.666656,362.697906 368.409576,365.559875 372.040192,367.012115 
	C373.261688,367.500763 375.852325,364.651947 377.763458,363.254944 
	C378.118591,362.995392 378.206665,362.379272 378.435303,361.936615 
	C383.357666,352.405212 384.012726,342.120117 382.814636,331.823608 
	C381.680450,322.075806 377.531494,313.343903 370.624603,306.220215 
	C369.600647,305.164124 367.339264,305.307739 365.650391,304.896301 
	C365.784698,306.753540 365.358246,308.911224 366.161285,310.410217 
	C368.338409,314.474213 371.037170,318.258728 373.830475,322.865295 
z"/>
<path fill="#F34137" opacity="1.000000" stroke="none" 
	d="
M224.144028,124.053055 
	C226.863525,113.042526 231.988617,103.257332 239.668365,94.951317 
	C249.739716,84.058708 264.977325,86.323814 271.796967,99.629486 
	C276.445862,108.699860 275.183014,117.985352 272.007019,127.663391 
	C266.663574,129.281540 262.144379,135.539230 263.143585,140.272690 
	C263.409851,141.534058 264.563660,143.003662 265.705078,143.545670 
	C266.465973,143.906998 268.627777,143.086731 268.957916,142.293747 
	C270.817291,137.827728 272.311523,133.209702 273.930237,128.643494 
	C283.499329,125.852585 288.155609,130.505386 286.941528,141.962799 
	C299.681458,148.804535 312.522675,155.691818 325.352173,162.600845 
	C327.103241,163.543854 328.812531,164.567947 330.513092,165.600723 
	C349.871704,177.357269 354.702637,196.796249 342.604218,216.742798 
	C340.757660,217.926620 338.862244,218.504028 338.271820,219.716766 
	C336.266663,223.835449 334.013031,227.447403 329.554688,229.407196 
	C328.714630,229.776474 327.904633,232.480240 328.372803,233.055817 
	C329.178467,234.046310 331.139954,234.870712 332.371582,234.609741 
	C338.436890,233.324539 343.919312,225.758606 343.962311,219.122253 
	C348.826813,217.170166 353.597260,214.920715 358.580688,213.344574 
	C364.241974,211.554031 370.068268,210.251450 375.872162,208.958038 
	C379.374969,208.177429 382.925354,208.175049 385.304077,211.578003 
	C387.702759,215.009537 386.905731,218.491470 385.130157,221.905533 
	C384.748444,222.639404 384.351715,223.365463 383.629028,224.575439 
	C383.696350,225.244659 384.096527,225.433548 384.496704,225.622421 
	C389.155609,225.044312 393.896179,223.632629 398.454742,224.079132 
	C405.694305,224.788208 408.403015,230.139343 405.584717,237.662521 
	C403.248444,238.858383 401.220093,239.389236 399.754150,240.600693 
	C397.094574,242.798599 394.618073,245.271332 392.368530,247.889954 
	C391.222382,249.224152 390.735077,251.124329 389.949951,252.768646 
	C391.884094,252.882828 394.682404,253.869965 395.602203,252.959457 
	C399.498291,249.102707 402.836151,244.682068 406.378052,240.467514 
	C406.909332,240.854523 407.402496,241.506973 407.977478,241.589554 
	C421.134888,243.479401 430.632568,251.304779 439.079193,260.776184 
	C445.043243,267.463867 451.317993,273.945312 456.592896,281.149384 
	C459.627991,285.294495 461.945374,290.516510 462.850708,295.564941 
	C465.432678,309.963348 454.770447,321.896484 438.252838,323.982666 
	C435.124756,324.377747 431.965942,324.529480 428.382568,324.402679 
	C427.862244,323.524200 427.933105,322.929840 427.677246,322.564056 
	C411.150116,298.936615 392.956940,276.736267 370.643524,258.294098 
	C358.203156,248.012070 344.194763,240.980392 327.410187,242.072372 
	C322.727539,242.377029 318.103943,243.589279 313.010590,244.460922 
	C313.010590,241.736908 313.036743,239.264038 313.006531,236.791870 
	C312.725494,213.812347 303.274963,195.219406 285.003784,181.638840 
	C277.214081,175.848892 268.088348,171.818863 259.442261,167.229202 
	C250.661240,162.567902 242.442245,157.104324 237.175888,148.559433 
	C232.331436,140.699112 228.449814,132.245377 224.144028,124.053055 
z"/>
<path fill="#F9D958" opacity="1.000000" stroke="none" 
	d="
M246.135437,370.908295 
	C247.806396,373.548981 249.641098,376.101440 251.120224,378.845551 
	C257.825378,391.285004 267.678467,400.281097 280.458313,406.198914 
	C282.554688,407.169647 284.599945,408.341614 286.467377,409.697937 
	C290.934875,412.942719 292.350128,417.463013 290.323914,421.329773 
	C288.494507,424.820892 282.999390,426.991119 278.567749,425.718933 
	C275.590576,424.864319 272.722504,423.629456 269.326233,422.058716 
	C268.028992,421.025238 267.261200,420.388580 266.385620,419.986603 
	C252.824219,413.760590 239.052414,407.955994 225.726715,401.262665 
	C209.338455,393.031036 195.127747,381.755005 184.808167,366.450989 
	C175.710236,352.958679 163.362106,346.840271 147.439194,347.052460 
	C146.622421,342.399170 145.805649,337.745880 145.227554,332.475281 
	C146.327026,330.238037 147.187836,328.618103 148.048630,326.998199 
	C148.374847,326.809540 148.701065,326.620880 149.488495,326.126404 
	C151.370438,324.499603 152.791199,323.178528 154.211945,321.857452 
	C157.652588,321.849823 161.106842,321.644531 164.530762,321.880096 
	C169.889877,322.248810 174.564575,324.906433 176.498489,329.650085 
	C181.721725,342.462158 191.909760,345.440735 204.970062,345.238403 
	C209.834991,346.896606 213.915329,348.456268 217.990234,350.403259 
	C217.721039,351.733124 217.245834,352.673706 217.237167,353.618591 
	C217.218567,355.646423 217.440613,357.676483 217.564148,359.705627 
	C219.465195,358.581238 221.519760,357.640808 223.193649,356.244171 
	C223.888321,355.664581 223.769531,354.109985 224.366974,353.021545 
	C226.809494,354.368591 228.905701,355.692841 230.986725,357.398804 
	C229.126831,361.591949 227.113556,365.335175 225.529297,369.251953 
	C224.978790,370.613037 225.490204,372.403625 225.516602,373.998047 
	C227.196381,373.650482 229.752991,373.862976 230.397339,372.854095 
	C232.648117,369.329956 234.238266,365.383942 236.356674,361.797333 
	C237.823700,363.262695 239.013489,364.528931 240.090057,366.180725 
	C238.938339,369.516174 237.584854,372.404694 236.993607,375.441681 
	C236.695877,376.971069 237.781372,378.769775 238.241379,380.446686 
	C239.725159,379.785797 241.776047,379.520721 242.572235,378.379944 
	C244.130127,376.147766 244.987869,373.426880 246.135437,370.908295 
M161.449799,337.406464 
	C162.371140,336.736786 163.488815,336.221680 164.166855,335.360474 
	C165.134064,334.131958 165.779053,332.649780 166.561676,331.275940 
	C164.893082,330.740845 162.486465,329.240936 161.692047,329.848602 
	C159.142242,331.799103 156.392426,334.206818 155.241119,337.053467 
	C154.205688,339.613617 153.907501,344.282623 158.184875,344.606506 
	C162.568146,344.938507 160.428452,340.496643 161.449799,337.406464 
z"/>
<path fill="#E21C18" opacity="1.000000" stroke="none" 
	d="
M223.940491,124.387985 
	C228.449814,132.245377 232.331436,140.699112 237.175888,148.559433 
	C242.442245,157.104324 250.661240,162.567902 259.442261,167.229202 
	C268.088348,171.818863 277.214081,175.848892 285.003784,181.638840 
	C303.274963,195.219406 312.725494,213.812347 313.006531,236.791870 
	C313.036743,239.264038 313.010590,241.736908 313.010590,244.460922 
	C318.103943,243.589279 322.727539,242.377029 327.410187,242.072372 
	C344.194763,240.980392 358.203156,248.012070 370.643524,258.294098 
	C392.956940,276.736267 411.150116,298.936615 427.677246,322.564056 
	C427.933105,322.929840 427.862244,323.524200 427.950134,324.360291 
	C423.588409,325.127014 419.220428,325.545349 414.443420,326.050781 
	C406.495880,308.634003 394.074951,294.858246 380.063782,282.447876 
	C370.633972,274.095428 361.134491,265.683411 350.840179,258.478241 
	C336.307953,248.306961 320.345215,246.948242 304.012848,254.472244 
	C302.185944,255.313858 300.422882,256.758850 299.192078,258.356812 
	C288.470856,272.276581 274.769806,282.250244 258.658020,288.931671 
	C257.069092,289.590607 254.675095,288.308197 252.654755,287.926819 
	C253.876892,286.300293 254.753098,283.874359 256.375305,283.172363 
	C270.677826,276.983154 282.175598,267.487305 293.001404,256.268036 
	C300.433289,248.566025 303.487671,240.642776 302.964722,230.651276 
	C302.363007,219.154037 297.181702,209.474854 289.626617,201.276520 
	C276.125732,186.626160 261.264282,173.815491 241.835785,167.185516 
	C233.842102,164.457687 225.760223,160.704590 223.650650,151.068375 
	C222.701569,146.733032 222.573212,142.218033 221.991791,137.335785 
	C222.519714,132.832306 223.128326,128.777603 223.940491,124.387985 
z"/>
<path fill="#EE9D2B" opacity="1.000000" stroke="none" 
	d="
M147.770782,326.770691 
	C147.187836,328.618103 146.327026,330.238037 145.161392,332.036163 
	C121.834389,324.047516 98.863564,324.002106 76.096016,333.041382 
	C71.662285,334.801727 67.389832,337.264404 63.534100,340.076477 
	C61.112400,341.842682 59.105839,344.627899 57.806244,347.378052 
	C55.827000,351.566467 57.678169,355.816833 61.448605,357.433563 
	C65.116425,359.006287 69.559074,357.330627 71.663620,353.545471 
	C71.982903,352.971191 71.961853,352.030029 72.410248,351.738464 
	C73.757011,350.862793 75.258125,350.224518 76.699020,349.493591 
	C77.240295,351.035309 78.493011,352.728424 78.202568,354.093140 
	C76.766808,360.839508 68.988976,365.617371 62.091785,364.342468 
	C54.722260,362.980286 49.848946,356.582184 50.612408,349.181000 
	C51.234901,343.146515 54.497852,338.649933 59.179775,335.095245 
	C71.378052,325.833832 85.563263,321.756622 100.462700,320.271210 
	C116.545898,318.667786 132.387558,320.176453 147.770782,326.770691 
z"/>
<path fill="#EE9D2C" opacity="1.000000" stroke="none" 
	d="
M154.070831,321.544067 
	C152.791199,323.178528 151.370438,324.499603 149.624176,325.873566 
	C131.069534,302.497101 116.666374,276.953949 107.603531,248.633545 
	C105.735191,242.795181 104.585709,236.191818 105.276367,230.190994 
	C106.399445,220.433090 116.758888,215.298279 124.093681,219.775116 
	C128.249161,222.311401 130.635590,226.998322 129.132294,230.641617 
	C128.566132,232.013718 126.737625,232.864960 125.484589,233.953644 
	C124.595055,232.620544 123.640945,231.325226 122.833084,229.944336 
	C121.918579,228.381165 121.354424,225.598724 120.246674,225.386246 
	C118.288925,225.010712 115.427490,225.524612 114.021698,226.828140 
	C110.192955,230.378387 109.959717,235.358963 111.740768,239.823471 
	C118.068130,255.684052 123.913307,271.833588 131.639969,287.008698 
	C137.782074,299.071747 146.407059,309.870605 154.070831,321.544067 
z"/>
<path fill="#E11D19" opacity="1.000000" stroke="none" 
	d="
M217.995682,350.015930 
	C213.915329,348.456268 209.834991,346.896606 205.430939,345.207153 
	C201.330612,340.160095 197.553986,335.242859 193.813232,329.932373 
	C210.443451,332.242035 226.813217,335.729675 240.718765,345.947632 
	C249.149200,352.142365 255.677094,359.976410 258.964233,370.510376 
	C254.914291,370.276917 250.876984,369.676147 246.096222,369.017090 
	C243.636261,367.904266 241.919769,366.849731 240.203278,365.795166 
	C239.013489,364.528931 237.823700,363.262695 236.288803,361.505707 
	C234.296432,359.682343 232.649170,358.349701 231.001923,357.017059 
	C228.905701,355.692841 226.809494,354.368591 224.174271,352.743195 
	C221.755386,351.633362 219.875534,350.824646 217.995682,350.015930 
z"/>
<path fill="#F0A42E" opacity="1.000000" stroke="none" 
	d="
M147.596558,347.381531 
	C163.362106,346.840271 175.710236,352.958679 184.808167,366.450989 
	C195.127747,381.755005 209.338455,393.031036 225.726715,401.262665 
	C239.052414,407.955994 252.824219,413.760590 266.385620,419.986603 
	C267.261200,420.388580 268.028992,421.025238 269.028687,421.879211 
	C268.642242,422.418091 267.929535,422.967285 267.526489,422.794434 
	C248.343155,414.565857 228.985840,406.703033 210.094910,397.846100 
	C196.611359,391.524384 185.594711,381.852417 178.744507,368.254913 
	C174.835007,360.494720 168.945007,356.035980 160.277435,354.950897 
	C155.198242,354.315063 150.706390,352.235077 147.596558,347.381531 
z"/>
<path fill="#E31D19" opacity="1.000000" stroke="none" 
	d="
M343.904480,218.819458 
	C343.919312,225.758606 338.436890,233.324539 332.371582,234.609741 
	C331.139954,234.870712 329.178467,234.046310 328.372803,233.055817 
	C327.904633,232.480240 328.714630,229.776474 329.554688,229.407196 
	C334.013031,227.447403 336.266663,223.835449 338.271820,219.716766 
	C338.862244,218.504028 340.757660,217.926620 342.411560,217.050201 
	C343.127594,217.533783 343.487122,218.025223 343.904480,218.819458 
z"/>
<path fill="#E31D19" opacity="1.000000" stroke="none" 
	d="
M406.355011,240.155319 
	C402.836151,244.682068 399.498291,249.102707 395.602203,252.959457 
	C394.682404,253.869965 391.884094,252.882828 389.949951,252.768646 
	C390.735077,251.124329 391.222382,249.224152 392.368530,247.889954 
	C394.618073,245.271332 397.094574,242.798599 399.754150,240.600693 
	C401.220093,239.389236 403.248444,238.858383 405.411987,238.029465 
	C405.977783,238.639862 406.154877,239.241501 406.355011,240.155319 
z"/>
<path fill="#E31D1A" opacity="1.000000" stroke="none" 
	d="
M273.530853,128.516479 
	C272.311523,133.209702 270.817291,137.827728 268.957916,142.293747 
	C268.627777,143.086731 266.465973,143.906998 265.705078,143.545670 
	C264.563660,143.003662 263.409851,141.534058 263.143585,140.272690 
	C262.144379,135.539230 266.663574,129.281540 271.994873,128.102783 
	C272.598999,128.220093 272.865234,128.304779 273.530853,128.516479 
z"/>
<path fill="#ED9A25" opacity="1.000000" stroke="none" 
	d="
M240.090042,366.180725 
	C241.919769,366.849731 243.636261,367.904266 245.698822,369.030243 
	C246.050964,369.504059 246.057022,369.906464 246.099274,370.608582 
	C244.987869,373.426880 244.130127,376.147766 242.572235,378.379944 
	C241.776047,379.520721 239.725159,379.785797 238.241379,380.446686 
	C237.781372,378.769775 236.695877,376.971069 236.993607,375.441681 
	C237.584854,372.404694 238.938339,369.516174 240.090042,366.180725 
z"/>
<path fill="#FBB9B3" opacity="1.000000" stroke="none" 
	d="
M226.726944,250.516571 
	C229.839584,258.320587 230.338806,265.451172 223.973694,271.579803 
	C220.066986,275.341400 214.883469,276.088257 210.195908,273.657227 
	C203.512909,270.191315 198.194489,258.747162 199.664352,251.561295 
	C201.020599,244.930939 204.968918,240.755417 211.412567,239.526962 
	C217.433487,238.379120 221.393295,242.069748 224.499374,246.756409 
	C225.232803,247.863068 225.872360,249.031937 226.726944,250.516571 
z"/>
<path fill="#E31D1A" opacity="1.000000" stroke="none" 
	d="
M184.577942,135.036957 
	C195.611313,137.316711 201.051575,144.939255 204.926575,154.208298 
	C208.247421,162.151779 211.453842,170.148239 215.002304,177.989380 
	C216.929474,182.247925 220.476593,184.797272 225.009537,186.373962 
	C226.610397,186.930786 227.522064,189.468948 228.748383,191.102509 
	C226.716034,191.514038 224.364212,192.800522 222.703522,192.194168 
	C212.438492,188.446121 207.743896,179.746613 203.921661,170.273285 
	C201.018082,163.076813 198.456726,155.592117 194.448318,149.026108 
	C188.172287,138.745544 175.424957,138.826324 168.338074,148.518600 
	C166.994247,150.356445 165.693268,153.400269 163.206665,151.093628 
	C162.116638,150.082489 162.333405,146.116547 163.444885,144.544266 
	C168.409134,137.521851 175.540375,134.486664 184.577942,135.036957 
z"/>
<path fill="#E31D1A" opacity="1.000000" stroke="none" 
	d="
M373.679779,322.509674 
	C371.037170,318.258728 368.338409,314.474213 366.161285,310.410217 
	C365.358246,308.911224 365.784698,306.753540 365.650391,304.896301 
	C367.339264,305.307739 369.600647,305.164124 370.624603,306.220215 
	C377.531494,313.343903 381.680450,322.075806 382.814636,331.823608 
	C384.012726,342.120117 383.357666,352.405212 378.435303,361.936615 
	C378.206665,362.379272 378.118591,362.995392 377.763458,363.254944 
	C375.852325,364.651947 373.261688,367.500763 372.040192,367.012115 
	C368.409576,365.559875 370.666656,362.697906 371.836334,360.393921 
	C378.039093,348.175873 378.682556,335.667969 373.679779,322.509674 
z"/>
<path fill="#FFFFFF" opacity="1.000000" stroke="none" 
	d="
M384.329468,225.407990 
	C384.096527,225.433548 383.696350,225.244659 383.543060,224.926392 
	C383.914032,224.929199 384.038116,225.061371 384.329468,225.407990 
z"/>
<path fill="#ED9A25" opacity="1.000000" stroke="none" 
	d="
M161.296616,337.775269 
	C160.428452,340.496643 162.568146,344.938507 158.184875,344.606506 
	C153.907501,344.282623 154.205688,339.613617 155.241119,337.053467 
	C156.392426,334.206818 159.142242,331.799103 161.692047,329.848602 
	C162.486465,329.240936 164.893082,330.740845 166.561676,331.275940 
	C165.779053,332.649780 165.134064,334.131958 164.166855,335.360474 
	C163.488815,336.221680 162.371140,336.736786 161.296616,337.775269 
z"/>
<path fill="#ED9A25" opacity="1.000000" stroke="none" 
	d="
M230.986725,357.398804 
	C232.649170,358.349701 234.296432,359.682343 236.011566,361.306580 
	C234.238266,365.383942 232.648117,369.329956 230.397339,372.854095 
	C229.752991,373.862976 227.196381,373.650482 225.516602,373.998047 
	C225.490204,372.403625 224.978790,370.613037 225.529297,369.251953 
	C227.113556,365.335175 229.126831,361.591949 230.986725,357.398804 
z"/>
<path fill="#ED9A25" opacity="1.000000" stroke="none" 
	d="
M217.990234,350.403259 
	C219.875534,350.824646 221.755386,351.633362 223.827957,352.720398 
	C223.769531,354.109985 223.888321,355.664581 223.193649,356.244171 
	C221.519760,357.640808 219.465195,358.581238 217.564148,359.705627 
	C217.440613,357.676483 217.218567,355.646423 217.237167,353.618591 
	C217.245834,352.673706 217.721039,351.733124 217.990234,350.403259 
z"/>
</svg>