<svg version="1.1" id="Layer_1" xmlns="http://www.w3.org/2000/svg" xmlns:xlink="http://www.w3.org/1999/xlink" x="0px" y="0px"
	 width="100%" viewBox="0 0 512 512" enable-background="new 0 0 512 512" xml:space="preserve">
<path fill="#F0F1F4" opacity="1.000000" stroke="none" 
	d="
M513.000000,235.000000 
	C513.000000,249.354233 513.000000,263.708466 512.614380,278.624634 
	C511.821045,280.188568 511.236847,281.155884 511.031891,282.197784 
	C507.842896,298.412781 505.804565,314.949524 501.315033,330.792725 
	C492.815338,360.787720 478.494568,388.072021 459.197266,412.696869 
	C444.360229,431.629974 427.390320,448.383270 408.204681,462.813904 
	C390.861908,475.858337 371.865662,486.076172 351.710815,494.135712 
	C329.405731,503.055145 306.338715,508.805664 282.404022,511.075012 
	C281.219177,511.187347 280.132446,512.334656 279.000000,513.000000 
	C264.645782,513.000000 250.291550,513.000000 235.375549,512.614380 
	C228.899094,511.169098 223.009186,509.938080 217.065460,509.079651 
	C192.049820,505.466736 168.279709,497.817688 145.627975,486.765259 
	C126.005486,477.190857 107.817810,465.374542 91.329536,450.952576 
	C76.527779,438.005737 62.814556,424.036194 51.187435,408.187897 
	C38.370831,390.718262 27.759125,371.962219 19.831038,351.713776 
	C11.075816,329.352814 5.002898,306.382080 2.923439,282.403259 
	C2.821012,281.222107 1.665268,280.132324 0.999998,279.000000 
	C1.000000,264.645782 1.000000,250.291550 1.385649,235.375565 
	C2.179081,233.812256 2.803632,232.843399 2.960361,231.803986 
	C4.216639,223.472595 5.029557,215.058441 6.645006,206.800064 
	C11.817102,180.359604 21.277586,155.516220 34.431370,131.964508 
	C50.027679,104.039474 70.545807,80.266388 94.907616,59.865417 
	C115.130081,42.930794 137.680832,29.581009 162.294250,19.859392 
	C184.937851,10.915797 208.314835,5.084941 232.594910,2.923747 
	C233.777649,2.818472 234.867111,1.665238 236.000000,0.999999 
	C249.687561,1.000000 263.375122,1.000000 277.625793,1.387285 
	C278.858826,2.172754 279.507294,2.875630 280.201782,2.924561 
	C297.466492,4.140976 314.195953,7.861239 330.801208,12.694852 
	C366.690918,23.141966 398.384583,41.201912 426.120361,65.861900 
	C456.335266,92.726120 479.451904,124.936104 494.358368,162.756104 
	C503.099854,184.934631 508.845947,207.831650 511.075409,231.597656 
	C511.186462,232.781525 512.334717,233.868118 513.000000,235.000000 
M151.500000,414.000122 
	C191.818817,414.000122 232.137634,414.000122 272.456451,414.000092 
	C309.276489,414.000031 346.096558,414.015564 382.916595,413.986938 
	C390.497162,413.981018 394.326447,410.526093 394.364380,403.269409 
	C394.441895,388.443909 394.832184,373.588989 394.092438,358.796234 
	C392.172272,320.398254 359.618256,288.651123 321.246216,288.213013 
	C278.434052,287.724182 235.609055,287.787506 192.795227,288.196106 
	C158.151169,288.526733 126.198807,315.183044 121.339821,349.372650 
	C118.736992,367.687103 119.955002,386.567474 119.820450,405.195160 
	C119.782356,410.468323 123.931076,413.813232 129.508652,413.945801 
	C136.502243,414.112091 143.502579,413.994965 151.500000,414.000122 
M318.337433,130.196014 
	C303.495972,111.568275 284.196564,101.024666 260.414093,100.148102 
	C213.003754,98.400703 176.449097,136.799789 179.857666,184.118011 
	C183.127670,229.512634 227.589981,262.979401 272.075684,253.530502 
	C328.505341,241.544662 352.767639,177.774384 318.337433,130.196014 
z"/>
<path fill="#FFFFFF" opacity="1.000000" stroke="none" 
	d="
M513.000000,234.531342 
	C512.334717,233.868118 511.186462,232.781525 511.075409,231.597656 
	C508.845947,207.831650 503.099854,184.934631 494.358368,162.756104 
	C479.451904,124.936104 456.335266,92.726120 426.120361,65.861900 
	C398.384583,41.201912 366.690918,23.141966 330.801208,12.694852 
	C314.195953,7.861239 297.466492,4.140976 280.201782,2.924561 
	C279.507294,2.875630 278.858826,2.172754 278.094452,1.387285 
	C356.260223,1.000000 434.520416,1.000000 513.000000,1.000000 
	C513.000000,78.687424 513.000000,156.375046 513.000000,234.531342 
z"/>
<path fill="#FFFFFF" opacity="1.000000" stroke="none" 
	d="
M235.531342,0.999999 
	C234.867111,1.665238 233.777649,2.818472 232.594910,2.923747 
	C208.314835,5.084941 184.937851,10.915797 162.294250,19.859392 
	C137.680832,29.581009 115.130081,42.930794 94.907616,59.865417 
	C70.545807,80.266388 50.027679,104.039474 34.431370,131.964508 
	C21.277586,155.516220 11.817102,180.359604 6.645006,206.800064 
	C5.029557,215.058441 4.216639,223.472595 2.960361,231.803986 
	C2.803632,232.843399 2.179081,233.812256 1.385649,234.906906 
	C1.000000,157.072800 1.000000,79.145592 1.000000,1.000000 
	C79.020760,1.000000 157.041718,1.000000 235.531342,0.999999 
z"/>
<path fill="#FFFFFF" opacity="1.000000" stroke="none" 
	d="
M0.999998,279.468658 
	C1.665268,280.132324 2.821012,281.222107 2.923439,282.403259 
	C5.002898,306.382080 11.075816,329.352814 19.831038,351.713776 
	C27.759125,371.962219 38.370831,390.718262 51.187435,408.187897 
	C62.814556,424.036194 76.527779,438.005737 91.329536,450.952576 
	C107.817810,465.374542 126.005486,477.190857 145.627975,486.765259 
	C168.279709,497.817688 192.049820,505.466736 217.065460,509.079651 
	C223.009186,509.938080 228.899094,511.169098 234.906891,512.614380 
	C157.072968,513.000000 79.145927,513.000000 1.000000,513.000000 
	C1.000000,435.312561 1.000000,357.624939 0.999998,279.468658 
z"/>
<path fill="#FFFFFF" opacity="1.000000" stroke="none" 
	d="
M279.468689,513.000000 
	C280.132446,512.334656 281.219177,511.187347 282.404022,511.075012 
	C306.338715,508.805664 329.405731,503.055145 351.710815,494.135712 
	C371.865662,486.076172 390.861908,475.858337 408.204681,462.813904 
	C427.390320,448.383270 444.360229,431.629974 459.197266,412.696869 
	C478.494568,388.072021 492.815338,360.787720 501.315033,330.792725 
	C505.804565,314.949524 507.842896,298.412781 511.031891,282.197784 
	C511.236847,281.155884 511.821045,280.188568 512.614380,279.093262 
	C513.000000,356.927032 513.000000,434.854095 513.000000,513.000000 
	C435.312561,513.000000 357.624939,513.000000 279.468689,513.000000 
z"/>
<path fill="#5D6163" opacity="1.000000" stroke="none" 
	d="
M151.000000,414.000122 
	C143.502579,413.994965 136.502243,414.112091 129.508652,413.945801 
	C123.931076,413.813232 119.782356,410.468323 119.820450,405.195160 
	C119.955002,386.567474 118.736992,367.687103 121.339821,349.372650 
	C126.198807,315.183044 158.151169,288.526733 192.795227,288.196106 
	C235.609055,287.787506 278.434052,287.724182 321.246216,288.213013 
	C359.618256,288.651123 392.172272,320.398254 394.092438,358.796234 
	C394.832184,373.588989 394.441895,388.443909 394.364380,403.269409 
	C394.326447,410.526093 390.497162,413.981018 382.916595,413.986938 
	C346.096558,414.015564 309.276489,414.000031 272.456451,414.000092 
	C232.137634,414.000122 191.818817,414.000122 151.000000,414.000122 
z"/>
<path fill="#5D6163" opacity="1.000000" stroke="none" 
	d="
M318.562012,130.476532 
	C352.767639,177.774384 328.505341,241.544662 272.075684,253.530502 
	C227.589981,262.979401 183.127670,229.512634 179.857666,184.118011 
	C176.449097,136.799789 213.003754,98.400703 260.414093,100.148102 
	C284.196564,101.024666 303.495972,111.568275 318.562012,130.476532 
z"/>
</svg>