<svg version="1.1" id="Layer_1" xmlns="http://www.w3.org/2000/svg" xmlns:xlink="http://www.w3.org/1999/xlink" x="0px" y="0px"
	 width="100%" viewBox="0 0 512 512" enable-background="new 0 0 512 512" xml:space="preserve">
<path fill="#000000" opacity="1.000000" stroke="none" 
	d="
M295.000000,513.000000 
	C196.690536,513.000000 98.881065,513.000000 1.035801,513.000000 
	C1.035801,342.398834 1.035801,171.797684 1.035801,1.098256 
	C171.559479,1.098256 342.119049,1.098256 512.839294,1.098256 
	C512.839294,171.666550 512.839294,342.333252 512.839294,513.000000 
	C440.464325,513.000000 367.982147,513.000000 295.000000,513.000000 
M422.003632,460.160736 
	C423.065399,452.268890 422.016785,444.251862 416.749786,438.576538 
	C401.961884,422.642242 386.369263,407.454803 371.216034,391.279907 
	C379.355438,384.814819 388.072296,378.943848 395.488983,371.735199 
	C404.900574,362.587616 413.796844,352.781250 421.937805,342.485962 
	C433.298096,328.119476 441.447510,311.816498 448.088806,294.724701 
	C455.102417,276.674591 459.695251,257.973053 460.777069,238.778839 
	C462.134247,214.699173 460.915863,190.724701 454.184235,167.153122 
	C449.027039,149.094528 441.991669,131.932022 432.330811,116.027779 
	C420.919342,97.241470 407.264069,80.005478 389.748383,66.415359 
	C378.793701,57.915852 367.714172,49.300575 355.683350,42.526169 
	C334.810211,30.772785 312.334961,22.970846 288.354156,19.930927 
	C273.875183,18.095507 259.547546,16.580322 244.794647,17.709820 
	C229.803040,18.857594 215.133179,21.046194 200.750595,25.078827 
	C184.758316,29.562780 169.203430,35.429123 155.186935,44.471622 
	C144.482086,51.377659 133.742432,58.463123 124.119865,66.748215 
	C114.344978,75.164482 105.327316,84.657104 97.084724,94.596146 
	C90.019966,103.114922 84.257454,112.768089 78.389046,122.211647 
	C69.931877,135.821091 64.108650,150.693680 60.158253,166.130844 
	C57.321564,177.215912 55.702606,188.642746 54.056290,199.991959 
	C52.906292,207.919739 52.133274,215.972519 52.108540,223.972290 
	C52.086418,231.125732 53.091629,238.313904 54.056259,245.430817 
	C55.252373,254.255615 56.179878,263.207184 58.457695,271.775909 
	C62.988178,288.818726 69.278549,305.208649 77.854141,320.769897 
	C86.367455,336.218109 96.395699,350.584839 108.769119,362.935059 
	C119.308830,373.454956 131.464752,382.355621 142.277893,392.195618 
	C128.560120,405.923676 114.765953,419.576569 101.154793,433.409546 
	C93.666176,441.020203 90.594223,450.276978 92.010971,461.802734 
	C92.571861,480.990601 108.714264,496.926208 130.050095,496.954590 
	C211.132339,497.062439 292.214844,497.018402 373.297180,496.953796 
	C379.403564,496.948944 385.531281,496.558258 391.611450,495.962982 
	C407.909363,494.367249 422.422089,477.464386 422.003632,460.160736 
z"/>
<path fill="#E5E8EF" opacity="1.000000" stroke="none" 
	d="
M142.905670,391.972656 
	C131.464752,382.355621 119.308830,373.454956 108.769119,362.935059 
	C96.395699,350.584839 86.367455,336.218109 77.854141,320.769897 
	C69.278549,305.208649 62.988178,288.818726 58.457695,271.775909 
	C56.179878,263.207184 55.252373,254.255615 54.056259,245.430817 
	C53.091629,238.313904 52.086418,231.125732 52.108540,223.972290 
	C52.133274,215.972519 52.906292,207.919739 54.056290,199.991959 
	C55.702606,188.642746 57.321564,177.215912 60.158253,166.130844 
	C64.108650,150.693680 69.931877,135.821091 78.389046,122.211647 
	C84.257454,112.768089 90.019966,103.114922 97.084724,94.596146 
	C105.327316,84.657104 114.344978,75.164482 124.119865,66.748215 
	C133.742432,58.463123 144.482086,51.377659 155.186935,44.471622 
	C169.203430,35.429123 184.758316,29.562780 200.750595,25.078827 
	C215.133179,21.046194 229.803040,18.857594 244.794647,17.709820 
	C259.547546,16.580322 273.875183,18.095507 288.354156,19.930927 
	C312.334961,22.970846 334.810211,30.772785 355.683350,42.526169 
	C367.714172,49.300575 378.793701,57.915852 389.748383,66.415359 
	C407.264069,80.005478 420.919342,97.241470 432.330811,116.027779 
	C441.991669,131.932022 449.027039,149.094528 454.184235,167.153122 
	C460.915863,190.724701 462.134247,214.699173 460.777069,238.778839 
	C459.695251,257.973053 455.102417,276.674591 448.088806,294.724701 
	C441.447510,311.816498 433.298096,328.119476 421.937805,342.485962 
	C413.796844,352.781250 404.900574,362.587616 395.488983,371.735199 
	C388.072296,378.943848 379.355438,384.814819 370.793274,391.667480 
	C363.864777,395.723602 357.480164,399.629791 350.831787,403.018402 
	C325.668030,415.844208 299.056580,423.110413 270.775024,425.232910 
	C252.687027,426.590393 235.001282,425.178284 217.377762,421.838501 
	C195.493576,417.691315 174.846390,410.026276 155.547577,398.812988 
	C151.406754,396.406982 147.123367,394.246338 142.905670,391.972656 
M132.002716,218.570862 
	C132.428818,225.877304 132.229874,233.283569 133.378510,240.474609 
	C143.947586,306.641205 201.915909,351.884369 268.517639,346.188934 
	C339.456573,340.122589 391.499054,273.984772 380.774719,203.527710 
	C370.467041,135.808014 309.128693,89.434326 240.994019,97.849243 
	C180.557632,105.313385 133.592743,156.923416 132.002716,218.570862 
M146.886307,114.899178 
	C156.777679,116.586250 164.481949,112.689735 167.483078,104.482132 
	C170.266220,96.870705 167.260101,88.309685 160.334229,84.123215 
	C152.098892,79.145203 141.319458,82.106705 136.728806,90.608490 
	C131.761734,99.807404 135.706131,109.890770 146.886307,114.899178 
z"/>
<path fill="#CDD4DF" opacity="1.000000" stroke="none" 
	d="
M142.591782,392.084137 
	C147.123367,394.246338 151.406754,396.406982 155.547577,398.812988 
	C174.846390,410.026276 195.493576,417.691315 217.377762,421.838501 
	C235.001282,425.178284 252.687027,426.590393 270.775024,425.232910 
	C299.056580,423.110413 325.668030,415.844208 350.831787,403.018402 
	C357.480164,399.629791 363.864777,395.723602 370.732269,392.013947 
	C386.369263,407.454803 401.961884,422.642242 416.749786,438.576538 
	C422.016785,444.251862 423.065399,452.268890 421.486053,460.593567 
	C318.012726,461.032471 215.056976,461.040436 112.101219,461.040161 
	C105.438728,461.040161 98.776245,460.977203 92.113754,460.943542 
	C90.594223,450.276978 93.666176,441.020203 101.154793,433.409546 
	C114.765953,419.576569 128.560120,405.923676 142.591782,392.084137 
z"/>
<path fill="#33527D" opacity="1.000000" stroke="none" 
	d="
M92.062363,461.373108 
	C98.776245,460.977203 105.438728,461.040161 112.101219,461.040161 
	C215.056976,461.040436 318.012726,461.032471 421.427063,460.984741 
	C422.422089,477.464386 407.909363,494.367249 391.611450,495.962982 
	C385.531281,496.558258 379.403564,496.948944 373.297180,496.953796 
	C292.214844,497.018402 211.132339,497.062439 130.050095,496.954590 
	C108.714264,496.926208 92.571861,480.990601 92.062363,461.373108 
z"/>
<path fill="#34537E" opacity="1.000000" stroke="none" 
	d="
M132.012329,218.085114 
	C133.592743,156.923416 180.557632,105.313385 240.994019,97.849243 
	C309.128693,89.434326 370.467041,135.808014 380.774719,203.527710 
	C391.499054,273.984772 339.456573,340.122589 268.517639,346.188934 
	C201.915909,351.884369 143.947586,306.641205 133.378510,240.474609 
	C132.229874,233.283569 132.428818,225.877304 132.012329,218.085114 
M323.994019,150.487991 
	C301.041748,129.749634 274.261322,120.840553 243.504929,124.980423 
	C189.865768,132.200348 151.620010,182.259384 160.351196,236.827042 
	C169.154358,291.844604 219.614395,327.303345 274.577545,317.994629 
	C319.424652,310.399231 354.521973,269.450195 354.858429,223.986481 
	C355.069733,195.437378 345.050964,170.983353 323.994019,150.487991 
z"/>
<path fill="#0A9DFF" opacity="1.000000" stroke="none" 
	d="
M146.512695,114.781982 
	C135.706131,109.890770 131.761734,99.807404 136.728806,90.608490 
	C141.319458,82.106705 152.098892,79.145203 160.334229,84.123215 
	C167.260101,88.309685 170.266220,96.870705 167.483078,104.482132 
	C164.481949,112.689735 156.777679,116.586250 146.512695,114.781982 
z"/>
<path fill="#079CFE" opacity="1.000000" stroke="none" 
	d="
M324.247681,150.738190 
	C345.050964,170.983353 355.069733,195.437378 354.858429,223.986481 
	C354.521973,269.450195 319.424652,310.399231 274.577545,317.994629 
	C219.614395,327.303345 169.154358,291.844604 160.351196,236.827042 
	C151.620010,182.259384 189.865768,132.200348 243.504929,124.980423 
	C274.261322,120.840553 301.041748,129.749634 324.247681,150.738190 
M283.973633,157.468521 
	C271.874634,152.496063 259.463226,150.950714 246.416611,152.891403 
	C214.311768,157.667023 188.195160,185.084671 187.187973,219.601242 
	C186.483017,243.759644 196.140488,263.934021 215.890610,278.052216 
	C238.788986,294.420929 263.742584,296.031464 288.945831,283.818970 
	C313.122437,272.103912 330.310944,243.420288 326.121460,213.555832 
	C322.434723,187.275009 308.435028,168.988464 283.973633,157.468521 
z"/>
<path fill="#367DE2" opacity="1.000000" stroke="none" 
	d="
M284.315369,157.641571 
	C308.435028,168.988464 322.434723,187.275009 326.121460,213.555832 
	C330.310944,243.420288 313.122437,272.103912 288.945831,283.818970 
	C263.742584,296.031464 238.788986,294.420929 215.890610,278.052216 
	C196.140488,263.934021 186.483017,243.759644 187.187973,219.601242 
	C188.195160,185.084671 214.311768,157.667023 246.416611,152.891403 
	C259.463226,150.950714 271.874634,152.496063 284.315369,157.641571 
M213.446243,243.963791 
	C226.105133,268.367645 254.984497,277.684174 279.461151,265.260315 
	C303.249542,253.185822 312.770966,223.464584 300.561066,199.396835 
	C288.616974,175.852951 259.344788,166.063782 235.667953,177.695374 
	C211.015289,189.806381 201.155182,218.474915 213.446243,243.963791 
z"/>
<path fill="#089CFF" opacity="1.000000" stroke="none" 
	d="
M213.276672,243.627808 
	C201.155182,218.474915 211.015289,189.806381 235.667953,177.695374 
	C259.344788,166.063782 288.616974,175.852951 300.561066,199.396835 
	C312.770966,223.464584 303.249542,253.185822 279.461151,265.260315 
	C254.984497,277.684174 226.105133,268.367645 213.276672,243.627808 
M259.203552,226.992599 
	C269.221832,221.116959 273.045471,211.666199 269.429993,201.716339 
	C266.188568,192.795883 256.783112,186.998459 247.773743,188.479477 
	C239.305023,189.871597 233.477554,194.583679 230.918411,202.831100 
	C228.475159,210.705093 230.417160,217.780792 236.320282,223.371689 
	C242.702591,229.416397 250.274567,230.651794 259.203552,226.992599 
M262.510834,234.057968 
	C258.136658,239.778473 257.549042,245.412750 260.789520,250.563095 
	C263.718475,255.218292 269.332153,257.675171 274.482758,256.556091 
	C280.063141,255.343597 284.157379,251.226532 285.030212,245.949921 
	C285.959076,240.334305 283.752258,234.921616 279.153351,232.171631 
	C273.519501,228.802734 268.106781,229.382233 262.510834,234.057968 
z"/>
<path fill="#E2E7EF" opacity="1.000000" stroke="none" 
	d="
M258.847290,227.143860 
	C250.274567,230.651794 242.702591,229.416397 236.320282,223.371689 
	C230.417160,217.780792 228.475159,210.705093 230.918411,202.831100 
	C233.477554,194.583679 239.305023,189.871597 247.773743,188.479477 
	C256.783112,186.998459 266.188568,192.795883 269.429993,201.716339 
	C273.045471,211.666199 269.221832,221.116959 258.847290,227.143860 
z"/>
<path fill="#E1E7EF" opacity="1.000000" stroke="none" 
	d="
M262.780334,233.792999 
	C268.106781,229.382233 273.519501,228.802734 279.153351,232.171631 
	C283.752258,234.921616 285.959076,240.334305 285.030212,245.949921 
	C284.157379,251.226532 280.063141,255.343597 274.482758,256.556091 
	C269.332153,257.675171 263.718475,255.218292 260.789520,250.563095 
	C257.549042,245.412750 258.136658,239.778473 262.780334,233.792999 
z"/>
</svg>