<svg version="1.1" id="Layer_1" xmlns="http://www.w3.org/2000/svg" xmlns:xlink="http://www.w3.org/1999/xlink" x="0px" y="0px"
	 width="100%" viewBox="0 0 512 512" enable-background="new 0 0 512 512" xml:space="preserve">
<path fill="#FF9500" opacity="1.000000" stroke="none" 
	d="
M225.000000,1.000002 
	C246.020889,1.000000 267.041779,1.000000 288.193207,1.333913 
	C289.328552,2.110308 290.293701,2.766226 291.344452,2.961603 
	C299.968262,4.565097 308.695831,5.706874 317.225830,7.699636 
	C339.748169,12.961262 361.096558,21.265511 381.315216,32.628185 
	C399.921997,43.084991 417.227051,55.229633 432.523468,70.110687 
	C439.163788,76.570694 445.443848,83.412605 451.705383,90.247955 
	C464.549561,104.269165 475.054077,120.026344 483.834900,136.774139 
	C498.033417,163.855225 507.659851,192.524597 511.083588,223.089417 
	C511.161957,223.789047 512.336670,224.365891 513.000000,225.000000 
	C513.000000,243.020889 513.000000,261.041779 512.766602,279.273438 
	C511.291016,277.397064 510.411591,274.950073 508.751862,273.277344 
	C487.474426,251.834305 466.101654,230.485657 444.685822,209.180695 
	C443.354340,207.856079 441.462646,207.094620 439.871582,206.051880 
	C439.911591,206.032608 439.954010,206.110626 439.909546,205.794891 
	C439.464478,205.002655 439.063843,204.526169 438.770508,204.000656 
	C438.877838,203.951630 438.975952,204.166229 438.793518,203.939728 
	C438.308319,203.467484 438.005554,203.221741 437.433777,202.799606 
	C424.995056,185.255035 408.535706,174.113571 387.869446,168.642593 
	C387.395660,168.309402 387.097839,168.169159 386.881531,168.092834 
	C386.981140,168.118286 386.928131,168.316986 386.814697,167.980942 
	C385.535706,166.035889 384.531738,164.273987 383.177979,162.843018 
	C375.193726,154.403275 367.170013,145.999634 359.051056,137.689850 
	C357.604004,136.208771 355.648376,135.224564 353.960968,134.010071 
	C353.994354,134.009216 353.986176,134.075500 353.925659,133.767334 
	C353.479553,132.976425 353.093964,132.493713 352.832275,132.000702 
	C352.956177,131.990402 352.976135,132.238205 352.811890,132.002502 
	C352.366608,131.507233 352.085571,131.247665 351.523804,130.821472 
	C342.212982,118.043655 331.154755,107.549263 317.925903,99.475502 
	C299.249786,88.077209 279.036560,81.898460 256.562225,82.307755 
	C205.453339,83.189278 162.549728,114.664558 146.981583,162.498352 
	C145.958160,165.642899 144.709259,166.861374 141.193817,167.001846 
	C89.560661,169.064911 52.143299,219.229004 64.469116,269.592255 
	C69.293190,289.303436 80.204338,304.953033 96.176079,317.698212 
	C96.933441,318.319214 97.498886,318.661652 98.026474,319.010956 
	C97.988617,319.017822 97.974243,318.942200 98.132874,319.150024 
	C98.564888,319.568848 98.838272,319.779846 99.041779,319.932556 
	C98.971901,319.874237 99.071899,319.722168 99.093315,320.079987 
	C100.535782,322.241852 101.789963,324.212616 103.401985,325.825836 
	C163.907104,386.375244 224.444061,446.892792 284.986694,507.404694 
	C286.278107,508.695435 287.686310,509.869324 288.868347,511.471191 
	C288.797760,512.229797 288.898895,512.614868 289.000000,513.000000 
	C267.979095,513.000000 246.958206,513.000000 225.804138,512.659424 
	C224.829010,511.882751 224.029480,511.204468 223.138519,511.048523 
	C215.134293,509.647522 207.035217,508.693939 199.112732,506.937866 
	C171.641312,500.848694 145.872589,490.281281 122.058678,475.403107 
	C99.234833,461.143524 79.057930,443.651215 61.507057,423.114105 
	C49.486610,409.048370 38.997921,393.948853 30.417761,377.654175 
	C16.087772,350.439941 6.248918,321.679230 2.915940,290.907257 
	C2.840472,290.210510 1.663280,289.633087 0.999998,289.000000 
	C1.000000,267.645782 1.000000,246.291550 1.333006,224.806946 
	C2.096920,224.004639 2.788627,223.379089 2.917693,222.653488 
	C4.000076,216.568207 4.839890,210.437622 6.013373,204.371078 
	C11.331907,176.875977 21.376848,151.102844 35.566200,127.061172 
	C50.012119,102.584785 68.251045,81.202301 89.802727,62.544430 
	C104.189163,50.089710 119.645020,39.235550 136.364517,30.391499 
	C163.541931,16.015585 192.347900,6.302714 223.092285,2.916104 
	C223.790085,2.839237 224.366806,1.663281 225.000000,1.000002 
z"/>
<path fill="#FA5D0F" opacity="1.000000" stroke="none" 
	d="
M439.831573,206.071136 
	C441.462646,207.094620 443.354340,207.856079 444.685822,209.180695 
	C466.101654,230.485657 487.474426,251.834305 508.751862,273.277344 
	C510.411591,274.950073 511.291016,277.397064 512.766602,279.742065 
	C513.000000,282.700012 513.000000,285.400024 512.608887,288.332214 
	C511.153687,293.930664 509.993622,299.279999 509.042206,304.666138 
	C505.233459,326.228729 498.422699,346.822266 489.088074,366.593292 
	C479.279419,387.368286 466.933044,406.481628 451.783569,423.804474 
	C437.948639,439.624084 422.815491,453.928406 405.652435,466.153351 
	C387.366760,479.177948 367.853729,489.899384 346.804932,497.508331 
	C328.139038,504.255859 309.090973,509.962708 289.040039,511.097687 
	C287.686310,509.869324 286.278107,508.695435 284.986694,507.404694 
	C224.444061,446.892792 163.907104,386.375244 103.401985,325.825836 
	C101.789963,324.212616 100.535782,322.241852 99.444702,320.164124 
	C114.736252,329.523651 131.162323,333.724762 148.897888,333.607117 
	C169.499634,333.470428 190.103577,333.664368 210.753693,334.211548 
	C210.800827,351.454407 210.800827,368.200562 210.800827,385.026733 
	C226.725647,385.026733 241.870529,385.026733 257.464691,385.166626 
	C272.944855,385.306488 287.975739,385.306488 303.496460,385.306488 
	C303.496460,367.820953 303.496460,350.929016 303.931458,333.985657 
	C325.333984,333.913788 346.302246,333.993378 367.268768,333.839966 
	C382.810608,333.726257 397.455170,330.059967 410.925964,322.065063 
	C439.883331,304.878754 455.733337,271.903473 451.227722,239.212936 
	C449.587036,227.309174 445.270782,216.552689 439.831573,206.071136 
z"/>
<path fill="#000000" opacity="1.000000" stroke="none" 
	d="
M513.000000,224.531342 
	C512.336670,224.365891 511.161957,223.789047 511.083588,223.089417 
	C507.659851,192.524597 498.033417,163.855225 483.834900,136.774139 
	C475.054077,120.026344 464.549561,104.269165 451.705383,90.247955 
	C445.443848,83.412605 439.163788,76.570694 432.523468,70.110687 
	C417.227051,55.229633 399.921997,43.084991 381.315216,32.628185 
	C361.096558,21.265511 339.748169,12.961262 317.225830,7.699636 
	C308.695831,5.706874 299.968262,4.565097 291.344452,2.961603 
	C290.293701,2.766226 289.328552,2.110308 288.661865,1.333913 
	C363.593719,1.000000 438.187408,1.000000 513.000000,1.000000 
	C513.000000,75.354088 513.000000,149.708389 513.000000,224.531342 
z"/>
<path fill="#000000" opacity="1.000000" stroke="none" 
	d="
M0.999998,289.468658 
	C1.663280,289.633087 2.840472,290.210510 2.915940,290.907257 
	C6.248918,321.679230 16.087772,350.439941 30.417761,377.654175 
	C38.997921,393.948853 49.486610,409.048370 61.507057,423.114105 
	C79.057930,443.651215 99.234833,461.143524 122.058678,475.403107 
	C145.872589,490.281281 171.641312,500.848694 199.112732,506.937866 
	C207.035217,508.693939 215.134293,509.647522 223.138519,511.048523 
	C224.029480,511.204468 224.829010,511.882751 225.335480,512.659424 
	C150.406296,513.000000 75.812599,513.000000 1.000000,513.000000 
	C1.000000,438.645905 1.000000,364.291626 0.999998,289.468658 
z"/>
<path fill="#000000" opacity="1.000000" stroke="none" 
	d="
M224.531342,1.000002 
	C224.366806,1.663281 223.790085,2.839237 223.092285,2.916104 
	C192.347900,6.302714 163.541931,16.015585 136.364517,30.391499 
	C119.645020,39.235550 104.189163,50.089710 89.802727,62.544430 
	C68.251045,81.202301 50.012119,102.584785 35.566200,127.061172 
	C21.376848,151.102844 11.331907,176.875977 6.013373,204.371078 
	C4.839890,210.437622 4.000076,216.568207 2.917693,222.653488 
	C2.788627,223.379089 2.096920,224.004639 1.333006,224.338287 
	C1.000000,149.739456 1.000000,75.478920 1.000000,1.000000 
	C75.354088,1.000000 149.708389,1.000000 224.531342,1.000002 
z"/>
<path fill="#000000" opacity="1.000000" stroke="none" 
	d="
M288.868347,511.471191 
	C309.090973,509.962708 328.139038,504.255859 346.804932,497.508331 
	C367.853729,489.899384 387.366760,479.177948 405.652435,466.153351 
	C422.815491,453.928406 437.948639,439.624084 451.783569,423.804474 
	C466.933044,406.481628 479.279419,387.368286 489.088074,366.593292 
	C498.422699,346.822266 505.233459,326.228729 509.042206,304.666138 
	C509.993622,299.279999 511.153687,293.930664 512.608887,288.782227 
	C513.000000,363.593719 513.000000,438.187408 513.000000,513.000000 
	C438.645905,513.000000 364.291626,513.000000 289.468658,513.000000 
	C288.898895,512.614868 288.797760,512.229797 288.868347,511.471191 
z"/>
<path fill="#E9EDF5" opacity="1.000000" stroke="none" 
	d="
M439.871582,206.051880 
	C445.270782,216.552689 449.587036,227.309174 451.227722,239.212936 
	C455.733337,271.903473 439.883331,304.878754 410.925964,322.065063 
	C397.455170,330.059967 382.810608,333.726257 367.268768,333.839966 
	C346.302246,333.993378 325.333984,333.913788 303.841492,333.523712 
	C303.316467,309.868927 303.316467,286.624634 303.316467,262.734436 
	C319.773315,262.734436 335.597748,262.734436 352.148346,262.734436 
	C350.771759,260.916779 350.026184,259.835541 349.184509,258.835144 
	C329.792450,235.784668 310.423157,212.714935 290.976654,189.710434 
	C279.709229,176.381439 268.314514,163.160019 256.975708,149.428406 
	C256.981293,126.761154 256.988251,104.555672 256.995209,82.350197 
	C279.036560,81.898460 299.249786,88.077209 317.925903,99.475502 
	C331.154755,107.549263 342.212982,118.043655 351.625427,131.114868 
	C352.330566,131.796005 352.653351,132.017105 352.976135,132.238205 
	C352.976135,132.238205 352.956177,131.990402 352.879639,132.321808 
	C353.197418,133.127304 353.591797,133.601410 353.986176,134.075500 
	C353.986176,134.075500 353.994354,134.009216 354.037720,134.353928 
	C358.591003,144.254181 363.019775,153.849762 367.697937,163.322189 
	C368.401825,164.747437 370.144409,166.323410 371.624023,166.581131 
	C376.672974,167.460602 381.819092,167.782394 386.928131,168.316986 
	C386.928131,168.316986 386.981140,168.118286 386.980042,168.361099 
	C387.340485,168.668304 387.701996,168.732681 388.063507,168.797073 
	C408.535706,174.113571 424.995056,185.255035 437.562073,203.099884 
	C438.298248,203.773102 438.637085,203.969666 438.975952,204.166229 
	C438.975952,204.166229 438.877838,203.951630 438.789612,204.333633 
	C439.118958,205.180634 439.536499,205.645630 439.954010,206.110626 
	C439.954010,206.110626 439.911591,206.032608 439.871582,206.051880 
z"/>
<path fill="#FFFFFE" opacity="1.000000" stroke="none" 
	d="
M256.562225,82.307755 
	C256.988251,104.555672 256.981293,126.761154 256.874878,149.644577 
	C256.775452,150.322525 256.562653,150.749329 256.259735,150.865784 
	C255.343491,151.539871 254.656372,152.035431 254.127441,152.664093 
	C227.648865,184.135513 201.176910,215.612503 174.724548,247.105972 
	C170.623611,251.988464 166.619080,256.951904 161.715927,262.916901 
	C164.995041,262.916901 166.775131,262.916748 168.555222,262.916901 
	C181.048370,262.918030 193.542053,262.982513 206.034302,262.876709 
	C209.231415,262.849640 210.962448,263.538025 210.934021,267.259125 
	C210.764847,289.410309 210.763947,311.562805 210.706558,333.714844 
	C190.103577,333.664368 169.499634,333.470428 148.897888,333.607117 
	C131.162323,333.724762 114.736252,329.523651 99.423294,319.806305 
	C99.071899,319.722168 98.971901,319.874237 98.996933,319.641846 
	C98.672729,319.253723 98.323486,319.097961 97.974243,318.942200 
	C97.974243,318.942200 97.988617,319.017822 97.857483,318.719482 
	C97.145615,318.087311 96.564888,317.753479 95.984161,317.419647 
	C80.204338,304.953033 69.293190,289.303436 64.469116,269.592255 
	C52.143299,219.229004 89.560661,169.064911 141.193817,167.001846 
	C144.709259,166.861374 145.958160,165.642899 146.981583,162.498352 
	C162.549728,114.664558 205.453339,83.189278 256.562225,82.307755 
z"/>
<path fill="#FA6113" opacity="1.000000" stroke="none" 
	d="
M386.814697,167.980942 
	C381.819092,167.782394 376.672974,167.460602 371.624023,166.581131 
	C370.144409,166.323410 368.401825,164.747437 367.697937,163.322189 
	C363.019775,153.849762 358.591003,144.254181 354.004333,134.354782 
	C355.648376,135.224564 357.604004,136.208771 359.051056,137.689850 
	C367.170013,145.999634 375.193726,154.403275 383.177979,162.843018 
	C384.531738,164.273987 385.535706,166.035889 386.814697,167.980942 
z"/>
<path fill="#FA5D0F" opacity="1.000000" stroke="none" 
	d="
M439.909546,205.794891 
	C439.536499,205.645630 439.118958,205.180634 438.682312,204.382660 
	C439.063843,204.526169 439.464478,205.002655 439.909546,205.794891 
z"/>
<path fill="#FA6113" opacity="1.000000" stroke="none" 
	d="
M353.925659,133.767334 
	C353.591797,133.601410 353.197418,133.127304 352.755737,132.332092 
	C353.093964,132.493713 353.479553,132.976425 353.925659,133.767334 
z"/>
<path fill="#FA5D0F" opacity="1.000000" stroke="none" 
	d="
M96.176079,317.698212 
	C96.564888,317.753479 97.145615,318.087311 97.895340,318.712585 
	C97.498886,318.661652 96.933441,318.319214 96.176079,317.698212 
z"/>
<path fill="#FA6113" opacity="1.000000" stroke="none" 
	d="
M387.869446,168.642593 
	C387.701996,168.732681 387.340485,168.668304 386.880432,168.335663 
	C387.097839,168.169159 387.395660,168.309402 387.869446,168.642593 
z"/>
<path fill="#FA5D0F" opacity="1.000000" stroke="none" 
	d="
M438.793518,203.939728 
	C438.637085,203.969666 438.298248,203.773102 437.831085,203.276276 
	C438.005554,203.221741 438.308319,203.467484 438.793518,203.939728 
z"/>
<path fill="#FA6113" opacity="1.000000" stroke="none" 
	d="
M352.811890,132.002502 
	C352.653351,132.017105 352.330566,131.796005 351.906128,131.281509 
	C352.085571,131.247665 352.366608,131.507233 352.811890,132.002502 
z"/>
<path fill="#FA5D0F" opacity="1.000000" stroke="none" 
	d="
M98.132874,319.150024 
	C98.323486,319.097961 98.672729,319.253723 99.066818,319.700165 
	C98.838272,319.779846 98.564888,319.568848 98.132874,319.150024 
z"/>
<path fill="#19CFFC" opacity="1.000000" stroke="none" 
	d="
M256.562653,150.749329 
	C256.562653,150.749329 256.775452,150.322525 256.876282,150.106354 
	C268.314514,163.160019 279.709229,176.381439 290.976654,189.710434 
	C310.423157,212.714935 329.792450,235.784668 349.184509,258.835144 
	C350.026184,259.835541 350.771759,260.916779 352.148346,262.734436 
	C335.597748,262.734436 319.773315,262.734436 303.316467,262.734436 
	C303.316467,286.624634 303.316467,309.868927 303.406464,333.575165 
	C303.496460,350.929016 303.496460,367.820953 303.496460,385.306488 
	C287.975739,385.306488 272.944855,385.306488 257.450745,384.696228 
	C256.982971,308.792542 256.982300,233.499069 256.956512,158.205612 
	C256.955658,155.720139 256.699707,153.234756 256.562653,150.749329 
z"/>
<path fill="#96E8FF" opacity="1.000000" stroke="none" 
	d="
M256.259735,150.865784 
	C256.699707,153.234756 256.955658,155.720139 256.956512,158.205612 
	C256.982300,233.499069 256.982971,308.792542 257.001465,384.556366 
	C241.870529,385.026733 226.725647,385.026733 210.800827,385.026733 
	C210.800827,368.200562 210.800827,351.454407 210.753693,334.211548 
	C210.763947,311.562805 210.764847,289.410309 210.934021,267.259125 
	C210.962448,263.538025 209.231415,262.849640 206.034302,262.876709 
	C193.542053,262.982513 181.048370,262.918030 168.555222,262.916901 
	C166.775131,262.916748 164.995041,262.916901 161.715927,262.916901 
	C166.619080,256.951904 170.623611,251.988464 174.724548,247.105972 
	C201.176910,215.612503 227.648865,184.135513 254.127441,152.664093 
	C254.656372,152.035431 255.343491,151.539871 256.259735,150.865784 
z"/>
</svg>