<svg version="1.1" id="Layer_1" xmlns="http://www.w3.org/2000/svg" xmlns:xlink="http://www.w3.org/1999/xlink" x="0px" y="0px"
	 width="100%" viewBox="0 0 512 512" enable-background="new 0 0 512 512" xml:space="preserve">
<path fill="#000000" opacity="1.000000" stroke="none" 
	d="
M305.000000,513.000000 
	C203.358017,513.000000 102.216026,513.000000 1.037021,513.000000 
	C1.037021,342.399658 1.037021,171.799301 1.037021,1.099475 
	C171.558670,1.099475 342.117401,1.099475 512.838074,1.099475 
	C512.838074,171.666550 512.838074,342.333252 512.838074,513.000000 
	C443.799286,513.000000 374.649628,513.000000 305.000000,513.000000 
M422.024017,86.532799 
	C412.632233,78.307907 401.884735,73.067268 389.248230,73.049576 
	C316.603577,72.947845 243.958694,73.031662 171.314087,72.918633 
	C167.135910,72.912132 164.167130,74.239296 161.285629,77.135025 
	C133.315002,105.243904 105.277351,133.286392 77.161888,161.250351 
	C74.259689,164.136902 72.919678,167.103195 72.925529,171.264648 
	C73.028542,244.575729 72.996880,317.886993 73.019386,391.198242 
	C73.019890,392.825043 73.119492,394.498596 73.499969,396.071167 
	C76.684891,409.235168 82.763222,420.713623 93.671616,429.116394 
	C102.210724,435.694092 111.722588,440.860809 122.654419,440.885559 
	C212.293610,441.088562 301.933472,441.003876 391.573120,440.969940 
	C393.167664,440.969330 394.778625,440.593964 396.353882,440.260803 
	C409.586975,437.461945 420.700653,431.020233 429.060333,420.352509 
	C435.918915,411.600250 440.914886,401.774658 440.930908,390.416779 
	C441.055817,301.777008 441.009521,213.136963 440.957642,124.497032 
	C440.955933,121.589584 440.701630,118.578842 439.927460,115.793465 
	C436.822174,104.620766 431.845642,94.500900 422.024017,86.532799 
z"/>
<path fill="#54DA72" opacity="1.000000" stroke="none" 
	d="
M422.287354,86.782501 
	C431.845642,94.500900 436.822174,104.620766 439.927460,115.793465 
	C440.701630,118.578842 440.955933,121.589584 440.957642,124.497032 
	C441.009521,213.136963 441.055817,301.777008 440.930908,390.416779 
	C440.914886,401.774658 435.918915,411.600250 429.060333,420.352509 
	C420.700653,431.020233 409.586975,437.461945 396.353882,440.260803 
	C394.778625,440.593964 393.167664,440.969330 391.573120,440.969940 
	C301.933472,441.003876 212.293610,441.088562 122.654419,440.885559 
	C111.722588,440.860809 102.210724,435.694092 93.671616,429.116394 
	C82.763222,420.713623 76.684891,409.235168 73.499969,396.071167 
	C73.119492,394.498596 73.019890,392.825043 73.019386,391.198242 
	C72.996880,317.886993 73.028542,244.575729 72.925529,171.264648 
	C72.919678,167.103195 74.259689,164.136902 77.161888,161.250351 
	C105.277351,133.286392 133.315002,105.243904 161.285629,77.135025 
	C164.167130,74.239296 167.135910,72.912132 171.314087,72.918633 
	C243.958694,73.031662 316.603577,72.947845 389.248230,73.049576 
	C401.884735,73.067268 412.632233,78.307907 422.287354,86.782501 
M149.100815,182.018250 
	C133.220749,187.699356 116.645020,183.587616 100.000244,185.395386 
	C100.000244,186.731491 100.000237,188.025208 100.000237,189.318939 
	C100.000229,254.464859 99.766647,319.612183 100.160301,384.755737 
	C100.261902,401.569031 112.430077,413.795349 129.530563,413.858002 
	C214.502365,414.169342 299.476410,414.151581 384.448456,413.872681 
	C401.528137,413.816650 413.834778,401.393768 413.885712,384.206970 
	C414.137146,299.401367 414.069427,214.594513 413.940735,129.788376 
	C413.915741,113.313652 401.711792,100.119896 383.968079,100.070618 
	C319.489075,99.891502 255.009308,100.000107 190.529831,100.000206 
	C188.772385,100.000206 187.014938,100.000198 185.302582,100.000198 
	C183.887756,117.076233 187.394363,133.775192 181.431122,150.251099 
	C180.858627,151.055649 180.157181,151.797775 179.733093,152.674149 
	C173.895721,164.736465 165.024872,173.747620 152.941635,179.605988 
	C151.801788,180.158615 150.903030,181.208481 149.100815,182.018250 
M156.927170,136.090637 
	C157.397614,130.960449 157.868073,125.830254 158.341461,120.667984 
	C145.602417,133.383499 133.329590,145.633652 121.318504,157.622559 
	C138.281296,159.939957 151.739059,152.169342 156.927170,136.090637 
z"/>
<path fill="#000000" opacity="1.000000" stroke="none" 
	d="
M182.029297,149.890213 
	C187.394363,133.775192 183.887756,117.076233 185.302582,100.000198 
	C187.014938,100.000198 188.772385,100.000206 190.529831,100.000206 
	C255.009308,100.000107 319.489075,99.891502 383.968079,100.070618 
	C401.711792,100.119896 413.915741,113.313652 413.940735,129.788376 
	C414.069427,214.594513 414.137146,299.401367 413.885712,384.206970 
	C413.834778,401.393768 401.528137,413.816650 384.448456,413.872681 
	C299.476410,414.151581 214.502365,414.169342 129.530563,413.858002 
	C112.430077,413.795349 100.261902,401.569031 100.160301,384.755737 
	C99.766647,319.612183 100.000229,254.464859 100.000237,189.318939 
	C100.000237,188.025208 100.000244,186.731491 100.000244,185.395386 
	C116.645020,183.587616 133.220749,187.699356 149.498169,182.415558 
	C148.929825,189.154694 147.174805,195.490768 147.128586,201.839279 
	C146.861679,238.503052 146.969696,275.169830 147.041275,311.835388 
	C147.048660,315.619812 147.396149,319.446228 148.022293,323.179932 
	C152.422272,349.417694 173.125900,366.541931 199.246170,366.873047 
	C237.905624,367.363159 276.581085,367.330902 315.237305,366.726196 
	C323.217041,366.601379 331.907745,364.435120 338.945068,360.707214 
	C357.959961,350.634399 366.989075,333.883575 366.997833,312.349854 
	C367.011902,277.684082 367.049377,243.018173 366.956116,208.352646 
	C366.940094,202.400208 366.681793,196.402359 365.908203,190.507767 
	C364.369659,178.784058 358.859802,168.839630 350.247620,160.939651 
	C339.114746,150.727432 325.551056,146.882568 310.563873,146.950104 
	C276.565430,147.103302 242.563965,146.805557 208.567993,147.132843 
	C199.713730,147.218063 190.875107,148.927017 182.029297,149.890213 
z"/>
<path fill="#098D26" opacity="1.000000" stroke="none" 
	d="
M181.730209,150.070648 
	C190.875107,148.927017 199.713730,147.218063 208.567993,147.132843 
	C242.563965,146.805557 276.565430,147.103302 310.563873,146.950104 
	C325.551056,146.882568 339.114746,150.727432 350.247620,160.939651 
	C358.859802,168.839630 364.369659,178.784058 365.908203,190.507767 
	C366.681793,196.402359 366.940094,202.400208 366.956116,208.352646 
	C367.049377,243.018173 367.011902,277.684082 366.997833,312.349854 
	C366.989075,333.883575 357.959961,350.634399 338.945068,360.707214 
	C331.907745,364.435120 323.217041,366.601379 315.237305,366.726196 
	C276.581085,367.330902 237.905624,367.363159 199.246170,366.873047 
	C173.125900,366.541931 152.422272,349.417694 148.022293,323.179932 
	C147.396149,319.446228 147.048660,315.619812 147.041275,311.835388 
	C146.969696,275.169830 146.861679,238.503052 147.128586,201.839279 
	C147.174805,195.490768 148.929825,189.154694 149.893951,182.420197 
	C150.903030,181.208481 151.801788,180.158615 152.941635,179.605988 
	C165.024872,173.747620 173.895721,164.736465 179.733093,152.674149 
	C180.157181,151.797775 180.858627,151.055649 181.730209,150.070648 
M336.574799,324.892548 
	C337.382996,321.556183 338.879852,318.222778 338.894104,314.883026 
	C339.058655,276.224121 339.021454,237.564270 338.986115,198.904694 
	C338.974609,186.296005 327.745667,175.026474 315.182159,175.014938 
	C276.355957,174.979294 237.529648,174.975021 198.703461,175.015991 
	C186.395035,175.028976 175.038513,186.279343 175.022308,198.521667 
	C174.970703,237.514465 174.970932,276.507416 175.022095,315.500244 
	C175.038193,327.770477 186.311600,338.968079 198.638977,338.982635 
	C237.465164,339.028534 276.291962,339.107178 315.117310,338.922882 
	C324.646057,338.877655 331.793945,334.164886 336.574799,324.892548 
z"/>
<path fill="#000000" opacity="1.000000" stroke="none" 
	d="
M156.744202,136.466522 
	C151.739059,152.169342 138.281296,159.939957 121.318504,157.622559 
	C133.329590,145.633652 145.602417,133.383499 158.341461,120.667984 
	C157.868073,125.830254 157.397614,130.960449 156.744202,136.466522 
z"/>
<path fill="#000000" opacity="1.000000" stroke="none" 
	d="
M336.366638,325.214844 
	C331.793945,334.164886 324.646057,338.877655 315.117310,338.922882 
	C276.291962,339.107178 237.465164,339.028534 198.638977,338.982635 
	C186.311600,338.968079 175.038193,327.770477 175.022095,315.500244 
	C174.970932,276.507416 174.970703,237.514465 175.022308,198.521667 
	C175.038513,186.279343 186.395035,175.028976 198.703461,175.015991 
	C237.529648,174.975021 276.355957,174.979294 315.182159,175.014938 
	C327.745667,175.026474 338.974609,186.296005 338.986115,198.904694 
	C339.021454,237.564270 339.058655,276.224121 338.894104,314.883026 
	C338.879852,318.222778 337.382996,321.556183 336.366638,325.214844 
M214.478378,304.981293 
	C229.818649,321.874969 249.036331,327.436432 270.794983,322.424896 
	C296.199982,316.573578 314.782440,292.363647 313.058075,266.620972 
	C312.595612,259.716766 307.504517,254.223145 300.487793,254.004974 
	C292.498901,253.756592 286.554901,258.658478 285.989075,265.855499 
	C285.795837,268.313507 285.412567,270.762177 285.007782,273.197113 
	C282.333801,289.281616 265.238525,299.731262 249.509705,295.313202 
	C236.174728,291.567535 228.138840,279.790039 227.979462,266.599548 
	C227.889847,259.183258 222.153641,253.986160 214.301010,254.002090 
	C206.736694,254.017426 201.382370,259.258301 200.955521,266.463623 
	C200.096451,280.965515 204.992462,293.394775 214.478378,304.981293 
M211.924011,201.011459 
	C205.064285,202.328461 201.051575,206.914413 201.005753,213.533813 
	C200.979324,217.351624 200.985870,221.169830 201.003387,224.987747 
	C201.041275,233.247604 206.096817,238.833252 213.846375,238.949081 
	C220.273117,239.045135 228.599014,233.227692 228.027420,224.838623 
	C227.836029,222.029724 228.000793,219.196701 227.998886,216.374710 
	C227.991684,205.644684 223.397278,201.004257 211.924011,201.011459 
M286.011292,213.010208 
	C286.010864,217.328796 285.937561,221.648895 286.027832,225.965591 
	C286.149750,231.795547 289.646027,235.369446 294.530151,237.685974 
	C299.668945,240.123276 304.616821,239.168015 308.834015,235.568954 
	C313.950165,231.202698 314.771973,211.392349 310.691376,206.076538 
	C306.473419,200.581802 300.803802,200.038162 295.037811,201.316223 
	C289.749634,202.488388 287.232544,207.011169 286.011292,213.010208 
z"/>
<path fill="#098D26" opacity="1.000000" stroke="none" 
	d="
M214.228485,304.726654 
	C204.992462,293.394775 200.096451,280.965515 200.955521,266.463623 
	C201.382370,259.258301 206.736694,254.017426 214.301010,254.002090 
	C222.153641,253.986160 227.889847,259.183258 227.979462,266.599548 
	C228.138840,279.790039 236.174728,291.567535 249.509705,295.313202 
	C265.238525,299.731262 282.333801,289.281616 285.007782,273.197113 
	C285.412567,270.762177 285.795837,268.313507 285.989075,265.855499 
	C286.554901,258.658478 292.498901,253.756592 300.487793,254.004974 
	C307.504517,254.223145 312.595612,259.716766 313.058075,266.620972 
	C314.782440,292.363647 296.199982,316.573578 270.794983,322.424896 
	C249.036331,327.436432 229.818649,321.874969 214.228485,304.726654 
z"/>
<path fill="#098D26" opacity="1.000000" stroke="none" 
	d="
M212.352966,201.007233 
	C223.397278,201.004257 227.991684,205.644684 227.998886,216.374710 
	C228.000793,219.196701 227.836029,222.029724 228.027420,224.838623 
	C228.599014,233.227692 220.273117,239.045135 213.846375,238.949081 
	C206.096817,238.833252 201.041275,233.247604 201.003387,224.987747 
	C200.985870,221.169830 200.979324,217.351624 201.005753,213.533813 
	C201.051575,206.914413 205.064285,202.328461 212.352966,201.007233 
z"/>
<path fill="#098D26" opacity="1.000000" stroke="none" 
	d="
M286.023865,212.572235 
	C287.232544,207.011169 289.749634,202.488388 295.037811,201.316223 
	C300.803802,200.038162 306.473419,200.581802 310.691376,206.076538 
	C314.771973,211.392349 313.950165,231.202698 308.834015,235.568954 
	C304.616821,239.168015 299.668945,240.123276 294.530151,237.685974 
	C289.646027,235.369446 286.149750,231.795547 286.027832,225.965591 
	C285.937561,221.648895 286.010864,217.328796 286.023865,212.572235 
z"/>
</svg>