<svg version="1.1" id="Layer_1" xmlns="http://www.w3.org/2000/svg" xmlns:xlink="http://www.w3.org/1999/xlink" x="0px" y="0px"
	 width="100%" viewBox="0 0 512 512" enable-background="new 0 0 512 512" xml:space="preserve">
<path fill="#000000" opacity="1.000000" stroke="none" 
	d="
M1.000000,180.000000 
	C1.000000,120.000000 1.000000,60.500000 1.000000,1.000000 
	C171.666672,1.000000 342.333344,1.000000 513.000000,1.000000 
	C513.000000,171.666672 513.000000,342.333344 513.000000,513.000000 
	C342.333344,513.000000 171.666672,513.000000 1.000000,513.000000 
	C1.000000,402.166656 1.000000,291.333344 1.000000,180.000000 
M91.020523,46.969410 
	C91.013893,186.294373 91.006927,325.619354 91.007454,464.944305 
	C91.007454,465.940430 91.110374,466.936554 91.019447,468.784912 
	C90.148842,479.188385 99.570618,488.041260 109.934418,486.973022 
	C208.475784,486.974518 307.017151,486.980194 405.558472,486.939453 
	C407.071930,486.938843 408.585144,486.366058 410.841522,486.006378 
	C418.509979,483.765259 423.221008,477.060944 422.975891,468.023315 
	C422.984070,377.918793 422.992859,287.814301 422.994110,197.709778 
	C422.994110,196.545868 422.898621,195.381943 422.974945,193.260773 
	C422.983307,172.273621 423.021637,151.286438 422.987885,130.299347 
	C422.970123,119.260422 416.593933,113.000778 405.535522,113.000160 
	C397.111237,112.999687 388.686920,113.000069 380.436737,113.000069 
	C380.195557,112.009064 380.053680,111.695915 380.052643,111.382294 
	C380.026093,103.387703 380.010956,95.393074 380.000793,87.398438 
	C379.986755,76.376671 373.614899,70.006790 362.582153,70.001007 
	C354.153748,69.996590 345.725342,70.000137 337.479156,70.000137 
	C337.218201,69.047005 337.060760,68.738106 337.059570,68.428596 
	C337.029663,60.767277 336.379028,53.040741 337.154022,45.460274 
	C338.232330,34.913113 330.108124,26.624128 318.664886,26.919405 
	C297.434814,27.467220 276.192200,27.529503 254.462204,27.116743 
	C228.140381,27.077547 201.818527,27.003231 175.496719,27.009968 
	C153.341797,27.015636 131.186905,27.115566 108.204895,27.020308 
	C97.670128,27.441645 90.412621,33.962410 91.020523,46.969410 
z"/>
<path fill="#EE4D4D" opacity="1.000000" stroke="none" 
	d="
M254.954788,27.793964 
	C276.192200,27.529503 297.434814,27.467220 318.664886,26.919405 
	C330.108124,26.624128 338.232330,34.913113 337.154022,45.460274 
	C336.379028,53.040741 337.029663,60.767277 337.059570,68.428596 
	C337.060760,68.738106 337.218201,69.047005 337.479156,70.000137 
	C345.725342,70.000137 354.153748,69.996590 362.582153,70.001007 
	C373.614899,70.006790 379.986755,76.376671 380.000793,87.398438 
	C380.010956,95.393074 380.026093,103.387703 380.052643,111.382294 
	C380.053680,111.695915 380.195557,112.009064 380.436737,113.000069 
	C388.686920,113.000069 397.111237,112.999687 405.535522,113.000160 
	C416.593933,113.000778 422.970123,119.260422 422.987885,130.299347 
	C423.021637,151.286438 422.983307,172.273621 422.674957,193.970154 
	C422.189270,195.776917 422.003571,196.874329 421.552002,198.176880 
	C418.643188,205.128036 413.257477,208.914673 406.169281,208.997711 
	C400.855469,209.059952 395.541504,209.110138 389.748718,209.099121 
	C345.448792,209.021515 301.627686,209.021729 257.806641,208.964798 
	C255.712112,208.962082 253.431046,208.896179 251.557526,208.102600 
	C244.678040,205.188583 240.954727,200.109924 240.961472,192.304886 
	C240.999664,148.152405 240.914856,103.999817 240.917572,59.390488 
	C240.975449,55.152966 241.245865,51.351810 240.948730,47.595547 
	C240.228912,38.496006 243.892776,32.058075 252.427734,28.071011 
	C253.511154,27.950584 254.232971,27.872274 254.954788,27.793964 
z"/>
<path fill="#4DC4FF" opacity="1.000000" stroke="none" 
	d="
M422.832214,468.942261 
	C423.221008,477.060944 418.509979,483.765259 409.996368,486.009644 
	C311.376312,486.008392 213.601395,485.998291 115.826492,486.033936 
	C113.553123,486.034760 111.279945,486.550812 109.006676,486.826538 
	C99.570618,488.041260 90.148842,479.188385 91.346268,468.157715 
	C91.809776,466.683746 91.946457,465.837036 92.352158,464.798462 
	C95.902237,457.698792 100.904778,454.141205 109.001366,454.862610 
	C113.771629,455.287628 118.663689,454.345581 123.997475,454.083862 
	C210.539703,454.167908 296.585449,454.184296 382.631165,454.216095 
	C385.122070,454.217010 387.612885,454.380737 390.466675,454.628174 
	C394.987091,454.858551 399.194855,455.372559 403.291840,454.908691 
	C412.096741,453.911804 418.075775,457.456238 421.892334,465.534027 
	C422.209076,466.893188 422.520630,467.917725 422.832214,468.942261 
z"/>
<path fill="#FFC44D" opacity="1.000000" stroke="none" 
	d="
M252.066132,28.113127 
	C243.892776,32.058075 240.228912,38.496006 240.948730,47.595547 
	C241.245865,51.351810 240.975449,55.152966 240.460175,59.373535 
	C226.628754,59.806820 213.300293,59.774925 199.971954,59.799171 
	C174.484756,59.845535 148.997635,59.923851 123.078995,59.995995 
	C119.184219,60.002243 115.701935,59.766796 112.261353,60.045780 
	C102.986061,60.797890 96.369469,56.995060 92.091049,48.541279 
	C91.777000,47.507038 91.471565,46.781445 91.166130,46.055855 
	C90.412621,33.962410 97.670128,27.441645 108.964378,27.317699 
	C111.874008,27.743593 114.024002,27.981667 116.174316,27.984459 
	C161.471573,28.043310 206.768860,28.075617 252.066132,28.113127 
z"/>
<path fill="#B2D78E" opacity="1.000000" stroke="none" 
	d="
M91.093323,46.512634 
	C91.471565,46.781445 91.777000,47.507038 92.065475,49.024536 
	C92.031952,127.755386 91.999855,205.694336 92.003830,283.633270 
	C92.006912,344.085602 92.055031,404.537964 92.083138,464.990295 
	C91.946457,465.837036 91.809776,466.683746 91.419174,467.731567 
	C91.110374,466.936554 91.007454,465.940430 91.007454,464.944305 
	C91.006927,325.619354 91.013893,186.294373 91.093323,46.512634 
z"/>
<path fill="#8DD3F8" opacity="1.000000" stroke="none" 
	d="
M109.470551,486.899780 
	C111.279945,486.550812 113.553123,486.034760 115.826492,486.033936 
	C213.601395,485.998291 311.376312,486.008392 409.624817,486.036621 
	C408.585144,486.366058 407.071930,486.938843 405.558472,486.939453 
	C307.017151,486.980194 208.475784,486.974518 109.470551,486.899780 
z"/>
<path fill="#BEA3F8" opacity="1.000000" stroke="none" 
	d="
M422.904053,468.482788 
	C422.520630,467.917725 422.209076,466.893188 421.922791,465.046936 
	C421.962891,376.470673 421.978363,288.716125 421.985413,200.961609 
	C421.985504,199.964981 421.876129,198.968353 421.817871,197.971725 
	C422.003571,196.874329 422.189270,195.776917 422.611328,194.448776 
	C422.898621,195.381943 422.994110,196.545868 422.994110,197.709778 
	C422.992859,287.814301 422.984070,377.918793 422.904053,468.482788 
z"/>
<path fill="#F8D48E" opacity="1.000000" stroke="none" 
	d="
M252.427734,28.071011 
	C206.768860,28.075617 161.471573,28.043310 116.174316,27.984459 
	C114.024002,27.981667 111.874008,27.743593 109.377930,27.394430 
	C131.186905,27.115566 153.341797,27.015636 175.496719,27.009968 
	C201.818527,27.003231 228.140381,27.077547 254.708496,27.455355 
	C254.232971,27.872274 253.511154,27.950584 252.427734,28.071011 
z"/>
<path fill="#ECEFF1" opacity="1.000000" stroke="none" 
	d="
M123.510490,59.988907 
	C148.997635,59.923851 174.484756,59.845535 199.971954,59.799171 
	C213.300293,59.774925 226.628754,59.806820 240.414551,59.830315 
	C240.914856,103.999817 240.999664,148.152405 240.961472,192.304886 
	C240.954727,200.109924 244.678040,205.188583 251.557526,208.102600 
	C253.431046,208.896179 255.712112,208.962082 257.806641,208.964798 
	C301.627686,209.021729 345.448792,209.021515 389.735840,209.556244 
	C390.196930,225.073212 390.193146,240.066467 390.186981,255.059738 
	C390.159607,321.529327 390.131561,387.998932 390.103760,454.468536 
	C387.612885,454.380737 385.122070,454.217010 382.631165,454.216095 
	C296.585449,454.184296 210.539703,454.167908 124.094879,453.622711 
	C123.721153,452.264191 123.768700,451.432251 123.768723,450.600342 
	C123.772659,321.888306 123.774063,193.176285 123.762917,64.464264 
	C123.762787,62.972473 123.598267,61.480694 123.510490,59.988907 
z"/>
<path fill="#A071FF" opacity="1.000000" stroke="none" 
	d="
M390.466675,454.628174 
	C390.131561,387.998932 390.159607,321.529327 390.186981,255.059738 
	C390.193146,240.066467 390.196930,225.073212 390.214722,209.622818 
	C395.541504,209.110138 400.855469,209.059952 406.169281,208.997711 
	C413.257477,208.914673 418.643188,205.128036 421.552002,198.176880 
	C421.876129,198.968353 421.985504,199.964981 421.985413,200.961609 
	C421.978363,288.716125 421.962891,376.470673 421.917603,464.712280 
	C418.075775,457.456238 412.096741,453.911804 403.291840,454.908691 
	C399.194855,455.372559 394.987091,454.858551 390.466675,454.628174 
z"/>
<path fill="#8BC94D" opacity="1.000000" stroke="none" 
	d="
M123.078995,59.995998 
	C123.598267,61.480694 123.762787,62.972473 123.762917,64.464264 
	C123.774063,193.176285 123.772659,321.888306 123.768723,450.600342 
	C123.768700,451.432251 123.721153,452.264191 123.598389,453.557251 
	C118.663689,454.345581 113.771629,455.287628 109.001366,454.862610 
	C100.904778,454.141205 95.902237,457.698792 92.352158,464.798462 
	C92.055031,404.537964 92.006912,344.085602 92.003830,283.633270 
	C91.999855,205.694336 92.031952,127.755386 92.074089,49.333191 
	C96.369469,56.995060 102.986061,60.797890 112.261353,60.045780 
	C115.701935,59.766796 119.184219,60.002243 123.078995,59.995998 
z"/>
</svg>