<svg version="1.1" id="Layer_1" xmlns="http://www.w3.org/2000/svg" xmlns:xlink="http://www.w3.org/1999/xlink"
	 width="100%" viewBox="0 0 512 512" xml:space="preserve">

<path fill="#24478F" opacity="1.000000" stroke="none" 
	d="
M95.067337,188.988251 
	C95.006714,211.354050 94.946083,233.719833 94.973923,256.547852 
	C95.002197,262.339783 95.022179,267.671967 94.860847,272.998627 
	C94.673515,279.183960 91.770332,282.384369 85.658859,282.468689 
	C74.163658,282.627380 62.645943,282.826477 51.170170,282.299347 
	C36.609291,281.630524 26.905844,271.211243 26.802267,256.571259 
	C26.653708,235.573151 27.333443,214.553040 26.589006,193.580322 
	C25.974051,176.255402 35.560249,164.299591 52.576530,163.014343 
	C64.370941,162.955139 75.290894,162.944382 86.560799,162.985199 
	C93.478683,165.501892 94.738289,167.350266 94.823349,174.512238 
	C94.880661,179.337860 94.984383,184.162933 95.067337,188.988251 
z"/>
<path fill="#24478F" opacity="1.000000" stroke="none" 
	d="
M418.937988,257.011017 
	C418.995331,234.644852 419.052704,212.278702 419.084900,188.986603 
	C419.132233,183.593689 419.228027,179.126968 419.272217,174.659729 
	C419.349426,166.854523 420.453949,165.327927 428.328613,162.972260 
	C439.810974,163.000244 450.815674,163.008514 461.820404,163.016785 
	C474.101440,164.122162 482.795105,169.932892 486.316315,182.140518 
	C487.081696,184.794113 487.155487,187.711655 487.164215,190.508804 
	C487.230438,211.792816 486.667389,233.095062 487.381439,254.355316 
	C487.894897,269.642273 476.781219,283.507904 459.131683,282.490570 
	C457.323456,282.386322 455.493744,282.654205 452.877319,282.766968 
	C446.735291,282.821808 441.389954,282.859161 435.612122,282.759613 
	C433.688568,282.610321 432.197479,282.584259 430.706451,282.587769 
	C421.848328,282.608612 419.199921,279.896149 419.182861,270.932709 
	C419.174011,266.291992 419.024139,261.651581 418.937988,257.011017 
z"/>
<path fill="#13245A" opacity="1.000000" stroke="none" 
	d="
M461.752533,162.585907 
	C450.815674,163.008514 439.810974,163.000244 428.351807,162.529755 
	C427.454498,146.816788 424.867615,131.940262 418.218079,118.159637 
	C394.374542,68.745850 353.800385,45.598747 299.989746,43.159401 
	C299.987762,31.767305 299.968628,20.818632 299.949463,9.869960 
	C339.103333,9.746326 374.142303,21.804895 404.615845,46.279671 
	C434.531403,70.306274 453.122223,101.390167 459.717682,139.310776 
	C461.022461,146.812622 461.061768,154.534592 461.752533,162.585907 
z"/>
<path fill="#13245A" opacity="1.000000" stroke="none" 
	d="
M86.210838,162.933624 
	C75.290894,162.944382 64.370941,162.955139 52.942822,162.938583 
	C52.236427,96.397469 97.618111,38.863480 161.703461,17.992189 
	C178.406113,12.552474 195.527039,9.734536 213.572220,10.323042 
	C214.036621,21.785835 214.034729,32.707996 213.563766,43.622505 
	C197.137787,43.743294 181.662704,46.538326 166.723999,52.149815 
	C118.216652,70.370857 86.576439,113.932396 86.210838,162.933624 
z"/>
<path fill="#B3C1C9" opacity="1.000000" stroke="none" 
	d="
M159.965591,392.654907 
	C158.658997,394.876404 157.295868,396.938721 155.647247,398.739655 
	C144.564926,410.846100 138.176483,424.885925 137.967926,441.460632 
	C137.856842,450.289734 137.913635,459.120972 137.457886,468.452087 
	C123.303284,471.537842 110.167465,470.423096 98.458572,462.121613 
	C94.169876,459.080963 90.408524,455.296478 86.406609,451.851318 
	C83.889297,445.046112 80.545967,438.422089 79.006187,431.402466 
	C73.948021,408.342987 89.176514,383.524750 113.554230,378.109192 
	C131.496399,374.123291 147.140625,378.641266 159.965591,392.654907 
z"/>
<path fill="#B3C1C9" opacity="1.000000" stroke="none" 
	d="
M376.158386,468.871094 
	C376.122192,459.906860 376.115326,450.942413 376.043549,441.978485 
	C375.908386,425.094238 369.512421,410.784729 358.123260,398.528442 
	C356.672546,396.967285 355.372711,395.265930 353.926666,393.282898 
	C371.984314,372.391937 403.426453,371.184967 422.654083,390.295013 
	C436.224304,403.782257 439.918823,426.079559 431.442627,443.313904 
	C429.977783,446.292236 428.527710,449.277771 426.672272,452.656311 
	C421.654907,456.790283 417.381775,461.098389 412.346863,464.149506 
	C401.108643,470.959930 388.739319,471.230194 376.158386,468.871094 
z"/>
<path fill="#CED7DD" opacity="1.000000" stroke="none" 
	d="
M299.924347,375.475159 
	C271.609741,375.952850 243.304672,375.968231 214.540436,375.961731 
	C214.076935,362.273621 214.072617,348.607391 214.084412,334.473267 
	C242.398788,334.005981 270.697021,334.006561 299.454376,334.005554 
	C299.920288,347.673584 299.927094,361.343201 299.924347,375.475159 
z"/>
<path fill="#23468E" opacity="1.000000" stroke="none" 
	d="
M214.032822,43.630154 
	C214.034729,32.707996 214.036621,21.785835 214.038589,10.389242 
	C236.738190,9.844573 259.437714,9.775468 282.137268,9.703311 
	C287.773254,9.685394 293.409210,9.657597 299.497314,9.752151 
	C299.968628,20.818632 299.987762,31.767305 299.858337,43.514431 
	C297.600952,50.637291 295.630432,52.078789 288.801849,52.084148 
	C267.862579,52.100578 246.923309,52.091030 225.984039,52.081928 
	C218.216080,52.078548 216.534439,50.876762 214.032822,43.630154 
z"/>
<path fill="#CED7DD" opacity="1.000000" stroke="none" 
	d="
M86.283531,452.321289 
	C90.408524,455.296478 94.169876,459.080963 98.458572,462.121613 
	C110.167465,470.423096 123.303284,471.537842 137.431488,468.911682 
	C137.890244,474.319366 138.328156,479.799255 137.898438,485.210236 
	C137.201233,493.989166 141.210129,499.650208 148.817230,503.765686 
	C133.699997,504.043243 118.393425,504.070007 103.087059,504.024506 
	C93.791901,503.996887 87.184372,497.465088 86.951767,488.124786 
	C86.658470,476.347687 86.421646,464.569183 86.283531,452.321289 
z"/>
<path fill="#CED7DD" opacity="1.000000" stroke="none" 
	d="
M376.106812,469.350525 
	C388.739319,471.230194 401.108643,470.959930 412.346863,464.149506 
	C417.381775,461.098389 421.654907,456.790283 426.613342,453.012878 
	C426.975494,465.378479 427.201752,477.788116 426.943146,490.187622 
	C426.791473,497.458954 419.425751,503.967133 411.843109,504.008514 
	C396.540131,504.092072 381.236389,504.039307 365.463562,504.043671 
	C367.195038,502.334167 370.018768,501.026733 371.448273,498.817230 
	C373.501740,495.643524 375.384735,491.912811 375.819885,488.239746 
	C376.537933,482.178925 376.040436,475.974091 376.106812,469.350525 
z"/>
<path fill="#15265B" opacity="1.000000" stroke="none" 
	d="
M342.201538,332.367493 
	C345.972778,320.007385 350.405579,316.815460 363.172394,316.813293 
	C368.818665,316.812317 374.464905,316.825989 380.991486,316.817474 
	C389.862976,317.076019 391.471405,318.200165 393.696289,325.574554 
	C393.720551,331.344360 393.821136,336.659119 393.921722,341.973877 
	C391.490997,349.485199 389.824860,350.728424 381.807770,350.797455 
	C375.512878,350.851685 369.217285,350.841217 362.922028,350.831177 
	C349.431000,350.809662 344.126770,346.142853 342.201538,332.367493 
z"/>
<path fill="#CFD8DD" opacity="1.000000" stroke="none" 
	d="
M394.395294,341.996460 
	C393.821136,336.659119 393.720551,331.344360 394.150696,325.555542 
	C405.255829,325.072327 415.830475,325.098969 426.404663,325.041199 
	C433.305145,325.003540 435.996155,322.272736 436.023132,315.322083 
	C436.065125,304.513702 436.040833,293.705017 436.044617,282.896484 
	C441.389954,282.859161 446.735291,282.821808 452.538879,282.886566 
	C453.003906,294.450104 453.081421,305.912048 452.999176,317.372864 
	C452.901031,331.056763 441.985260,341.916412 428.256683,342.010040 
	C417.127930,342.085907 405.998169,342.021332 394.395294,341.996460 
z"/>
<path fill="#13245A" opacity="1.000000" stroke="none" 
	d="
M296.011505,162.920700 
	C308.978363,163.261841 322.064270,162.609329 334.888031,164.145264 
	C364.072815,167.640778 385.744659,194.579514 384.973236,225.015701 
	C384.235962,254.103745 360.848236,279.401672 332.128021,282.101715 
	C328.322662,282.459473 324.487213,282.653320 320.665466,282.656647 
	C277.202484,282.694244 233.739380,282.736603 190.276505,282.658844 
	C163.402039,282.610748 141.321381,267.347382 132.523941,242.997650 
	C118.766800,204.920349 146.607529,164.106842 187.088074,163.137375 
	C197.074066,162.898239 207.069901,163.070007 217.987061,163.076767 
	C244.612457,163.040665 270.311981,162.980682 296.011505,162.920700 
M315.683624,236.964050 
	C322.311127,241.146286 328.973846,241.086823 335.309998,236.577332 
	C341.187134,232.394516 343.211273,226.314453 341.893311,219.392410 
	C340.637848,212.798615 336.426147,208.474091 329.992981,206.508804 
	C322.463196,204.208511 314.177307,207.683716 310.318237,214.625809 
	C306.206726,222.022018 307.926300,229.939606 315.683624,236.964050 
M197.053177,237.779327 
	C205.412781,231.914413 208.035080,223.429153 204.002182,215.293671 
	C200.305344,207.836121 191.679214,204.120483 183.766220,206.577179 
	C174.422424,209.478088 169.442963,219.323456 172.683823,228.489288 
	C176.120255,238.208221 185.891037,242.172394 197.053177,237.779327 
z"/>
<path fill="#FEFEFE" opacity="1.000000" stroke="none" 
	d="
M213.563766,43.622505 
	C216.534439,50.876762 218.216080,52.078548 225.984039,52.081928 
	C246.923309,52.091030 267.862579,52.100578 288.801849,52.084148 
	C295.630432,52.078789 297.600952,50.637291 299.841217,43.957855 
	C353.800385,45.598747 394.374542,68.745850 418.218079,118.159637 
	C424.867615,131.940262 427.454498,146.816788 427.874146,162.510040 
	C420.453949,165.327927 419.349426,166.854523 419.272217,174.659729 
	C419.228027,179.126968 419.132233,183.593689 418.995911,188.524445 
	C418.268494,187.859863 417.278137,186.808731 416.990234,185.591476 
	C412.844360,168.062866 404.797211,152.438293 392.075592,139.841858 
	C376.464294,124.384277 357.668732,114.686195 335.321167,112.953407 
	C332.194733,112.710983 329.081024,112.304466 325.495117,111.564102 
	C323.449432,100.479172 317.210907,95.006454 306.535278,95.002731 
	C273.417297,94.991180 240.299316,94.987907 207.181335,95.004677 
	C196.472153,95.010094 189.934158,101.108147 188.922424,111.936943 
	C165.466675,112.815834 144.489670,119.876419 126.625458,135.720703 
	C111.148438,149.447708 101.660217,166.414352 96.981499,186.338989 
	C96.775024,187.218323 96.204590,188.012192 95.435516,188.917068 
	C94.984383,184.162933 94.880661,179.337860 94.823349,174.512238 
	C94.738289,167.350266 93.478683,165.501892 86.560799,162.985199 
	C86.576439,113.932396 118.216652,70.370857 166.723999,52.149815 
	C181.662704,46.538326 197.137787,43.743294 213.563766,43.622505 
z"/>
<path fill="#CED7DD" opacity="1.000000" stroke="none" 
	d="
M188.948914,112.387703 
	C189.934158,101.108147 196.472153,95.010094 207.181335,95.004677 
	C240.299316,94.987907 273.417297,94.991180 306.535278,95.002731 
	C317.210907,95.006454 323.449432,100.479172 325.050842,111.547104 
	C323.876984,130.534760 316.172852,145.933228 302.198120,158.184296 
	C300.379456,159.778641 298.145935,160.899826 296.058044,162.580444 
	C270.311981,162.980682 244.612457,163.040665 218.450989,163.010864 
	C217.431549,162.179382 217.029556,161.183884 216.293823,160.733154 
	C198.396103,149.768036 191.267624,132.688126 188.948914,112.387703 
z"/>
<path fill="#FEFEFF" opacity="1.000000" stroke="none" 
	d="
M435.612122,282.759613 
	C436.040833,293.705017 436.065125,304.513702 436.023132,315.322083 
	C435.996155,322.272736 433.305145,325.003540 426.404663,325.041199 
	C415.830475,325.098969 405.255829,325.072327 394.226990,325.100494 
	C391.471405,318.200165 389.862976,317.076019 381.452759,316.720032 
	C381.626373,315.683990 382.011871,314.465759 382.842133,313.814636 
	C400.258087,300.156219 411.559906,282.630096 416.538422,261.033752 
	C416.850494,259.679993 417.641876,258.436768 418.574158,257.076599 
	C419.024139,261.651581 419.174011,266.291992 419.182861,270.932709 
	C419.199921,279.896149 421.848328,282.608612 430.706451,282.587769 
	C432.197479,282.584259 433.688568,282.610321 435.612122,282.759613 
z"/>
<path fill="#70FCE2" opacity="1.000000" stroke="none" 
	d="
M315.380798,236.752686 
	C307.926300,229.939606 306.206726,222.022018 310.318237,214.625809 
	C314.177307,207.683716 322.463196,204.208511 329.992981,206.508804 
	C336.426147,208.474091 340.637848,212.798615 341.893311,219.392410 
	C343.211273,226.314453 341.187134,232.394516 335.309998,236.577332 
	C328.973846,241.086823 322.311127,241.146286 315.380798,236.752686 
z"/>
<path fill="#70FCE2" opacity="1.000000" stroke="none" 
	d="
M196.704224,237.936264 
	C185.891037,242.172394 176.120255,238.208221 172.683823,228.489288 
	C169.442963,219.323456 174.422424,209.478088 183.766220,206.577179 
	C191.679214,204.120483 200.305344,207.836121 204.002182,215.293671 
	C208.035080,223.429153 205.412781,231.914413 196.704224,237.936264 
z"/>
</svg>