<svg version="1.1" id="Layer_1" xmlns="http://www.w3.org/2000/svg" xmlns:xlink="http://www.w3.org/1999/xlink" x="0px" y="0px"
	 width="100%" viewBox="0 0 512 512" enable-background="new 0 0 512 512" xml:space="preserve">
<path fill="#FFFFFF" opacity="1.000000" stroke="none" 
	d="
M345.000000,513.000000 
	C230.027939,513.000000 115.555870,513.000000 1.041900,513.000000 
	C1.041900,342.402924 1.041900,171.805817 1.041900,1.104355 
	C171.555405,1.104355 342.110901,1.104355 512.833191,1.104355 
	C512.833191,171.666534 512.833191,342.333252 512.833191,513.000000 
	C457.139069,513.000000 401.319550,513.000000 345.000000,513.000000 
M429.473846,337.059326 
	C429.473846,337.059326 429.871155,336.975128 430.575134,337.169556 
	C432.034637,337.317230 433.494171,337.464935 435.174347,338.339142 
	C446.931946,344.287292 459.128937,347.057495 472.498749,345.474426 
	C481.401917,344.420258 489.719849,335.416992 490.963776,325.886841 
	C492.958649,310.602966 493.048035,295.364838 487.827972,280.666534 
	C485.537933,274.218353 481.961029,268.227234 478.548492,261.419739 
	C477.367981,258.570343 476.187439,255.720947 475.019226,252.124283 
	C474.628601,248.748367 474.237976,245.372437 473.928467,241.221283 
	C473.905396,240.207474 473.882324,239.193649 474.389709,237.660156 
	C480.762299,234.851685 487.075195,231.896576 493.522675,229.272034 
	C501.510803,226.020355 505.231354,220.444275 504.012726,211.746933 
	C503.416962,207.494858 503.174255,203.188324 502.463654,198.958191 
	C499.090363,178.878174 489.093475,162.796692 472.967560,150.432632 
	C462.539154,142.436935 450.791870,137.613235 437.843903,135.689392 
	C434.925995,135.255859 431.944519,135.250000 428.059143,135.027603 
	C420.771606,135.604324 413.427490,135.801300 406.214264,136.876556 
	C400.324615,137.754532 394.591339,139.681473 387.927063,141.231216 
	C385.616760,141.012985 383.306427,140.794754 380.296844,140.141205 
	C370.507263,140.113037 360.717651,140.084885 350.372589,139.732620 
	C349.596222,138.722137 348.819824,137.711639 348.087067,135.937424 
	C345.610504,130.360397 343.487244,124.592903 340.599915,119.237335 
	C322.237305,85.177147 300.961639,53.281071 271.264496,27.814476 
	C262.065857,19.926212 252.779282,12.007153 241.235886,7.718810 
	C228.220474,2.883618 221.547546,6.543345 217.368164,19.519773 
	C217.167236,20.143610 217.124664,20.820179 217.025406,21.474777 
	C214.329483,39.254562 215.790436,56.999184 219.487457,74.329880 
	C223.650528,93.845314 229.555450,112.986557 234.529434,132.335114 
	C235.116104,134.617233 234.609131,137.180496 234.609131,139.613434 
	C232.705566,138.722107 231.642960,137.732773 231.392548,136.568695 
	C229.480591,127.681198 224.222534,121.243820 217.295517,115.645058 
	C210.112289,109.839203 202.588928,104.807732 193.611206,102.404854 
	C180.913513,99.006355 173.443619,102.773224 170.569321,114.194138 
	C169.529984,118.323853 168.795197,122.762131 169.130356,126.963150 
	C170.214050,140.546432 172.700653,153.867615 179.356247,166.767548 
	C180.187531,168.147995 181.018799,169.528442 181.114975,171.363770 
	C173.290421,181.245026 171.418106,193.079849 171.197250,205.025558 
	C171.037140,213.686554 172.081497,222.494873 173.685638,231.031387 
	C175.640121,241.432358 175.891220,253.238022 188.897324,257.611481 
	C189.612213,257.851868 189.579193,260.316406 189.390228,261.524170 
	C186.695847,259.898621 184.093918,258.089600 181.291779,256.677917 
	C165.544250,248.744568 149.748535,240.906937 133.332718,232.720657 
	C124.041443,229.154312 114.968071,224.779449 105.409889,222.203430 
	C89.452797,217.902832 73.289177,214.161484 57.015133,211.311844 
	C44.785065,209.170288 32.259686,208.661636 19.919767,211.813492 
	C6.643193,215.204590 2.670210,223.005630 7.898775,235.709671 
	C13.441336,249.176636 22.594704,260.209656 32.353344,270.633698 
	C52.624577,292.287201 75.080139,311.522369 98.997833,329.065979 
	C100.509262,330.174591 101.342339,332.208008 102.491005,333.811188 
	C101.955566,334.319397 101.420128,334.827606 100.884697,335.335815 
	C97.428169,332.913452 93.983780,330.473541 90.512520,328.072449 
	C83.909935,323.505371 78.712036,316.641968 70.002548,315.513031 
	C67.220757,315.152466 64.449440,314.685425 61.658596,314.425110 
	C51.317650,313.460480 41.067326,313.332001 31.337898,317.875214 
	C20.601240,322.888733 17.507353,329.701508 22.537962,340.369904 
	C25.397148,346.433350 29.480721,352.137909 33.938072,357.187469 
	C46.260975,371.147491 61.801983,380.805878 78.717735,388.167908 
	C93.350136,394.536224 108.428406,399.587799 124.485596,401.163513 
	C131.895355,401.890625 139.268799,403.014954 146.635803,404.112915 
	C147.488068,404.239960 148.193192,405.354248 148.966522,406.010834 
	C148.163086,406.644867 147.445145,407.516968 146.531815,407.844971 
	C145.645126,408.163422 144.540070,408.048737 143.561447,407.909515 
	C132.751694,406.372375 121.861519,405.223816 111.171898,403.079041 
	C103.645523,401.568970 97.213974,402.044922 91.202362,407.247894 
	C85.737289,411.977814 81.894623,417.705292 79.519531,424.368286 
	C76.922333,431.654419 76.856720,439.013519 82.635109,444.890839 
	C88.091484,450.440674 93.805405,455.878937 100.060143,460.476379 
	C121.177315,475.998291 144.828995,486.602234 169.767609,494.195404 
	C180.638824,497.505463 191.971939,499.298553 203.669128,502.146912 
	C204.422073,503.373352 205.175034,504.599792 205.934128,506.479309 
	C205.817139,507.893250 205.700150,509.307159 205.571960,510.856659 
	C228.060516,510.856659 250.131607,510.856659 272.955536,510.947998 
	C274.213409,510.911743 275.471313,510.875519 277.696564,510.929199 
	C354.356628,510.929199 431.016693,510.929199 507.622742,510.929199 
	C507.802185,509.506073 508.060486,508.937012 507.896576,508.544037 
	C501.970490,494.336517 496.005035,480.145447 489.948303,465.246155 
	C487.946198,461.630127 485.976105,457.995941 483.936371,454.401245 
	C475.808563,440.077148 465.963959,426.936096 454.458527,415.262543 
	C447.713257,408.418762 439.462006,403.059296 431.339050,396.695251 
	C429.866028,395.188568 428.392975,393.681885 426.890228,391.448822 
	C425.600006,386.918304 424.221100,382.410675 423.045441,377.850616 
	C421.946533,373.588318 421.063293,369.270447 420.043518,364.095001 
	C418.971130,357.692902 417.898773,351.290771 417.084229,344.288513 
	C417.732208,343.178040 418.380219,342.067566 419.736389,340.869537 
	C422.103790,339.630951 424.471222,338.392334 427.192932,337.588104 
	C427.785126,337.413696 428.377289,337.239288 429.041199,337.070465 
	C429.041199,337.070465 429.071625,337.005310 429.473846,337.059326 
z"/>
<path fill="#BAEDFE" opacity="1.000000" stroke="none" 
	d="
M133.969254,233.036621 
	C149.748535,240.906937 165.544250,248.744568 181.291779,256.677917 
	C184.093918,258.089600 186.695847,259.898621 189.884125,261.945587 
	C191.909378,262.579956 193.440765,262.792908 195.028320,263.348663 
	C197.748215,265.901855 200.411911,268.112244 203.298859,270.619415 
	C205.589676,272.283447 207.635422,273.685059 209.728027,275.012817 
	C250.730927,301.029266 288.464996,331.314758 324.848694,363.344696 
	C325.984039,364.344147 326.737457,366.854248 326.354767,368.316101 
	C324.633270,374.892670 322.300171,381.306641 320.467926,387.857666 
	C319.513855,391.268677 317.419342,392.832275 314.244141,394.143555 
	C278.719666,408.813995 246.632507,428.387329 222.092484,459.170258 
	C206.498474,457.362396 191.275955,456.276428 176.322998,453.653687 
	C166.130539,451.865906 156.197815,448.260956 146.387527,444.793579 
	C142.377808,443.376373 136.916321,440.952545 137.503311,436.060760 
	C137.850037,433.171356 142.627762,430.737122 145.560120,428.273499 
	C146.675888,427.335999 148.203781,426.889008 149.543823,426.218414 
	C158.159653,421.906708 166.907974,417.832520 175.313553,413.143921 
	C177.964508,411.665253 179.697540,408.541016 181.850677,406.169922 
	C179.182098,404.439026 176.515091,402.705658 173.839935,400.984955 
	C173.713455,400.903656 173.513977,400.939514 173.349869,400.912445 
	C161.455765,398.951294 149.600861,396.699188 137.659256,395.090820 
	C116.053383,392.180786 96.060890,385.085602 78.277306,372.455750 
	C70.004677,366.580597 62.287418,359.763306 58.228867,350.088013 
	C54.643673,341.541168 58.647507,336.355927 67.939911,335.924316 
	C81.892632,335.276245 95.252129,338.426666 108.702103,341.332123 
	C116.932793,343.110107 125.240601,344.555023 133.553757,345.902924 
	C134.877579,346.117584 136.412338,345.031189 137.849579,344.546295 
	C137.161423,343.126129 136.733795,341.478027 135.731674,340.332520 
	C133.543228,337.830933 131.198914,335.426575 128.679916,333.259552 
	C109.672195,316.907684 90.341675,300.846283 74.250320,281.501770 
	C68.374847,274.438477 62.946259,266.592285 59.217247,258.252197 
	C53.807571,246.153244 58.134125,238.870453 71.111931,236.078888 
	C78.194969,234.555313 85.457695,233.490570 92.686127,233.112473 
	C102.239540,232.612808 111.838776,232.984161 121.418312,232.990784 
	C125.601967,232.993683 129.785614,233.020599 133.969254,233.036621 
z"/>
<path fill="#FEEAD3" opacity="1.000000" stroke="none" 
	d="
M426.838654,337.153748 
	C424.471222,338.392334 422.103790,339.630951 419.151367,340.545807 
	C410.724640,339.768616 402.886108,339.235901 395.038727,338.925354 
	C393.373688,338.859528 391.676575,339.604462 389.994232,339.975861 
	C391.328094,341.076111 392.661926,342.176361 394.157166,343.465515 
	C394.318542,343.654449 394.785339,343.825592 394.785339,343.825592 
	C394.785339,343.825592 395.267670,343.704834 395.279846,343.713226 
	C395.292023,343.721619 395.301056,343.689117 395.234009,344.053619 
	C400.581848,354.775330 409.435944,360.964050 420.085144,364.977020 
	C421.063293,369.270447 421.946533,373.588318 423.045441,377.850616 
	C424.221100,382.410675 425.600006,386.918304 426.589447,391.817505 
	C427.743591,397.367065 429.074982,402.588776 430.762146,407.692871 
	C431.082947,408.663452 432.811707,409.168610 433.890839,409.888519 
	C434.191437,408.584412 434.967163,407.172272 434.700012,405.997253 
	C434.007904,402.953156 432.856384,400.013489 431.888245,397.032166 
	C439.462006,403.059296 447.713257,408.418762 454.458527,415.262543 
	C465.963959,426.936096 475.808563,440.077148 483.936371,454.401245 
	C485.976105,457.995941 487.946198,461.630127 489.671448,465.476990 
	C483.667908,463.131104 477.941162,460.554382 472.163269,457.590271 
	C469.222565,456.132507 466.383514,454.309723 463.435516,454.112122 
	C441.778595,452.660248 424.653107,462.579803 409.202332,476.395233 
	C406.642365,478.684174 404.225525,481.133148 402.036987,483.226562 
	C395.565155,478.832825 389.702942,474.419159 383.440338,470.675201 
	C354.036041,453.096436 323.434387,455.866455 298.248657,478.303925 
	C296.855530,479.545074 296.284363,481.708954 295.166382,483.778870 
	C289.036072,491.403198 283.069946,498.691956 277.033142,505.562042 
	C277.906830,491.769257 282.186035,479.309387 287.303406,467.062622 
	C288.032349,465.318176 288.245544,463.358215 288.793396,461.126770 
	C289.060272,460.288361 289.120514,459.730469 289.418213,459.367065 
	C300.970917,445.261414 314.211609,433.034088 329.891449,423.630859 
	C333.050781,421.736206 335.153503,419.602997 336.228729,415.929779 
	C340.143066,402.557800 344.431305,389.295776 348.477570,375.961639 
	C350.109558,370.583527 351.480988,365.126312 353.314758,359.523224 
	C370.053284,357.415161 380.436798,347.824554 386.754364,333.195007 
	C389.454865,326.941528 388.759308,326.040833 382.032410,326.124207 
	C361.124146,326.383301 348.833466,317.240265 343.932037,296.832977 
	C338.008057,272.168243 342.969604,248.059143 348.236725,223.588364 
	C350.559082,224.684875 352.350250,225.507858 354.122101,226.370605 
	C382.829865,240.349075 412.827148,248.962036 445.065552,246.814865 
	C454.723602,246.171616 464.256897,243.654907 473.847351,241.996506 
	C474.237976,245.372437 474.628601,248.748367 474.645386,252.740265 
	C474.173645,255.512848 473.922394,257.675140 474.002533,259.825134 
	C474.558990,274.757996 470.023621,288.334015 463.021362,301.242859 
	C455.082794,315.877777 443.769836,327.310364 429.520569,336.182190 
	C429.184418,336.497864 429.088257,336.735474 429.071625,337.005310 
	C429.071625,337.005310 429.041199,337.070465 428.772156,336.960266 
	C427.948303,336.951324 427.393494,337.052521 426.838654,337.153748 
z"/>
<path fill="#FEC3DE" opacity="1.000000" stroke="none" 
	d="
M388.788727,141.143341 
	C394.591339,139.681473 400.324615,137.754532 406.214264,136.876556 
	C413.427490,135.801300 420.771606,135.604324 428.561737,135.376953 
	C431.480011,138.421265 434.112885,140.954010 436.270020,143.842117 
	C442.385590,152.030060 449.253387,159.845871 454.115814,168.742371 
	C465.822021,190.160477 470.460144,213.582626 470.671265,238.054779 
	C456.066284,242.221100 441.565887,243.453766 426.806580,242.440033 
	C400.823242,240.655396 376.706604,232.642151 353.516296,221.199066 
	C350.026367,219.476990 349.424255,217.878357 350.641632,214.351105 
	C353.295654,206.661255 355.578369,198.838272 357.794647,191.007935 
	C358.110748,189.891068 357.210846,188.430038 356.873718,187.128265 
	C355.822418,187.908829 354.572052,188.529831 353.780029,189.518158 
	C353.090576,190.378586 352.814423,191.627655 352.533569,192.749542 
	C348.057404,210.629883 342.844635,228.370438 339.373199,246.445053 
	C335.972137,264.153137 335.092773,282.215729 340.026703,299.968414 
	C344.315948,315.401611 353.482452,326.183533 369.756775,329.593506 
	C373.880554,330.457611 378.147003,330.640991 382.395477,331.142792 
	C378.146912,345.390045 365.240112,354.833954 350.039917,355.074677 
	C333.593353,355.335114 326.308380,350.008850 320.735077,333.625885 
	C320.146729,331.896362 319.486908,330.171234 319.115417,328.390808 
	C312.338104,295.910980 314.150604,263.514954 320.072418,231.152466 
	C320.306091,229.875519 319.902557,228.481964 319.795959,227.142761 
	C318.640808,227.477554 317.485657,227.812347 315.898499,228.101868 
	C312.550934,227.507126 309.651642,226.841858 306.716797,226.429459 
	C297.065552,225.073242 287.389099,223.548828 277.593323,227.803925 
	C264.877686,225.953995 260.089111,230.250992 263.108459,241.679962 
	C267.659882,258.908081 275.364105,274.854858 285.170441,289.738678 
	C285.857635,290.781708 287.534882,291.172485 289.070587,292.018646 
	C294.928009,297.033203 300.466614,301.895630 305.570648,306.839661 
	C281.168030,306.976044 265.588837,296.295898 260.206268,275.275116 
	C255.212585,255.773239 257.199829,236.305481 262.346252,216.853333 
	C267.260315,210.460266 271.375397,203.771667 276.589355,198.091812 
	C291.896881,181.416397 310.764130,173.717087 333.555481,177.535706 
	C335.297485,181.538361 335.733917,181.651535 338.655762,178.306763 
	C351.914276,163.129059 367.661316,151.331055 386.057861,143.070374 
	C387.055450,142.622437 387.882355,141.794434 388.788727,141.143341 
z"/>
<path fill="#9BE1FE" opacity="1.000000" stroke="none" 
	d="
M133.650986,232.878632 
	C129.785614,233.020599 125.601967,232.993683 121.418312,232.990784 
	C111.838776,232.984161 102.239540,232.612808 92.686127,233.112473 
	C85.457695,233.490570 78.194969,234.555313 71.111931,236.078888 
	C58.134125,238.870453 53.807571,246.153244 59.217247,258.252197 
	C62.946259,266.592285 68.374847,274.438477 74.250320,281.501770 
	C90.341675,300.846283 109.672195,316.907684 128.679916,333.259552 
	C131.198914,335.426575 133.543228,337.830933 135.731674,340.332520 
	C136.733795,341.478027 137.161423,343.126129 137.849579,344.546295 
	C136.412338,345.031189 134.877579,346.117584 133.553757,345.902924 
	C125.240601,344.555023 116.932793,343.110107 108.702103,341.332123 
	C95.252129,338.426666 81.892632,335.276245 67.939911,335.924316 
	C58.647507,336.355927 54.643673,341.541168 58.228867,350.088013 
	C62.287418,359.763306 70.004677,366.580597 78.277306,372.455750 
	C96.060890,385.085602 116.053383,392.180786 137.659256,395.090820 
	C149.600861,396.699188 161.455765,398.951294 173.349869,400.912445 
	C173.513977,400.939514 173.713455,400.903656 173.839935,400.984955 
	C176.515091,402.705658 179.182098,404.439026 181.850677,406.169922 
	C179.697540,408.541016 177.964508,411.665253 175.313553,413.143921 
	C166.907974,417.832520 158.159653,421.906708 149.543823,426.218414 
	C148.203781,426.889008 146.675888,427.335999 145.560120,428.273499 
	C142.627762,430.737122 137.850037,433.171356 137.503311,436.060760 
	C136.916321,440.952545 142.377808,443.376373 146.387527,444.793579 
	C156.197815,448.260956 166.130539,451.865906 176.322998,453.653687 
	C191.275955,456.276428 206.498474,457.362396 221.942825,459.492065 
	C213.291000,472.659912 205.941605,486.189331 203.095291,501.780548 
	C191.971939,499.298553 180.638824,497.505463 169.767609,494.195404 
	C144.828995,486.602234 121.177315,475.998291 100.060143,460.476379 
	C93.805405,455.878937 88.091484,450.440674 82.635109,444.890839 
	C76.856720,439.013519 76.922333,431.654419 79.519531,424.368286 
	C81.894623,417.705292 85.737289,411.977814 91.202362,407.247894 
	C97.213974,402.044922 103.645523,401.568970 111.171898,403.079041 
	C121.861519,405.223816 132.751694,406.372375 143.561447,407.909515 
	C144.540070,408.048737 145.645126,408.163422 146.531815,407.844971 
	C147.445145,407.516968 148.163086,406.644867 148.966522,406.010834 
	C148.193192,405.354248 147.488068,404.239960 146.635803,404.112915 
	C139.268799,403.014954 131.895355,401.890625 124.485596,401.163513 
	C108.428406,399.587799 93.350136,394.536224 78.717735,388.167908 
	C61.801983,380.805878 46.260975,371.147491 33.938072,357.187469 
	C29.480721,352.137909 25.397148,346.433350 22.537962,340.369904 
	C17.507353,329.701508 20.601240,322.888733 31.337898,317.875214 
	C41.067326,313.332001 51.317650,313.460480 61.658596,314.425110 
	C64.449440,314.685425 67.220757,315.152466 70.002548,315.513031 
	C78.712036,316.641968 83.909935,323.505371 90.512520,328.072449 
	C93.983780,330.473541 97.428169,332.913452 100.884697,335.335815 
	C101.420128,334.827606 101.955566,334.319397 102.491005,333.811188 
	C101.342339,332.208008 100.509262,330.174591 98.997833,329.065979 
	C75.080139,311.522369 52.624577,292.287201 32.353344,270.633698 
	C22.594704,260.209656 13.441336,249.176636 7.898775,235.709671 
	C2.670210,223.005630 6.643193,215.204590 19.919767,211.813492 
	C32.259686,208.661636 44.785065,209.170288 57.015133,211.311844 
	C73.289177,214.161484 89.452797,217.902832 105.409889,222.203430 
	C114.968071,224.779449 124.041443,229.154312 133.650986,232.878632 
z"/>
<path fill="#BAEDFD" opacity="1.000000" stroke="none" 
	d="
M179.116928,166.135132 
	C172.700653,153.867615 170.214050,140.546432 169.130356,126.963150 
	C168.795197,122.762131 169.529984,118.323853 170.569321,114.194138 
	C173.443619,102.773224 180.913513,99.006355 193.611206,102.404854 
	C202.588928,104.807732 210.112289,109.839203 217.295517,115.645058 
	C224.222534,121.243820 229.480591,127.681198 231.392548,136.568695 
	C231.642960,137.732773 232.705566,138.722107 234.609131,139.613434 
	C234.609131,137.180496 235.116104,134.617233 234.529434,132.335114 
	C229.555450,112.986557 223.650528,93.845314 219.487457,74.329880 
	C215.790436,56.999184 214.329483,39.254562 217.025406,21.474777 
	C217.124664,20.820179 217.167236,20.143610 217.368164,19.519773 
	C221.547546,6.543345 228.220474,2.883618 241.235886,7.718810 
	C252.779282,12.007153 262.065857,19.926212 271.264496,27.814476 
	C300.961639,53.281071 322.237305,85.177147 340.599915,119.237335 
	C343.487244,124.592903 345.610504,130.360397 347.630127,136.387848 
	C324.913422,139.706757 304.795563,147.605698 287.544769,162.562454 
	C269.873352,148.522598 249.726608,143.282745 227.666168,145.033249 
	C215.225357,146.020432 203.044693,148.442657 192.406219,155.427017 
	C187.673141,158.534393 183.528595,162.538193 179.116928,166.135132 
z"/>
<path fill="#FEC4DE" opacity="1.000000" stroke="none" 
	d="
M277.103821,505.980713 
	C283.069946,498.691956 289.036072,491.403198 295.497437,483.954529 
	C297.815643,482.961884 299.928619,482.478485 301.417175,481.242859 
	C317.554108,467.847870 335.518585,460.797028 356.784424,464.903870 
	C372.768585,467.990723 386.105652,476.249481 398.248383,486.620728 
	C401.350586,489.270386 403.056244,489.036652 405.936981,486.138916 
	C411.193481,480.851471 416.746582,475.712280 422.810059,471.403564 
	C436.334137,461.793274 451.138885,456.109283 468.217926,459.022430 
	C469.454712,459.233429 470.877930,458.351471 472.214447,457.977661 
	C477.941162,460.554382 483.667908,463.131104 489.719849,465.829956 
	C496.005035,480.145447 501.970490,494.336517 507.896576,508.544037 
	C508.060486,508.937012 507.802185,509.506073 507.622742,510.929199 
	C431.016693,510.929199 354.356628,510.929199 277.222229,510.477478 
	C276.866516,508.677429 276.985138,507.329041 277.103821,505.980713 
z"/>
<path fill="#FEC3DE" opacity="1.000000" stroke="none" 
	d="
M194.972137,263.005829 
	C193.440765,262.792908 191.909378,262.579956 190.136139,262.056335 
	C189.579193,260.316406 189.612213,257.851868 188.897324,257.611481 
	C175.891220,253.238022 175.640121,241.432358 173.685638,231.031387 
	C172.081497,222.494873 171.037140,213.686554 171.197250,205.025558 
	C171.418106,193.079849 173.290421,181.245026 181.371338,170.908279 
	C187.115372,166.030289 192.015045,160.386398 198.198654,157.409607 
	C218.391693,147.688721 239.516296,146.342957 260.987000,153.618317 
	C258.052521,161.898422 255.011826,169.765137 252.234894,177.723892 
	C245.467529,197.119400 240.295746,216.987732 238.353561,237.415588 
	C237.295441,248.544830 238.244934,259.924500 238.995468,271.143951 
	C239.451218,277.957001 241.255020,284.679871 242.154205,291.298096 
	C229.571793,283.131927 217.288422,275.110870 204.669952,266.953827 
	C201.704865,264.341400 199.014771,262.012604 194.972137,263.005829 
z"/>
<path fill="#FED4B7" opacity="1.000000" stroke="none" 
	d="
M352.971008,359.705109 
	C351.480988,365.126312 350.109558,370.583527 348.477570,375.961639 
	C344.431305,389.295776 340.143066,402.557800 336.228729,415.929779 
	C335.153503,419.602997 333.050781,421.736206 329.891449,423.630859 
	C314.211609,433.034088 300.970917,445.261414 289.418213,459.367065 
	C289.120514,459.730469 289.060272,460.288361 288.450714,460.965271 
	C286.752045,461.840088 284.803040,462.191223 284.335297,463.217499 
	C277.436493,478.353577 272.316040,493.978333 272.202698,510.856659 
	C250.131607,510.856659 228.060516,510.856659 205.571960,510.856659 
	C205.700150,509.307159 205.817139,507.893250 206.036804,505.800110 
	C206.420853,504.541046 206.828522,503.989410 206.965240,503.377289 
	C210.846878,486.000732 218.861832,470.664642 230.169876,457.045319 
	C252.177689,430.539276 280.742065,413.339050 311.908783,399.900269 
	C312.885437,399.479156 313.952576,399.267914 315.565857,398.781433 
	C314.840149,400.455322 314.144257,401.451660 314.014465,402.516968 
	C313.859131,403.792084 314.187408,405.126099 314.306213,406.434601 
	C315.543610,405.727600 317.183502,405.305511 317.929840,404.250977 
	C319.252960,402.381378 320.254852,400.203857 321.004761,398.022369 
	C325.572937,384.733398 330.032196,371.407013 334.486694,358.214783 
	C340.168274,358.672882 346.569641,359.188995 352.971008,359.705109 
z"/>
<path fill="#0D0B0C" opacity="1.000000" stroke="none" 
	d="
M353.314758,359.523224 
	C346.569641,359.188995 340.168274,358.672882 334.486694,358.214783 
	C330.032196,371.407013 325.572937,384.733398 321.004761,398.022369 
	C320.254852,400.203857 319.252960,402.381378 317.929840,404.250977 
	C317.183502,405.305511 315.543610,405.727600 314.306213,406.434601 
	C314.187408,405.126099 313.859131,403.792084 314.014465,402.516968 
	C314.144257,401.451660 314.840149,400.455322 315.565857,398.781433 
	C313.952576,399.267914 312.885437,399.479156 311.908783,399.900269 
	C280.742065,413.339050 252.177689,430.539276 230.169876,457.045319 
	C218.861832,470.664642 210.846878,486.000732 206.965240,503.377289 
	C206.828522,503.989410 206.420853,504.541046 206.033722,505.473572 
	C205.175034,504.599792 204.422073,503.373352 203.382202,501.963745 
	C205.941605,486.189331 213.291000,472.659912 222.429169,459.559174 
	C246.632507,428.387329 278.719666,408.813995 314.244141,394.143555 
	C317.419342,392.832275 319.513855,391.268677 320.467926,387.857666 
	C322.300171,381.306641 324.633270,374.892670 326.354767,368.316101 
	C326.737457,366.854248 325.984039,364.344147 324.848694,363.344696 
	C288.464996,331.314758 250.730927,301.029266 209.728027,275.012817 
	C207.635422,273.685059 205.589676,272.283447 203.683685,270.467041 
	C204.231827,269.041870 204.618439,268.065857 205.005035,267.089844 
	C217.288422,275.110870 229.571793,283.131927 242.178589,291.278381 
	C242.502014,291.403778 242.547440,291.362488 242.697311,291.618256 
	C243.195419,292.054047 243.543671,292.234070 244.082687,292.675781 
	C264.139832,308.303406 284.006195,323.669312 304.027435,339.337830 
	C312.166443,346.411530 320.150635,353.182556 328.134796,359.953613 
	C328.539886,359.701050 328.944977,359.448486 329.350067,359.195953 
	C328.865875,357.295105 328.828888,355.102081 327.813629,353.548218 
	C324.773102,348.894562 321.350006,344.490845 318.047668,339.609924 
	C315.603363,329.980530 313.187653,320.730835 310.684296,311.145660 
	C307.394531,311.145660 303.585876,311.280090 299.789246,311.123566 
	C277.184113,310.191467 261.724060,297.780487 255.827667,276.005157 
	C252.151306,262.428436 252.470139,248.681885 254.100616,234.911270 
	C257.135345,209.280640 264.985199,185.672485 283.383484,166.602249 
	C283.662323,166.313217 283.688477,165.780396 284.234589,164.192200 
	C276.481506,160.539734 268.741119,156.893250 261.000732,153.246765 
	C239.516296,146.342957 218.391693,147.688721 198.198654,157.409607 
	C192.015045,160.386398 187.115372,166.030289 181.738892,170.680847 
	C181.018799,169.528442 180.187531,168.147995 179.236588,166.451340 
	C183.528595,162.538193 187.673141,158.534393 192.406219,155.427017 
	C203.044693,148.442657 215.225357,146.020432 227.666168,145.033249 
	C249.726608,143.282745 269.873352,148.522598 287.544769,162.562454 
	C304.795563,147.605698 324.913422,139.706757 347.608337,136.769699 
	C348.819824,137.711639 349.596222,138.722137 350.481323,140.242340 
	C339.668396,143.526398 328.294830,145.163223 317.910095,149.288971 
	C287.120819,161.521194 269.106354,184.901672 262.049347,217.018692 
	C257.199829,236.305481 255.212585,255.773239 260.206268,275.275116 
	C265.588837,296.295898 281.168030,306.976044 305.997253,306.905334 
	C308.132538,306.803833 309.406647,306.718231 310.835632,306.622253 
	C310.835632,293.836609 310.835632,281.434174 310.918152,268.595734 
	C311.076263,266.830841 311.121490,265.499390 311.232391,264.173462 
	C311.897797,256.218384 310.656738,254.564224 302.819214,253.008728 
	C296.943909,251.842636 294.555573,253.408707 295.521027,259.185608 
	C296.539764,265.281006 298.924713,271.148071 300.816742,277.516571 
	C300.654388,279.210999 300.388062,280.503693 300.121735,281.796417 
	C299.001862,281.061981 297.414154,280.587646 296.837738,279.551025 
	C292.989075,272.629395 290.717194,265.230194 291.010834,257.209015 
	C291.266296,250.230072 295.286285,246.983231 302.237000,248.403015 
	C305.538971,249.077499 308.723785,250.325531 311.959595,251.313080 
	C313.885681,244.045837 314.002838,243.270706 307.428497,241.134964 
	C296.586151,237.612671 285.569763,234.441635 274.419098,232.119614 
	C267.322845,230.641876 265.752808,233.023163 267.151367,240.169540 
	C267.278107,240.817108 267.527618,241.440704 267.721069,242.075134 
	C272.487091,257.706970 279.361603,272.359314 287.933197,286.264191 
	C288.842529,287.739319 288.508820,289.980652 288.751770,291.866547 
	C287.534882,291.172485 285.857635,290.781708 285.170441,289.738678 
	C275.364105,274.854858 267.659882,258.908081 263.108459,241.679962 
	C260.089111,230.250992 264.877686,225.953995 277.977814,227.919922 
	C290.466522,231.309723 302.171631,234.614441 313.877167,237.919281 
	C314.564453,235.181778 315.447479,231.664459 316.330505,228.147125 
	C317.485657,227.812347 318.640808,227.477554 319.795959,227.142761 
	C319.902557,228.481964 320.306091,229.875519 320.072418,231.152466 
	C314.150604,263.514954 312.338104,295.910980 319.115417,328.390808 
	C319.486908,330.171234 320.146729,331.896362 320.735077,333.625885 
	C326.308380,350.008850 333.593353,355.335114 350.039917,355.074677 
	C365.240112,354.833954 378.146912,345.390045 382.395477,331.142792 
	C378.147003,330.640991 373.880554,330.457611 369.756775,329.593506 
	C353.482452,326.183533 344.315948,315.401611 340.026703,299.968414 
	C335.092773,282.215729 335.972137,264.153137 339.373199,246.445053 
	C342.844635,228.370438 348.057404,210.629883 352.533569,192.749542 
	C352.814423,191.627655 353.090576,190.378586 353.780029,189.518158 
	C354.572052,188.529831 355.822418,187.908829 356.873718,187.128265 
	C357.210846,188.430038 358.110748,189.891068 357.794647,191.007935 
	C355.578369,198.838272 353.295654,206.661255 350.641632,214.351105 
	C349.424255,217.878357 350.026367,219.476990 353.516296,221.199066 
	C376.706604,232.642151 400.823242,240.655396 426.806580,242.440033 
	C441.565887,243.453766 456.066284,242.221100 471.032898,238.081909 
	C472.448547,238.009155 473.153900,238.094498 473.859253,238.179840 
	C473.882324,239.193649 473.905396,240.207474 473.887909,241.608887 
	C464.256897,243.654907 454.723602,246.171616 445.065552,246.814865 
	C412.827148,248.962036 382.829865,240.349075 354.122101,226.370605 
	C352.350250,225.507858 350.559082,224.684875 348.236725,223.588364 
	C342.969604,248.059143 338.008057,272.168243 343.932037,296.832977 
	C348.833466,317.240265 361.124146,326.383301 382.032410,326.124207 
	C388.759308,326.040833 389.454865,326.941528 386.754364,333.195007 
	C380.436798,347.824554 370.053284,357.415161 353.314758,359.523224 
z"/>
<path fill="#FEDCEE" opacity="1.000000" stroke="none" 
	d="
M474.124451,237.920013 
	C473.153900,238.094498 472.448547,238.009155 471.381561,237.896667 
	C470.460144,213.582626 465.822021,190.160477 454.115814,168.742371 
	C449.253387,159.845871 442.385590,152.030060 436.270020,143.842117 
	C434.112885,140.954010 431.480011,138.421265 429.028320,135.386780 
	C431.944519,135.250000 434.925995,135.255859 437.843903,135.689392 
	C450.791870,137.613235 462.539154,142.436935 472.967560,150.432632 
	C489.093475,162.796692 499.090363,178.878174 502.463654,198.958191 
	C503.174255,203.188324 503.416962,207.494858 504.012726,211.746933 
	C505.231354,220.444275 501.510803,226.020355 493.522675,229.272034 
	C487.075195,231.896576 480.762299,234.851685 474.124451,237.920013 
z"/>
<path fill="#FCA3D3" opacity="1.000000" stroke="none" 
	d="
M262.346252,216.853333 
	C269.106354,184.901672 287.120819,161.521194 317.910095,149.288971 
	C328.294830,145.163223 339.668396,143.526398 350.759064,140.404404 
	C360.717651,140.084885 370.507263,140.113037 380.319214,140.528229 
	C362.073273,149.554382 346.786774,162.034073 333.593658,177.210037 
	C310.764130,173.717087 291.896881,181.416397 276.589355,198.091812 
	C271.375397,203.771667 267.260315,210.460266 262.346252,216.853333 
z"/>
<path fill="#FCC3DD" opacity="1.000000" stroke="none" 
	d="
M478.968445,262.028564 
	C481.961029,268.227234 485.537933,274.218353 487.827972,280.666534 
	C493.048035,295.364838 492.958649,310.602966 490.963776,325.886841 
	C489.719849,335.416992 481.401917,344.420258 472.498749,345.474426 
	C459.128937,347.057495 446.931946,344.287292 435.312073,337.768982 
	C439.432037,334.237518 443.732452,331.618195 447.343201,328.257751 
	C466.562195,310.371307 476.702454,288.057281 478.968445,262.028564 
z"/>
<path fill="#0D0C0C" opacity="1.000000" stroke="none" 
	d="
M478.758484,261.724152 
	C476.702454,288.057281 466.562195,310.371307 447.343201,328.257751 
	C443.732452,331.618195 439.432037,334.237518 435.201752,337.405731 
	C433.494171,337.464935 432.034637,337.317230 430.234619,336.834503 
	C429.894073,336.499451 429.681000,336.071930 429.681000,336.071930 
	C443.769836,327.310364 455.082794,315.877777 463.021362,301.242859 
	C470.023621,288.334015 474.558990,274.757996 474.002533,259.825134 
	C473.922394,257.675140 474.173645,255.512848 474.639221,253.113892 
	C476.187439,255.720947 477.367981,258.570343 478.758484,261.724152 
z"/>
<path fill="#0F0B0D" opacity="1.000000" stroke="none" 
	d="
M333.555481,177.535706 
	C346.786774,162.034073 362.073273,149.554382 380.668823,140.745911 
	C383.306427,140.794754 385.616760,141.012985 388.357910,141.187286 
	C387.882355,141.794434 387.055450,142.622437 386.057861,143.070374 
	C367.661316,151.331055 351.914276,163.129059 338.655762,178.306763 
	C335.733917,181.651535 335.297485,181.538361 333.555481,177.535706 
z"/>
<path fill="#FDD4B8" opacity="1.000000" stroke="none" 
	d="
M420.064331,364.536011 
	C409.435944,360.964050 400.581848,354.775330 395.653381,344.039185 
	C403.035278,344.069702 409.930847,344.479187 416.826385,344.888672 
	C417.898773,351.290771 418.971130,357.692902 420.064331,364.536011 
z"/>
<path fill="#100E0D" opacity="1.000000" stroke="none" 
	d="
M272.579102,510.902344 
	C272.316040,493.978333 277.436493,478.353577 284.335297,463.217499 
	C284.803040,462.191223 286.752045,461.840088 288.354797,461.336487 
	C288.245544,463.358215 288.032349,465.318176 287.303406,467.062622 
	C282.186035,479.309387 277.906830,491.769257 277.033112,505.562012 
	C276.985138,507.329041 276.866516,508.677429 276.738525,510.432526 
	C275.471313,510.875519 274.213409,510.911743 272.579102,510.902344 
z"/>
<path fill="#161412" opacity="1.000000" stroke="none" 
	d="
M416.955322,344.588593 
	C409.930847,344.479187 403.035278,344.069702 395.720398,343.674683 
	C395.301056,343.689117 395.292023,343.721619 395.128815,343.517395 
	C394.647278,343.169891 394.324005,343.157684 393.995789,343.276611 
	C392.661926,342.176361 391.328094,341.076111 389.994232,339.975861 
	C391.676575,339.604462 393.373688,338.859528 395.038727,338.925354 
	C402.886108,339.235901 410.724640,339.768616 418.797272,340.589600 
	C418.380219,342.067566 417.732208,343.178040 416.955322,344.588593 
z"/>
<path fill="#161513" opacity="1.000000" stroke="none" 
	d="
M431.613647,396.863708 
	C432.856384,400.013489 434.007904,402.953156 434.700012,405.997253 
	C434.967163,407.172272 434.191437,408.584412 433.890839,409.888519 
	C432.811707,409.168610 431.082947,408.663452 430.762146,407.692871 
	C429.074982,402.588776 427.743591,397.367065 426.604309,392.180695 
	C428.392975,393.681885 429.866028,395.188568 431.613647,396.863708 
z"/>
<path fill="#FCC3DD" opacity="1.000000" stroke="none" 
	d="
M427.015808,337.370911 
	C427.393494,337.052521 427.948303,336.951324 428.736328,336.957489 
	C428.377289,337.239288 427.785126,337.413696 427.015808,337.370911 
z"/>
<path fill="#FCC3DD" opacity="1.000000" stroke="none" 
	d="
M429.520569,336.182190 
	C429.681000,336.071930 429.894073,336.499451 429.882629,336.737305 
	C429.871155,336.975128 429.473846,337.059326 429.272736,337.032318 
	C429.088257,336.735474 429.184418,336.497864 429.520569,336.182190 
z"/>
<path fill="#181818" opacity="1.000000" stroke="none" 
	d="
M204.669952,266.953827 
	C204.618439,268.065857 204.231827,269.041870 203.460419,270.170258 
	C200.411911,268.112244 197.748215,265.901855 195.028320,263.348663 
	C199.014771,262.012604 201.704865,264.341400 204.669952,266.953827 
z"/>
<path fill="#0E0C0C" opacity="1.000000" stroke="none" 
	d="
M472.163269,457.590271 
	C470.877930,458.351471 469.454712,459.233429 468.217926,459.022430 
	C451.138885,456.109283 436.334137,461.793274 422.810059,471.403564 
	C416.746582,475.712280 411.193481,480.851471 405.936981,486.138916 
	C403.056244,489.036652 401.350586,489.270386 398.248383,486.620728 
	C386.105652,476.249481 372.768585,467.990723 356.784424,464.903870 
	C335.518585,460.797028 317.554108,467.847870 301.417175,481.242859 
	C299.928619,482.478485 297.815643,482.961884 295.661621,483.618958 
	C296.284363,481.708954 296.855530,479.545074 298.248657,478.303925 
	C323.434387,455.866455 354.036041,453.096436 383.440338,470.675201 
	C389.702942,474.419159 395.565155,478.832825 402.036987,483.226562 
	C404.225525,481.133148 406.642365,478.684174 409.202332,476.395233 
	C424.653107,462.579803 441.778595,452.660248 463.435516,454.112122 
	C466.383514,454.309723 469.222565,456.132507 472.163269,457.590271 
z"/>
<path fill="#FDD4B8" opacity="1.000000" stroke="none" 
	d="
M394.157166,343.465515 
	C394.324005,343.157684 394.647278,343.169891 395.116638,343.509003 
	C395.267670,343.704834 394.785339,343.825592 394.785339,343.825592 
	C394.785339,343.825592 394.318542,343.654449 394.157166,343.465515 
z"/>
<path fill="#FBE7D0" opacity="1.000000" stroke="none" 
	d="
M289.070587,292.018646 
	C288.508820,289.980652 288.842529,287.739319 287.933197,286.264191 
	C279.361603,272.359314 272.487091,257.706970 267.721069,242.075134 
	C267.527618,241.440704 267.278107,240.817108 267.151367,240.169540 
	C265.752808,233.023163 267.322845,230.641876 274.419098,232.119614 
	C285.569763,234.441635 296.586151,237.612671 307.428497,241.134964 
	C314.002838,243.270706 313.885681,244.045837 311.959595,251.313080 
	C308.723785,250.325531 305.538971,249.077499 302.237000,248.403015 
	C295.286285,246.983231 291.266296,250.230072 291.010834,257.209015 
	C290.717194,265.230194 292.989075,272.629395 296.837738,279.551025 
	C297.414154,280.587646 299.001862,281.061981 300.121735,281.796417 
	C300.388062,280.503693 300.654388,279.210999 301.121399,277.341736 
	C304.493286,274.187347 307.664459,271.609528 310.835632,269.031738 
	C310.835632,281.434174 310.835632,293.836609 310.835632,306.622253 
	C309.406647,306.718231 308.132538,306.803833 306.431824,306.823761 
	C300.466614,301.895630 294.928009,297.033203 289.070587,292.018646 
z"/>
<path fill="#F8A1D0" opacity="1.000000" stroke="none" 
	d="
M315.898499,228.101852 
	C315.447479,231.664459 314.564453,235.181778 313.877167,237.919281 
	C302.171631,234.614441 290.466522,231.309723 278.376892,227.889008 
	C287.389099,223.548828 297.065552,225.073242 306.716797,226.429459 
	C309.651642,226.841858 312.550934,227.507126 315.898499,228.101852 
z"/>
<path fill="#FCA2D3" opacity="1.000000" stroke="none" 
	d="
M303.872589,339.035187 
	C284.006195,323.669312 264.139832,308.303406 243.975494,292.373413 
	C243.300827,291.660400 242.924133,291.511444 242.547440,291.362488 
	C242.547440,291.362488 242.502014,291.403778 242.477631,291.423523 
	C241.255020,284.679871 239.451218,277.957001 238.995468,271.143951 
	C238.244934,259.924500 237.295441,248.544830 238.353561,237.415588 
	C240.295746,216.987732 245.467529,197.119400 252.234894,177.723892 
	C255.011826,169.765137 258.052521,161.898422 260.987000,153.618317 
	C268.741119,156.893250 276.481506,160.539734 284.234589,164.192200 
	C283.688477,165.780396 283.662323,166.313217 283.383484,166.602249 
	C264.985199,185.672485 257.135345,209.280640 254.100616,234.911270 
	C252.470139,248.681885 252.151306,262.428436 255.827667,276.005157 
	C261.724060,297.780487 277.184113,310.191467 299.789246,311.123566 
	C303.585876,311.280090 307.394531,311.145660 310.684296,311.145660 
	C313.187653,320.730835 315.603363,329.980530 317.594543,339.613220 
	C312.737488,339.675873 308.305054,339.355530 303.872589,339.035187 
z"/>
<path fill="#F9D0B4" opacity="1.000000" stroke="none" 
	d="
M310.918152,268.595734 
	C307.664459,271.609528 304.493286,274.187347 301.017456,276.940002 
	C298.924713,271.148071 296.539764,265.281006 295.521027,259.185608 
	C294.555573,253.408707 296.943909,251.842636 302.819214,253.008728 
	C310.656738,254.564224 311.897797,256.218384 311.232391,264.173462 
	C311.121490,265.499390 311.076263,266.830841 310.918152,268.595734 
z"/>
<path fill="#F4BBD5" opacity="1.000000" stroke="none" 
	d="
M304.027435,339.337830 
	C308.305054,339.355530 312.737488,339.675873 317.623108,339.992889 
	C321.350006,344.490845 324.773102,348.894562 327.813629,353.548218 
	C328.828888,355.102081 328.865875,357.295105 329.350067,359.195953 
	C328.944977,359.448486 328.539886,359.701050 328.134796,359.953613 
	C320.150635,353.182556 312.166443,346.411530 304.027435,339.337830 
z"/>
<path fill="#FEC3DE" opacity="1.000000" stroke="none" 
	d="
M242.697311,291.618256 
	C242.924133,291.511444 243.300827,291.660400 243.784729,292.111725 
	C243.543671,292.234070 243.195419,292.054047 242.697311,291.618256 
z"/>
</svg>