<svg version="1.1" id="Layer_1" xmlns="http://www.w3.org/2000/svg" xmlns:xlink="http://www.w3.org/1999/xlink"
	 width="100%" viewBox="0 0 512 512" xml:space="preserve">

<path fill="#5D6163" opacity="1.000000" stroke="none" 
	d="
M151.000000,414.000122 
	C143.502579,413.994965 136.502243,414.112091 129.508652,413.945801 
	C123.931076,413.813232 119.782356,410.468323 119.820450,405.195160 
	C119.955002,386.567474 118.736992,367.687103 121.339821,349.372650 
	C126.198807,315.183044 158.151169,288.526733 192.795227,288.196106 
	C235.609055,287.787506 278.434052,287.724182 321.246216,288.213013 
	C359.618256,288.651123 392.172272,320.398254 394.092438,358.796234 
	C394.832184,373.588989 394.441895,388.443909 394.364380,403.269409 
	C394.326447,410.526093 390.497162,413.981018 382.916595,413.986938 
	C346.096558,414.015564 309.276489,414.000031 272.456451,414.000092 
	C232.137634,414.000122 191.818817,414.000122 151.000000,414.000122 
z"/>
<path fill="#5D6163" opacity="1.000000" stroke="none" 
	d="
M318.562012,130.476532 
	C352.767639,177.774384 328.505341,241.544662 272.075684,253.530502 
	C227.589981,262.979401 183.127670,229.512634 179.857666,184.118011 
	C176.449097,136.799789 213.003754,98.400703 260.414093,100.148102 
	C284.196564,101.024666 303.495972,111.568275 318.562012,130.476532 
z"/>
</svg>