<svg version="1.1" id="Layer_1" xmlns="http://www.w3.org/2000/svg" xmlns:xlink="http://www.w3.org/1999/xlink"
	 width="100%" viewBox="0 0 512 512" xml:space="preserve">

<path fill="#FDBC55" opacity="1.000000" stroke="none" 
	d="
M1.000000,373.399994 
	C3.232925,372.583740 5.459321,371.848236 7.699820,371.802460 
	C23.594543,371.477417 39.492153,371.293640 56.298019,371.037598 
	C123.480225,371.032135 189.753250,371.054230 256.026276,371.069305 
	C256.354950,371.069397 256.683624,370.970459 257.377014,370.999146 
	C258.485413,371.135895 259.229156,371.191284 259.973907,371.699829 
	C259.993744,398.827881 260.012543,425.502747 259.635712,452.232239 
	C254.853958,451.737122 254.217010,448.558868 254.206726,445.012238 
	C254.179779,435.712616 254.267288,426.411804 254.132385,417.114044 
	C254.104736,415.209808 253.922546,412.499786 252.727356,411.597565 
	C250.585098,409.980499 247.530411,408.471375 245.018814,408.699341 
	C241.132401,409.052063 239.277573,412.433960 239.224792,416.290527 
	C239.108871,424.758331 239.177902,433.228760 239.178024,441.698120 
	C239.178253,458.442352 243.817596,464.324127 259.973602,468.535461 
	C259.928650,480.761353 259.881409,492.523041 259.379211,504.300598 
	C253.097763,504.296875 247.271225,504.260681 241.444702,504.260345 
	C163.700500,504.256073 85.956268,504.277100 8.212230,504.161621 
	C5.807087,504.158051 3.404028,502.752136 0.999999,502.000000 
	C1.000000,501.250000 1.000000,500.500000 1.267314,499.176910 
	C14.721026,479.797882 27.871515,460.966522 41.129807,442.211426 
	C43.294235,439.149658 43.177189,436.607422 41.014595,433.617889 
	C35.844059,426.470215 30.923120,419.142639 25.830429,411.937836 
	C17.583551,400.270752 9.279767,388.643860 1.000003,377.000000 
	C1.000000,375.933319 1.000000,374.866669 1.000000,373.399994 
M74.831139,425.638519 
	C75.919533,424.799957 76.966759,423.309631 78.103592,423.237793 
	C82.579315,422.955139 87.084305,423.180115 91.576355,423.100037 
	C96.706253,423.008575 99.900627,420.226532 100.012566,415.913971 
	C100.130760,411.360199 96.872406,408.222290 91.549881,408.140656 
	C83.729805,408.020721 75.904457,408.000488 68.085320,408.147888 
	C62.613850,408.251038 59.870571,411.085144 59.839050,416.599243 
	C59.758194,430.744812 59.759487,444.891388 59.833878,459.037018 
	C59.864429,464.846985 62.500748,467.553864 68.420334,467.686554 
	C76.071968,467.858063 83.732620,467.842560 91.385063,467.690186 
	C96.846542,467.581421 100.036552,464.577637 100.015251,460.042847 
	C99.993713,455.457520 96.893120,452.816681 91.234230,452.736938 
	C85.947639,452.662415 80.659180,452.721008 75.101440,452.721008 
	C75.101440,450.087280 75.101440,447.997467 75.101440,445.230194 
	C78.035301,445.230194 80.821930,445.333069 83.598083,445.206482 
	C87.959877,445.007599 90.435043,442.341888 90.720963,438.276306 
	C90.994644,434.384766 88.767662,431.575470 84.859535,430.696899 
	C82.785904,430.230743 80.558113,430.173737 78.425301,430.315094 
	C75.538147,430.506439 74.445992,429.339294 74.831139,425.638519 
M140.820724,443.696381 
	C139.567322,441.759155 138.313904,439.821930 137.056747,437.878906 
	C140.751556,432.204193 144.342789,426.803345 147.812561,421.325592 
	C150.968750,416.342865 150.471939,412.070831 146.597733,409.455078 
	C142.689987,406.816681 138.656281,408.064453 135.293167,412.986542 
	C132.903259,416.484314 130.548172,420.005859 127.873886,423.966522 
	C125.089867,419.803802 122.813309,416.338745 120.473946,412.916656 
	C117.153030,408.058685 113.071358,406.855194 109.116623,409.507233 
	C105.293648,412.070923 104.869705,416.423187 108.043388,421.380676 
	C110.914963,425.866272 114.110153,430.169617 116.634888,434.838715 
	C117.503334,436.444733 117.505135,439.300323 116.643639,440.911987 
	C114.220673,445.444885 111.126045,449.616913 108.327431,453.951324 
	C104.886429,459.280609 105.169228,463.602112 109.090225,466.237732 
	C113.236450,469.024811 117.305176,467.595062 121.037193,462.029846 
	C123.202515,458.800903 125.356758,455.564545 127.895256,451.763611 
	C130.948257,456.317322 133.351807,460.081879 135.939804,463.715027 
	C138.885574,467.850403 142.989136,468.718750 146.729599,466.195282 
	C150.228790,463.834564 151.028824,459.764465 148.532455,455.618500 
	C146.215591,451.770691 143.637833,448.080017 140.820724,443.696381 
M181.454361,442.787292 
	C179.897079,444.776855 178.384506,446.803711 176.766403,448.742523 
	C175.726089,449.989014 174.530563,451.105957 173.404602,452.280975 
	C172.569031,450.879242 171.067322,449.503387 171.011719,448.071350 
	C170.753403,441.418365 170.736649,434.743378 171.008530,428.091583 
	C171.074951,426.466583 172.557404,424.899475 173.388809,423.305756 
	C174.541275,424.676239 176.178268,425.870178 176.754120,427.450775 
	C178.395355,431.955536 181.684570,434.336578 185.706070,433.357056 
	C189.782867,432.364044 192.073624,428.728607 191.481277,424.191803 
	C190.240097,414.685730 182.143158,407.681488 172.929214,408.143463 
	C163.303696,408.626038 156.046082,416.249878 155.910446,426.214050 
	C155.803925,434.041534 155.797913,441.873016 155.915054,449.700226 
	C156.063660,459.628571 163.363831,467.201416 173.048218,467.680817 
	C182.008987,468.124420 189.994339,461.297852 191.419037,451.975800 
	C192.375549,445.717194 188.816269,442.074707 181.454361,442.787292 
M223.293549,452.922729 
	C219.841034,452.922729 216.388519,452.922729 212.283951,452.922729 
	C212.283951,450.612946 212.284088,448.833527 212.283920,447.054108 
	C212.282928,437.064880 212.323563,427.075409 212.265198,417.086517 
	C212.230133,411.087219 209.538498,407.906647 204.777679,407.984253 
	C200.261063,408.057861 197.344910,411.255615 197.302948,416.781036 
	C197.195496,430.931610 197.175583,445.084442 197.313156,459.234497 
	C197.370865,465.168610 200.400040,467.862549 206.484512,467.924103 
	C212.310974,467.983063 218.138748,467.972046 223.965469,467.928040 
	C229.878922,467.883392 233.167587,465.207367 233.226959,460.498413 
	C233.287430,455.700409 230.403748,453.278198 223.293549,452.922729 
z"/>
<path fill="#FE9522" opacity="1.000000" stroke="none" 
	d="
M259.834167,504.284760 
	C259.881409,492.523041 259.928650,480.761353 259.991943,468.409973 
	C260.007965,467.820343 259.970184,467.569489 260.346008,467.682922 
	C273.276703,465.710388 279.645050,459.436584 280.333527,447.146118 
	C280.901123,437.013824 280.668518,426.823273 280.451355,416.665802 
	C280.334839,411.216583 277.085815,408.001770 272.697876,408.051483 
	C268.097839,408.103607 265.106750,411.637543 265.072937,417.287842 
	C265.016113,426.786316 265.309509,436.297272 264.867371,445.775543 
	C264.761810,448.037811 262.335846,450.191864 260.732300,452.377472 
	C260.487457,452.359253 260.031342,452.177612 260.031342,452.177612 
	C260.012543,425.502747 259.993744,398.827881 260.436462,371.604492 
	C309.112457,371.042328 357.326965,371.039886 405.541473,371.009094 
	C422.996704,370.997955 440.451843,370.919037 457.907043,370.871033 
	C473.826965,371.018707 489.747742,371.113800 505.665802,371.374725 
	C507.876648,371.410950 510.074066,372.265076 512.638855,372.870300 
	C513.000000,374.066681 513.000000,375.133331 512.739441,376.809143 
	C499.542694,395.936371 486.699799,414.520905 473.593109,432.917511 
	C470.910187,436.683289 471.089081,439.398499 473.714996,443.067841 
	C483.767548,457.114807 493.472961,471.409637 503.416626,485.535431 
	C506.430756,489.817230 509.795715,493.852051 513.000000,498.000000 
	C513.000000,499.388885 513.000000,500.777802 512.619324,502.653320 
	C510.046936,503.688599 507.855682,504.714874 505.663483,504.716858 
	C431.034607,504.784149 356.405640,504.766693 281.776703,504.718781 
	C274.462433,504.714081 267.148346,504.435944 259.834167,504.284760 
M330.988220,456.082825 
	C335.118561,443.462036 328.230408,431.915375 315.429993,430.252533 
	C312.476868,429.868896 309.362915,430.521301 306.469543,429.951965 
	C304.596954,429.583496 302.990723,427.861359 301.265137,426.745789 
	C303.006653,425.582184 304.646759,423.661530 306.510742,423.411865 
	C310.440826,422.885376 314.490631,423.319763 318.486664,423.201660 
	C323.488800,423.053833 326.796631,420.117615 326.935638,415.903809 
	C327.082062,411.462891 323.612152,408.156128 318.474701,408.044647 
	C313.811066,407.943451 309.142029,407.949860 304.477966,408.041718 
	C294.949707,408.229309 286.913086,415.415649 286.037445,424.429352 
	C285.037628,434.721954 291.244415,443.294281 301.322113,445.069366 
	C304.893677,445.698486 308.655823,445.247345 312.226166,445.880463 
	C313.930939,446.182770 315.390778,447.866302 316.961578,448.924225 
	C315.438934,450.031708 313.983124,451.964600 312.381317,452.094330 
	C307.248779,452.510010 302.058197,452.133667 296.897522,452.298676 
	C291.671844,452.465790 288.145691,455.666748 288.064575,459.964661 
	C287.977631,464.574219 291.516205,467.757538 297.095520,467.879761 
	C301.925690,467.985565 306.760254,467.872284 311.592438,467.911652 
	C320.159363,467.981384 326.738708,464.665558 330.988220,456.082825 
M443.336273,423.236542 
	C444.002472,423.235596 444.669556,423.257019 445.334686,423.230255 
	C451.294434,422.990387 454.368530,420.347931 454.294983,415.539398 
	C454.223511,410.870880 450.819702,408.060211 445.065979,408.032196 
	C437.404968,407.994934 429.742279,407.936859 422.082947,408.055939 
	C416.886810,408.136749 413.976044,410.952148 413.941406,416.065430 
	C413.843323,430.554291 413.847931,445.044647 413.937805,459.533630 
	C413.969788,464.691437 416.790253,467.714264 421.874420,467.836914 
	C430.030365,468.033630 438.199280,468.055481 446.353668,467.827209 
	C451.829773,467.673920 455.084442,463.528625 454.093048,458.500244 
	C453.127167,453.601318 449.422821,452.381470 445.142242,452.289764 
	C439.882324,452.177063 434.618195,452.262909 429.408722,452.262909 
	C429.408722,449.705383 429.408722,447.831543 429.408722,445.979553 
	C435.656738,445.118927 444.227570,447.811005 444.724915,438.562286 
	C445.316772,427.556824 435.470947,430.975861 429.261658,429.793823 
	C429.261658,427.575928 429.261658,425.658478 429.261658,423.236786 
	C433.797089,423.236786 438.090179,423.236786 443.336273,423.236542 
M407.989319,417.221649 
	C408.615387,412.508667 406.581177,409.231354 402.063293,408.243652 
	C397.416534,407.227814 394.544586,409.901825 392.993103,414.156372 
	C392.481598,415.559174 391.893005,416.933624 391.353851,418.326538 
	C388.843201,424.812805 386.337524,431.300995 383.473541,438.710968 
	C379.967773,429.588867 376.990387,421.492615 373.739868,413.507538 
	C371.607849,408.270142 366.645721,406.488770 362.448425,409.237000 
	C358.395752,411.890503 358.201660,415.608307 359.802246,419.776794 
	C364.977539,433.255127 370.143005,446.737396 375.252350,460.240845 
	C376.742004,464.177826 378.685394,467.763062 383.433289,467.793335 
	C388.172943,467.823547 390.188019,464.322357 391.690765,460.356964 
	C397.043915,446.231567 402.482147,432.138397 407.989319,417.221649 
M343.333527,467.300934 
	C349.499725,468.247406 352.985107,465.513794 353.021027,459.377167 
	C353.104828,445.056580 353.084503,430.735016 353.027924,416.414185 
	C353.008331,411.448486 350.026703,408.159882 345.736481,408.052399 
	C341.262878,407.940338 338.041016,411.367096 338.020569,416.543182 
	C337.964752,430.697540 338.041656,444.852448 337.972992,459.006714 
	C337.955200,462.681427 339.077515,465.503571 343.333527,467.300934 
z"/>
<path fill="#FFFDFA" opacity="1.000000" stroke="none" 
	d="
M259.379211,504.300598 
	C267.148346,504.435944 274.462433,504.714081 281.776703,504.718781 
	C356.405640,504.766693 431.034607,504.784149 505.663483,504.716858 
	C507.855682,504.714874 510.046936,503.688599 512.619324,503.069946 
	C513.000000,506.330414 513.000000,509.660858 513.000000,512.984985 
	C342.333344,512.978638 171.666672,512.978638 1.000000,512.978638 
	C1.000000,509.626770 1.000000,506.296356 0.999999,502.482971 
	C3.404028,502.752136 5.807087,504.158051 8.212230,504.161621 
	C85.956268,504.277100 163.700500,504.256073 241.444702,504.260345 
	C247.271225,504.260681 253.097763,504.296875 259.379211,504.300598 
z"/>
<path fill="#FFFFFE" opacity="1.000000" stroke="none" 
	d="
M1.000003,377.468658 
	C9.279767,388.643860 17.583551,400.270752 25.830429,411.937836 
	C30.923120,419.142639 35.844059,426.470215 41.014595,433.617889 
	C43.177189,436.607422 43.294235,439.149658 41.129807,442.211426 
	C27.871515,460.966522 14.721026,479.797882 1.267314,498.801910 
	C1.000000,458.645782 1.000000,418.291534 1.000003,377.468658 
z"/>
<path fill="#FFFEFE" opacity="1.000000" stroke="none" 
	d="
M513.000000,497.531342 
	C509.795715,493.852051 506.430756,489.817230 503.416626,485.535431 
	C493.472961,471.409637 483.767548,457.114807 473.714996,443.067841 
	C471.089081,439.398499 470.910187,436.683289 473.593109,432.917511 
	C486.699799,414.520905 499.542694,395.936371 512.739441,377.209137 
	C513.000000,417.020905 513.000000,457.041779 513.000000,497.531342 
z"/>
<path fill="#23293F" opacity="1.000000" stroke="none" 
	d="
M457.974121,370.531006 
	C440.451843,370.919037 422.996704,370.997955 405.541473,371.009094 
	C357.326965,371.039886 309.112457,371.042328 260.435425,371.151306 
	C259.229156,371.191284 258.485413,371.135895 257.372681,370.536255 
	C256.999634,354.050842 256.995605,338.109650 257.455566,322.101898 
	C294.846558,322.023102 331.773590,322.018494 368.700592,321.992676 
	C376.811127,321.987000 380.947174,317.855957 380.992310,309.737671 
	C381.031189,302.751678 381.029297,295.765106 380.992188,288.779083 
	C380.952576,281.321411 377.225983,277.413788 369.929169,276.801788 
	C368.461151,276.678589 367.054260,275.826630 365.728149,274.867920 
	C368.613831,254.552933 371.328461,234.671768 374.181976,214.810562 
	C378.426849,185.265793 382.769897,155.735107 387.461609,126.153763 
	C393.484772,125.010658 396.103088,121.658195 395.004028,116.951874 
	C394.068756,112.946838 389.698364,110.533173 385.711212,111.819595 
	C381.087524,113.311401 379.644440,117.209656 381.644196,122.721809 
	C381.864166,123.328102 381.916779,123.995094 381.733215,124.794647 
	C360.158966,145.133743 338.898468,165.312134 317.454987,185.664185 
	C316.545319,184.275299 315.702850,183.067734 314.939758,181.811905 
	C306.562897,168.025787 298.235992,154.209152 289.820526,140.446655 
	C280.286469,124.854797 270.675995,109.309654 261.260071,93.383667 
	C266.419952,86.209480 264.994415,81.691315 256.998810,78.537048 
	C256.969574,55.269573 256.940369,32.471142 256.911163,9.672706 
	C269.469971,10.561259 282.182098,10.501433 294.560944,12.502897 
	C347.535767,21.068068 392.656250,45.092564 429.388062,84.133606 
	C461.993713,118.789124 482.458099,159.827652 489.994080,206.928268 
	C499.315063,265.185608 488.641785,319.674469 457.974121,370.531006 
z"/>
<path fill="#393F59" opacity="1.000000" stroke="none" 
	d="
M256.991577,322.168457 
	C256.995605,338.109650 256.999634,354.050842 257.007996,370.454895 
	C256.683624,370.970459 256.354950,371.069397 256.026276,371.069305 
	C189.753250,371.054230 123.480225,371.032135 56.761192,370.967377 
	C46.804264,354.719238 38.213268,338.068634 32.726200,320.018860 
	C7.847235,238.179108 21.126249,163.143143 74.526497,96.199852 
	C110.673668,50.885262 158.534195,24.008503 215.296280,13.307920 
	C228.625275,10.795184 242.415482,10.729098 256.452332,9.605061 
	C256.940369,32.471142 256.969574,55.269573 256.655579,78.647812 
	C248.726425,82.076859 247.508835,87.114372 252.876434,93.340073 
	C234.133530,124.384216 215.494446,155.101852 196.724258,186.035553 
	C190.629181,180.272781 185.076645,175.022064 179.523132,169.772385 
	C163.704926,154.819626 147.886322,139.867294 132.051270,124.551529 
	C132.248276,123.575989 132.468002,122.965775 132.674500,122.351135 
	C134.360687,117.332382 132.534836,113.130684 128.177032,111.995979 
	C123.710419,110.832939 119.523247,113.447464 118.915749,117.778854 
	C118.228264,122.680481 121.034103,125.682281 126.876884,126.548920 
	C130.674484,151.916672 134.368317,176.895859 138.015930,201.881790 
	C141.663879,226.870392 145.265640,251.865738 148.450287,276.871216 
	C138.015259,277.072510 133.448120,280.224396 133.182999,287.722595 
	C132.906494,295.542908 132.944702,303.386078 133.180771,311.209106 
	C133.363083,317.250671 137.866379,321.887482 143.576889,321.891174 
	C181.392136,321.915680 219.207489,321.819214 257.008911,321.863220 
	C256.994995,321.964325 256.991577,322.168457 256.991577,322.168457 
z"/>
<path fill="#3D4159" opacity="1.000000" stroke="none" 
	d="
M74.827103,426.105103 
	C74.445992,429.339294 75.538147,430.506439 78.425301,430.315094 
	C80.558113,430.173737 82.785904,430.230743 84.859535,430.696899 
	C88.767662,431.575470 90.994644,434.384766 90.720963,438.276306 
	C90.435043,442.341888 87.959877,445.007599 83.598083,445.206482 
	C80.821930,445.333069 78.035301,445.230194 75.101440,445.230194 
	C75.101440,447.997467 75.101440,450.087280 75.101440,452.721008 
	C80.659180,452.721008 85.947639,452.662415 91.234230,452.736938 
	C96.893120,452.816681 99.993713,455.457520 100.015251,460.042847 
	C100.036552,464.577637 96.846542,467.581421 91.385063,467.690186 
	C83.732620,467.842560 76.071968,467.858063 68.420334,467.686554 
	C62.500748,467.553864 59.864429,464.846985 59.833878,459.037018 
	C59.759487,444.891388 59.758194,430.744812 59.839050,416.599243 
	C59.870571,411.085144 62.613850,408.251038 68.085320,408.147888 
	C75.904457,408.000488 83.729805,408.020721 91.549881,408.140656 
	C96.872406,408.222290 100.130760,411.360199 100.012566,415.913971 
	C99.900627,420.226532 96.706253,423.008575 91.576355,423.100037 
	C87.084305,423.180115 82.579315,422.955139 78.103592,423.237793 
	C76.966759,423.309631 75.919533,424.799957 74.827103,426.105103 
z"/>
<path fill="#3D4159" opacity="1.000000" stroke="none" 
	d="
M140.997833,444.008240 
	C143.637833,448.080017 146.215591,451.770691 148.532455,455.618500 
	C151.028824,459.764465 150.228790,463.834564 146.729599,466.195282 
	C142.989136,468.718750 138.885574,467.850403 135.939804,463.715027 
	C133.351807,460.081879 130.948257,456.317322 127.895256,451.763611 
	C125.356758,455.564545 123.202515,458.800903 121.037193,462.029846 
	C117.305176,467.595062 113.236450,469.024811 109.090225,466.237732 
	C105.169228,463.602112 104.886429,459.280609 108.327431,453.951324 
	C111.126045,449.616913 114.220673,445.444885 116.643639,440.911987 
	C117.505135,439.300323 117.503334,436.444733 116.634888,434.838715 
	C114.110153,430.169617 110.914963,425.866272 108.043388,421.380676 
	C104.869705,416.423187 105.293648,412.070923 109.116623,409.507233 
	C113.071358,406.855194 117.153030,408.058685 120.473946,412.916656 
	C122.813309,416.338745 125.089867,419.803802 127.873886,423.966522 
	C130.548172,420.005859 132.903259,416.484314 135.293167,412.986542 
	C138.656281,408.064453 142.689987,406.816681 146.597733,409.455078 
	C150.471939,412.070831 150.968750,416.342865 147.812561,421.325592 
	C144.342789,426.803345 140.751556,432.204193 137.056747,437.878906 
	C138.313904,439.821930 139.567322,441.759155 140.997833,444.008240 
z"/>
<path fill="#3D4159" opacity="1.000000" stroke="none" 
	d="
M181.807388,442.644012 
	C188.816269,442.074707 192.375549,445.717194 191.419037,451.975800 
	C189.994339,461.297852 182.008987,468.124420 173.048218,467.680817 
	C163.363831,467.201416 156.063660,459.628571 155.915054,449.700226 
	C155.797913,441.873016 155.803925,434.041534 155.910446,426.214050 
	C156.046082,416.249878 163.303696,408.626038 172.929214,408.143463 
	C182.143158,407.681488 190.240097,414.685730 191.481277,424.191803 
	C192.073624,428.728607 189.782867,432.364044 185.706070,433.357056 
	C181.684570,434.336578 178.395355,431.955536 176.754120,427.450775 
	C176.178268,425.870178 174.541275,424.676239 173.388809,423.305756 
	C172.557404,424.899475 171.074951,426.466583 171.008530,428.091583 
	C170.736649,434.743378 170.753403,441.418365 171.011719,448.071350 
	C171.067322,449.503387 172.569031,450.879242 173.404602,452.280975 
	C174.530563,451.105957 175.726089,449.989014 176.766403,448.742523 
	C178.384506,446.803711 179.897079,444.776855 181.807388,442.644012 
z"/>
<path fill="#3E4259" opacity="1.000000" stroke="none" 
	d="
M223.751007,452.922943 
	C230.403748,453.278198 233.287430,455.700409 233.226959,460.498413 
	C233.167587,465.207367 229.878922,467.883392 223.965469,467.928040 
	C218.138748,467.972046 212.310974,467.983063 206.484512,467.924103 
	C200.400040,467.862549 197.370865,465.168610 197.313156,459.234497 
	C197.175583,445.084442 197.195496,430.931610 197.302948,416.781036 
	C197.344910,411.255615 200.261063,408.057861 204.777679,407.984253 
	C209.538498,407.906647 212.230133,411.087219 212.265198,417.086517 
	C212.323563,427.075409 212.282928,437.064880 212.283920,447.054108 
	C212.284088,448.833527 212.283951,450.612946 212.283951,452.922729 
	C216.388519,452.922729 219.841034,452.922729 223.751007,452.922943 
z"/>
<path fill="#3E4259" opacity="1.000000" stroke="none" 
	d="
M259.635712,452.232239 
	C260.031342,452.177612 260.487457,452.359253 260.539551,452.718811 
	C260.384491,457.908722 260.177338,462.739105 259.970184,467.569489 
	C259.970184,467.569489 260.007965,467.820343 259.989624,467.945801 
	C243.817596,464.324127 239.178253,458.442352 239.178024,441.698120 
	C239.177902,433.228760 239.108871,424.758331 239.224792,416.290527 
	C239.277573,412.433960 241.132401,409.052063 245.018814,408.699341 
	C247.530411,408.471375 250.585098,409.980499 252.727356,411.597565 
	C253.922546,412.499786 254.104736,415.209808 254.132385,417.114044 
	C254.267288,426.411804 254.179779,435.712616 254.206726,445.012238 
	C254.217010,448.558868 254.853958,451.737122 259.635712,452.232239 
z"/>
<path fill="#282B3F" opacity="1.000000" stroke="none" 
	d="
M330.846741,456.453796 
	C326.738708,464.665558 320.159363,467.981384 311.592438,467.911652 
	C306.760254,467.872284 301.925690,467.985565 297.095520,467.879761 
	C291.516205,467.757538 287.977631,464.574219 288.064575,459.964661 
	C288.145691,455.666748 291.671844,452.465790 296.897522,452.298676 
	C302.058197,452.133667 307.248779,452.510010 312.381317,452.094330 
	C313.983124,451.964600 315.438934,450.031708 316.961578,448.924225 
	C315.390778,447.866302 313.930939,446.182770 312.226166,445.880463 
	C308.655823,445.247345 304.893677,445.698486 301.322113,445.069366 
	C291.244415,443.294281 285.037628,434.721954 286.037445,424.429352 
	C286.913086,415.415649 294.949707,408.229309 304.477966,408.041718 
	C309.142029,407.949860 313.811066,407.943451 318.474701,408.044647 
	C323.612152,408.156128 327.082062,411.462891 326.935638,415.903809 
	C326.796631,420.117615 323.488800,423.053833 318.486664,423.201660 
	C314.490631,423.319763 310.440826,422.885376 306.510742,423.411865 
	C304.646759,423.661530 303.006653,425.582184 301.265137,426.745789 
	C302.990723,427.861359 304.596954,429.583496 306.469543,429.951965 
	C309.362915,430.521301 312.476868,429.868896 315.429993,430.252533 
	C328.230408,431.915375 335.118561,443.462036 330.846741,456.453796 
z"/>
<path fill="#262B3F" opacity="1.000000" stroke="none" 
	d="
M442.859802,423.236664 
	C438.090179,423.236786 433.797089,423.236786 429.261658,423.236786 
	C429.261658,425.658478 429.261658,427.575928 429.261658,429.793823 
	C435.470947,430.975861 445.316772,427.556824 444.724915,438.562286 
	C444.227570,447.811005 435.656738,445.118927 429.408722,445.979553 
	C429.408722,447.831543 429.408722,449.705383 429.408722,452.262909 
	C434.618195,452.262909 439.882324,452.177063 445.142242,452.289764 
	C449.422821,452.381470 453.127167,453.601318 454.093048,458.500244 
	C455.084442,463.528625 451.829773,467.673920 446.353668,467.827209 
	C438.199280,468.055481 430.030365,468.033630 421.874420,467.836914 
	C416.790253,467.714264 413.969788,464.691437 413.937805,459.533630 
	C413.847931,445.044647 413.843323,430.554291 413.941406,416.065430 
	C413.976044,410.952148 416.886810,408.136749 422.082947,408.055939 
	C429.742279,407.936859 437.404968,407.994934 445.065979,408.032196 
	C450.819702,408.060211 454.223511,410.870880 454.294983,415.539398 
	C454.368530,420.347931 451.294434,422.990387 445.334686,423.230255 
	C444.669556,423.257019 444.002472,423.235596 442.859802,423.236664 
z"/>
<path fill="#262B3F" opacity="1.000000" stroke="none" 
	d="
M407.938721,417.627319 
	C402.482147,432.138397 397.043915,446.231567 391.690765,460.356964 
	C390.188019,464.322357 388.172943,467.823547 383.433289,467.793335 
	C378.685394,467.763062 376.742004,464.177826 375.252350,460.240845 
	C370.143005,446.737396 364.977539,433.255127 359.802246,419.776794 
	C358.201660,415.608307 358.395752,411.890503 362.448425,409.237000 
	C366.645721,406.488770 371.607849,408.270142 373.739868,413.507538 
	C376.990387,421.492615 379.967773,429.588867 383.473541,438.710968 
	C386.337524,431.300995 388.843201,424.812805 391.353851,418.326538 
	C391.893005,416.933624 392.481598,415.559174 392.993103,414.156372 
	C394.544586,409.901825 397.416534,407.227814 402.063293,408.243652 
	C406.581177,409.231354 408.615387,412.508667 407.938721,417.627319 
z"/>
<path fill="#252A3F" opacity="1.000000" stroke="none" 
	d="
M260.346008,467.682922 
	C260.177338,462.739105 260.384491,457.908722 260.784363,452.737000 
	C262.335846,450.191864 264.761810,448.037811 264.867371,445.775543 
	C265.309509,436.297272 265.016113,426.786316 265.072937,417.287842 
	C265.106750,411.637543 268.097839,408.103607 272.697876,408.051483 
	C277.085815,408.001770 280.334839,411.216583 280.451355,416.665802 
	C280.668518,426.823273 280.901123,437.013824 280.333527,447.146118 
	C279.645050,459.436584 273.276703,465.710388 260.346008,467.682922 
z"/>
<path fill="#242A3F" opacity="1.000000" stroke="none" 
	d="
M342.972290,467.166016 
	C339.077515,465.503571 337.955200,462.681427 337.972992,459.006714 
	C338.041656,444.852448 337.964752,430.697540 338.020569,416.543182 
	C338.041016,411.367096 341.262878,407.940338 345.736481,408.052399 
	C350.026703,408.159882 353.008331,411.448486 353.027924,416.414185 
	C353.084503,430.735016 353.104828,445.056580 353.021027,459.377167 
	C352.985107,465.513794 349.499725,468.247406 342.972290,467.166016 
z"/>
<path fill="#FE9522" opacity="1.000000" stroke="none" 
	d="
M387.071167,126.198441 
	C382.769897,155.735107 378.426849,185.265793 374.181976,214.810562 
	C371.328461,234.671768 368.613831,254.552933 365.467407,275.091492 
	C363.584961,276.152893 362.079254,276.853607 360.558167,276.888794 
	C354.750916,277.023102 348.938660,276.954010 343.128326,276.941284 
	C314.412048,276.878387 285.695770,276.809235 256.984314,276.300751 
	C257.008270,262.575104 257.027435,249.291031 257.422028,235.985962 
	C263.228333,235.095123 267.314667,232.207947 269.988892,227.469803 
	C278.027161,213.227798 278.132019,198.765930 270.619415,184.338821 
	C267.815674,178.954590 263.540833,175.163895 256.999695,174.460968 
	C257.028107,147.353500 257.056061,120.709969 257.425598,94.045792 
	C258.877686,93.931496 259.988220,93.837845 261.098755,93.744202 
	C270.675995,109.309654 280.286469,124.854797 289.820526,140.446655 
	C298.235992,154.209152 306.562897,168.025787 314.939758,181.811905 
	C315.702850,183.067734 316.545319,184.275299 317.454987,185.664185 
	C338.898468,165.312134 360.158966,145.133743 382.096344,124.883408 
	C384.205902,125.273781 385.638519,125.736107 387.071167,126.198441 
z"/>
<path fill="#E54141" opacity="1.000000" stroke="none" 
	d="
M256.979492,276.742310 
	C285.695770,276.809235 314.412048,276.878387 343.128326,276.941284 
	C348.938660,276.954010 354.750916,277.023102 360.558167,276.888794 
	C362.079254,276.853607 363.584961,276.152893 365.358459,275.534241 
	C367.054260,275.826630 368.461151,276.678589 369.929169,276.801788 
	C377.225983,277.413788 380.952576,281.321411 380.992188,288.779083 
	C381.029297,295.765106 381.031189,302.751678 380.992310,309.737671 
	C380.947174,317.855957 376.811127,321.987000 368.700592,321.992676 
	C331.773590,322.018494 294.846558,322.023102 257.455566,322.101898 
	C256.991577,322.168457 256.994995,321.964325 257.000671,321.411377 
	C256.981628,306.227325 256.956909,291.596222 256.944946,276.909607 
	C256.957733,276.854095 256.979492,276.742310 256.979492,276.742310 
z"/>
<path fill="#FAC579" opacity="1.000000" stroke="none" 
	d="
M387.461609,126.153763 
	C385.638519,125.736107 384.205902,125.273781 382.410126,124.722694 
	C381.916779,123.995094 381.864166,123.328102 381.644196,122.721809 
	C379.644440,117.209656 381.087524,113.311401 385.711212,111.819595 
	C389.698364,110.533173 394.068756,112.946838 395.004028,116.951874 
	C396.103088,121.658195 393.484772,125.010658 387.461609,126.153763 
z"/>
<path fill="#F9C479" opacity="1.000000" stroke="none" 
	d="
M261.260071,93.383667 
	C259.988220,93.837845 258.877686,93.931496 257.065247,94.021439 
	C255.235626,93.683006 254.107941,93.348289 252.980255,93.013573 
	C247.508835,87.114372 248.726425,82.076859 256.655609,79.116852 
	C264.994415,81.691315 266.419952,86.209480 261.260071,93.383667 
z"/>
<path fill="#FDBC55" opacity="1.000000" stroke="none" 
	d="
M252.876434,93.340073 
	C254.107941,93.348289 255.235626,93.683006 256.723663,94.042084 
	C257.056061,120.709969 257.028107,147.353500 256.996643,174.496262 
	C256.993103,174.995499 256.998901,175.066086 256.618103,175.049332 
	C250.962219,175.816132 246.972778,178.548935 244.294266,183.117905 
	C236.060577,197.162750 235.976944,211.565689 243.141251,225.922394 
	C245.881958,231.414520 250.294571,235.514145 257.050446,235.879486 
	C257.047791,235.921921 257.046600,236.006943 257.046600,236.006943 
	C257.027435,249.291031 257.008270,262.575104 256.984314,276.300751 
	C256.979492,276.742310 256.957733,276.854095 256.483765,276.897217 
	C220.302399,276.912903 184.595016,276.885498 148.887650,276.858124 
	C145.265640,251.865738 141.663879,226.870392 138.015930,201.881790 
	C134.368317,176.895859 130.674484,151.916672 127.268356,126.497406 
	C129.046494,125.678459 130.557190,125.296631 132.067886,124.914803 
	C147.886322,139.867294 163.704926,154.819626 179.523132,169.772385 
	C185.076645,175.022064 190.629181,180.272781 196.724258,186.035553 
	C215.494446,155.101852 234.133530,124.384216 252.876434,93.340073 
z"/>
<path fill="#FE6161" opacity="1.000000" stroke="none" 
	d="
M148.450287,276.871216 
	C184.595016,276.885498 220.302399,276.912903 256.470978,276.952698 
	C256.956909,291.596222 256.981628,306.227325 257.014587,321.310303 
	C219.207489,321.819214 181.392136,321.915680 143.576889,321.891174 
	C137.866379,321.887482 133.363083,317.250671 133.180771,311.209106 
	C132.944702,303.386078 132.906494,295.542908 133.182999,287.722595 
	C133.448120,280.224396 138.015259,277.072510 148.450287,276.871216 
z"/>
<path fill="#FBC67A" opacity="1.000000" stroke="none" 
	d="
M132.051270,124.551529 
	C130.557190,125.296631 129.046494,125.678459 127.144318,126.111801 
	C121.034103,125.682281 118.228264,122.680481 118.915749,117.778854 
	C119.523247,113.447464 123.710419,110.832939 128.177032,111.995979 
	C132.534836,113.130684 134.360687,117.332382 132.674500,122.351135 
	C132.468002,122.965775 132.248276,123.575989 132.051270,124.551529 
z"/>
<path fill="#E64241" opacity="1.000000" stroke="none" 
	d="
M256.996185,174.960205 
	C263.540833,175.163895 267.815674,178.954590 270.619415,184.338821 
	C278.132019,198.765930 278.027161,213.227798 269.988892,227.469803 
	C267.314667,232.207947 263.228333,235.095123 257.422028,235.985962 
	C257.046600,236.006943 257.047791,235.921921 257.035645,235.427307 
	C257.015289,214.977142 257.007080,195.021622 256.998901,175.066086 
	C256.998901,175.066086 256.993103,174.995499 256.996185,174.960205 
z"/>
<path fill="#FF6261" opacity="1.000000" stroke="none" 
	d="
M256.618103,175.049332 
	C257.007080,195.021622 257.015289,214.977142 257.038300,235.384857 
	C250.294571,235.514145 245.881958,231.414520 243.141251,225.922394 
	C235.976944,211.565689 236.060577,197.162750 244.294266,183.117905 
	C246.972778,178.548935 250.962219,175.816132 256.618103,175.049332 
z"/>
</svg>