<svg version="1.1" id="Layer_1" xmlns="http://www.w3.org/2000/svg" xmlns:xlink="http://www.w3.org/1999/xlink"  width="100%" height="100%" viewBox="0 0 290 269.268" xml:space="preserve">
<g>
	<path fill="#E5BA05" d="M290,103.572L188.531,90.373L145,0l-43.542,90.373L0,103.572l74.594,67.604l-19.248,98.09L145,221.1
		l89.674,48.166l-19.277-98.09L290,103.572z"/>
</g>
<g>
	<path fill="#FFCC00" d="M260.627,112.864l-80.914-10.522L145,30.275l-34.721,72.065l-80.903,10.522l59.482,53.909l-15.349,78.221
		L145,206.582l71.508,38.41l-15.373-78.221L260.627,112.864z"/>
</g>
<g>
	<path fill="#FCF6DB" d="M145,30.275l-34.721,72.065l-80.903,10.522l59.482,53.909c0,0,99.726-23.465,118.646-60.816l-27.791-3.615
		L145,30.275z"/>
</g>
</svg>