<svg version="1.1" id="Layer_1" xmlns="http://www.w3.org/2000/svg" xmlns:xlink="http://www.w3.org/1999/xlink"
	 width="100%" viewBox="0 0 128 128" xml:space="preserve">

<path fill="#576281" opacity="1.000000" stroke="none" 
	d="
M34.964409,101.320145 
	C25.792274,95.594353 21.211903,86.683548 18.644039,76.710609 
	C10.995445,47.005371 33.553810,17.449686 64.001457,16.999897 
	C84.542412,16.696455 102.875168,29.364773 110.088242,48.846828 
	C117.028915,67.593155 111.405907,88.152542 95.197594,101.331772 
	C90.434357,98.931641 86.173187,96.680946 81.878662,94.495819 
	C73.776863,90.373459 72.812752,85.721169 77.000793,77.693604 
	C80.077904,71.795441 86.009193,66.817940 84.213631,58.917419 
	C83.488716,55.727757 82.862167,52.436710 82.823143,49.184212 
	C82.673416,36.703865 77.837914,31.641754 65.368950,31.338263 
	C55.428940,31.096327 48.743942,35.282417 47.574188,42.996361 
	C46.661819,49.012970 46.284878,55.117184 45.823711,61.194130 
	C45.286995,68.266609 49.518345,73.718185 52.523468,79.500580 
	C55.492325,85.213188 54.331287,90.139183 48.729633,93.322556 
	C44.116180,95.944351 39.550987,98.651062 34.964409,101.320145 
z"/>
<path fill="#E5EAEC" opacity="1.000000" stroke="none" 
	d="
M35.019623,101.646904 
	C39.550987,98.651062 44.116180,95.944351 48.729633,93.322556 
	C54.331287,90.139183 55.492325,85.213188 52.523468,79.500580 
	C49.518345,73.718185 45.286995,68.266609 45.823711,61.194130 
	C46.284878,55.117184 46.661819,49.012970 47.574188,42.996361 
	C48.743942,35.282417 55.428940,31.096327 65.368950,31.338263 
	C77.837914,31.641754 82.673416,36.703865 82.823143,49.184212 
	C82.862167,52.436710 83.488716,55.727757 84.213631,58.917419 
	C86.009193,66.817940 80.077904,71.795441 77.000793,77.693604 
	C72.812752,85.721169 73.776863,90.373459 81.878662,94.495819 
	C86.173187,96.680946 90.434357,98.931641 94.894928,101.428909 
	C88.738441,108.362236 80.464249,111.149704 71.790321,112.460808 
	C58.090008,114.531670 45.703518,111.105209 35.019623,101.646904 
z"/>
</svg>