<svg version="1.1" id="Layer_1" xmlns="http://www.w3.org/2000/svg" xmlns:xlink="http://www.w3.org/1999/xlink"
	 width="100%" viewBox="0 0 512 512" xml:space="preserve">

<path fill="#87DAFF" opacity="1.000000" stroke="none" 
	d="
M512.021301,158.936020 
	C512.021301,158.936020 512.509094,158.991608 512.754517,158.995804 
	C513.000000,159.444443 513.000000,159.888901 513.000000,160.666687 
	C505.749023,169.207840 498.406219,177.336746 491.267029,185.640701 
	C478.366486,200.646011 465.582123,215.751236 452.759369,230.823303 
	C436.383484,250.071732 420.039154,269.347076 403.640320,288.575928 
	C391.013519,303.381744 378.311584,318.123474 365.664917,332.912384 
	C351.507477,349.467987 337.367126,366.038177 323.233368,382.613983 
	C308.452026,399.949219 293.711395,417.319244 278.904205,434.632385 
	C272.531830,442.083191 266.036621,449.428864 259.222321,456.485687 
	C259.245026,454.716522 259.541870,453.246765 260.054749,451.856781 
	C275.583618,409.771515 291.129242,367.692444 306.681763,325.615967 
	C324.250336,278.085297 341.862671,230.570709 359.366608,183.016235 
	C362.161865,175.422119 364.489166,167.655731 367.019073,159.981766 
	C367.005371,159.994553 366.980774,160.022629 367.239075,160.050323 
	C367.668671,160.052521 367.839966,160.027008 368.479004,160.000656 
	C414.757111,159.999863 460.567505,160.012558 506.377777,159.955017 
	C508.259399,159.952652 510.140137,159.290680 512.021301,158.936020 
z"/>
<path fill="#01AAF0" opacity="1.000000" stroke="none" 
	d="
M0.999999,159.333328 
	C2.366603,157.842728 3.823286,156.775742 5.086669,155.515045 
	C38.866287,121.807465 72.626022,88.079971 106.875015,54.616234 
	C110.954529,64.693092 114.537041,74.513649 118.143929,84.325241 
	C127.418037,109.553047 136.702942,134.776871 145.515930,160.001480 
	C99.289398,160.000244 53.530487,159.989166 7.771641,160.036758 
	C5.860706,160.038742 3.950340,160.588303 2.039710,160.882767 
	C1.860346,160.848373 1.680981,160.813995 1.250808,160.889816 
	C1.000000,160.555557 1.000000,160.111099 0.999999,159.333328 
z"/>
<path fill="#00C3FF" opacity="1.000000" stroke="none" 
	d="
M367.032776,159.968979 
	C364.489166,167.655731 362.161865,175.422119 359.366608,183.016235 
	C341.862671,230.570709 324.250336,278.085297 306.681763,325.615967 
	C291.129242,367.692444 275.583618,409.771515 260.054749,451.856781 
	C259.541870,453.246765 259.245026,454.716522 258.886230,456.540955 
	C258.026855,457.601288 257.128662,458.269806 255.997986,458.365234 
	C255.463638,457.536743 255.161804,457.281342 254.859970,457.025970 
	C254.859970,457.025970 254.958344,457.059662 254.974014,456.695068 
	C254.665497,454.892578 254.488510,453.401703 253.992966,452.025513 
	C251.013641,443.751495 247.973969,435.499054 244.930832,427.248169 
	C235.399567,401.405853 225.877060,375.560333 216.315002,349.729401 
	C205.600861,320.786346 194.836441,291.861908 184.113953,262.921906 
	C174.256409,236.316360 164.367996,209.721954 154.619354,183.076492 
	C151.839035,175.477234 149.498596,167.717041 147.428894,160.008820 
	C220.945129,159.980972 293.988953,159.974976 367.032776,159.968979 
z"/>
<path fill="#0096DC" opacity="1.000000" stroke="none" 
	d="
M146.956467,160.030655 
	C149.498596,167.717041 151.839035,175.477234 154.619354,183.076492 
	C164.367996,209.721954 174.256409,236.316360 184.113953,262.921906 
	C194.836441,291.861908 205.600861,320.786346 216.315002,349.729401 
	C225.877060,375.560333 235.399567,401.405853 244.930832,427.248169 
	C247.973969,435.499054 251.013641,443.751495 253.992966,452.025513 
	C254.488510,453.401703 254.665497,454.892578 254.948517,456.740356 
	C245.754822,446.613647 236.535477,436.134216 227.462585,425.529449 
	C203.008850,396.946838 178.606964,368.319855 154.204178,339.693695 
	C124.295967,304.609314 94.421196,269.496460 64.506371,234.417709 
	C43.772350,210.104568 22.995098,185.828323 2.138436,161.209167 
	C3.950340,160.588303 5.860706,160.038742 7.771641,160.036758 
	C53.530487,159.989166 99.289398,160.000244 145.762238,160.021133 
	C146.476196,160.041595 146.969986,160.035965 146.975555,160.027542 
	C146.981110,160.019119 146.956467,160.030655 146.956467,160.030655 
z"/>
<path fill="#0096DC" opacity="1.000000" stroke="none" 
	d="
M254.929169,457.322205 
	C255.161804,457.281342 255.463638,457.536743 255.837769,458.090393 
	C255.606140,458.131897 255.302246,457.875153 254.929169,457.322205 
z"/>
<path fill="#86DAFF" opacity="1.000000" stroke="none" 
	d="
M367.019073,159.981766 
	C293.988953,159.974976 220.945129,159.980972 147.428894,160.008820 
	C146.956467,160.030655 146.981110,160.019119 147.071213,159.700409 
	C155.513977,151.293716 163.827103,143.164413 172.227020,135.125824 
	C194.194641,114.103119 216.239716,93.161186 238.165085,72.094612 
	C244.249649,66.248375 250.023972,60.079247 255.940643,54.058266 
	C256.412933,54.016277 256.885223,53.974289 257.781128,54.319199 
	C279.368927,75.124626 300.502716,95.574799 321.712158,115.946159 
	C330.216125,124.114098 338.984528,132.007629 347.449890,140.214523 
	C354.105713,146.667114 360.480927,153.409164 366.980774,160.022629 
	C366.980774,160.022629 367.005371,159.994553 367.019073,159.981766 
z"/>
<path fill="#00C3FF" opacity="1.000000" stroke="none" 
	d="
M255.476746,54.029472 
	C250.023972,60.079247 244.249649,66.248375 238.165085,72.094612 
	C216.239716,93.161186 194.194641,114.103119 172.227020,135.125824 
	C163.827103,143.164413 155.513977,151.293716 147.065643,159.708832 
	C146.969986,160.035965 146.476196,160.041595 146.229874,160.021942 
	C136.702942,134.776871 127.418037,109.553047 118.143929,84.325241 
	C114.537041,74.513649 110.954529,64.693092 107.194305,54.567322 
	C108.513847,54.169807 110.000000,54.004837 111.486176,54.004494 
	C159.328400,53.993416 207.170639,53.998241 255.476746,54.029472 
z"/>
<path fill="#00C3FF" opacity="1.000000" stroke="none" 
	d="
M367.239075,160.050323 
	C360.480927,153.409164 354.105713,146.667114 347.449890,140.214523 
	C338.984528,132.007629 330.216125,124.114098 321.712158,115.946159 
	C300.502716,95.574799 279.368927,75.124626 258.132568,54.382080 
	C306.775909,54.037598 355.491425,54.015598 404.206940,54.009678 
	C405.026062,54.009579 405.845215,54.204536 406.613098,54.810661 
	C401.280762,69.471375 395.946075,83.610207 390.731171,97.793068 
	C383.112732,118.512634 375.580322,139.263809 368.011230,160.001511 
	C367.839966,160.027008 367.668671,160.052521 367.239075,160.050323 
z"/>
<path fill="#A4E9FF" opacity="1.000000" stroke="none" 
	d="
M368.479004,160.000656 
	C375.580322,139.263809 383.112732,118.512634 390.731171,97.793068 
	C395.946075,83.610207 401.280762,69.471375 406.894501,55.150772 
	C408.320679,55.646816 409.604156,56.114864 410.480316,56.990498 
	C444.260132,90.748688 478.002686,124.544189 511.885742,158.635376 
	C510.140137,159.290680 508.259399,159.952652 506.377777,159.955017 
	C460.567505,160.012558 414.757111,159.999863 368.479004,160.000656 
z"/>
</svg>