<svg version="1.1" id="Layer_1" xmlns="http://www.w3.org/2000/svg" xmlns:xlink="http://www.w3.org/1999/xlink" x="0px" y="0px"
	 width="100%" viewBox="0 0 512 512" enable-background="new 0 0 512 512" xml:space="preserve">
<path fill="#FFFFFF" opacity="1.000000" stroke="none" 
	d="
M513.000000,176.000000 
	C513.000000,288.292572 513.000000,400.585114 513.000000,512.938843 
	C342.436035,512.938843 171.872055,512.938843 1.000000,512.938843 
	C1.000000,400.976868 1.000000,288.953430 1.345321,176.474457 
	C38.055351,217.818924 74.433441,259.607330 110.780891,301.422394 
	C144.838165,340.602753 178.841660,379.829865 212.912201,418.998688 
	C227.210739,435.436798 241.621033,451.777679 256.026581,468.413361 
	C256.362366,468.771912 256.652069,468.879822 257.221008,469.065735 
	C257.696899,468.827911 257.893616,468.512085 258.347626,468.101776 
	C258.925568,467.573547 259.246246,467.139771 259.556946,466.724365 
	C259.547028,466.742767 259.581268,466.771698 259.838013,466.552185 
	C294.825134,426.359619 329.551697,386.383270 364.286865,346.414429 
	C403.611511,301.164520 442.921570,255.901917 482.288116,210.688477 
	C492.428864,199.041580 502.757599,187.558395 513.000000,176.000000 
z"/>
<path fill="#FFFFFF" opacity="1.000000" stroke="none" 
	d="
M1.000000,175.000000 
	C1.000000,117.029503 1.000000,59.058998 1.000000,1.044249 
	C171.550369,1.044249 342.100739,1.044249 513.000000,1.044249 
	C513.000000,58.687092 513.000000,116.374886 512.796509,174.486237 
	C512.593018,174.909775 512.178040,174.948563 512.073120,174.627350 
	C510.072083,172.492340 508.175964,170.678574 506.134949,168.556488 
	C496.048950,158.144531 486.107849,148.040909 476.029419,137.627258 
	C472.027008,133.498230 468.161926,129.679184 464.147522,125.553299 
	C453.391754,114.475128 442.785339,103.703812 432.040161,92.622833 
	C428.375946,88.824379 424.850433,85.335571 421.174225,81.539810 
	C419.310730,79.438660 417.649536,77.591644 415.876617,75.858986 
	C405.635071,65.850143 395.367096,55.868309 385.007385,45.471153 
	C383.371704,44.767296 381.837982,44.218971 380.301483,44.211197 
	C366.829956,44.143044 353.357849,44.157635 339.885986,44.173893 
	C312.280243,44.207214 284.674500,44.256767 256.712097,44.206192 
	C255.643845,44.208298 254.932220,44.303844 253.739990,44.361137 
	C213.266861,44.322056 173.274368,44.314442 133.281891,44.348072 
	C131.851196,44.349274 130.420837,44.757847 128.664612,45.064651 
	C93.496796,80.710213 58.631870,116.245384 23.830843,151.843033 
	C16.403084,159.440796 9.207435,167.265503 1.679442,175.039703 
	C1.454028,175.093750 1.000000,175.000000 1.000000,175.000000 
z"/>
<path fill="#CE0145" opacity="1.000000" stroke="none" 
	d="
M1.000000,175.250000 
	C1.000000,175.000000 1.454028,175.093750 2.155178,175.068695 
	C54.687702,175.052429 106.519073,175.061234 158.420425,175.048645 
	C158.490402,175.027267 158.636353,175.016800 158.778381,175.373596 
	C159.322220,176.821686 159.753784,177.903046 160.121567,179.005692 
	C188.418167,263.843475 216.729218,348.676483 244.978943,433.529877 
	C248.804733,445.021362 252.320953,456.615936 255.980530,468.162750 
	C241.621033,451.777679 227.210739,435.436798 212.912201,418.998688 
	C178.841660,379.829865 144.838165,340.602753 110.780891,301.422394 
	C74.433441,259.607330 38.055351,217.818924 1.345321,176.009445 
	C1.000000,176.000000 1.000000,175.500000 1.000000,175.250000 
z"/>
<path fill="#A00031" opacity="1.000000" stroke="none" 
	d="
M512.178040,174.948563 
	C512.178040,174.948563 512.593018,174.909775 512.796509,174.954895 
	C513.000000,175.000000 513.000000,175.500000 513.000000,175.750000 
	C502.757599,187.558395 492.428864,199.041580 482.288116,210.688477 
	C442.921570,255.901917 403.611511,301.164520 364.286865,346.414429 
	C329.551697,386.383270 294.825134,426.359619 259.695923,466.125977 
	C259.744049,463.842224 259.998627,461.701050 260.665833,459.697266 
	C287.367432,379.505615 314.127869,299.333588 340.820801,219.139038 
	C345.692749,204.502106 350.308807,189.779999 355.506897,175.067871 
	C405.980560,175.008896 455.990295,174.979248 506.439056,174.983337 
	C508.644745,174.994247 510.411377,174.971405 512.178040,174.948563 
z"/>
<path fill="#CE0045" opacity="1.000000" stroke="none" 
	d="
M355.042969,175.097214 
	C350.308807,189.779999 345.692749,204.502106 340.820801,219.139038 
	C314.127869,299.333588 287.367432,379.505615 260.665833,459.697266 
	C259.998627,461.701050 259.744049,463.842224 259.439148,466.345520 
	C259.581268,466.771698 259.547028,466.742767 259.225250,466.606934 
	C258.632416,467.046112 258.361359,467.621185 258.090332,468.196228 
	C257.893616,468.512085 257.696899,468.827911 257.236237,468.598511 
	C256.981506,377.572449 256.988220,287.091583 257.004730,196.610718 
	C257.006042,189.446732 257.075073,182.282730 257.568787,175.080017 
	C290.364288,175.059937 322.703644,175.078568 355.042969,175.097214 
z"/>
<path fill="#F53241" opacity="1.000000" stroke="none" 
	d="
M257.112640,175.118744 
	C257.075073,182.282730 257.006042,189.446732 257.004730,196.610718 
	C256.988220,287.091583 256.981506,377.572449 256.957031,468.520538 
	C256.652069,468.879822 256.362366,468.771912 256.026581,468.413361 
	C252.320953,456.615936 248.804733,445.021362 244.978943,433.529877 
	C216.729218,348.676483 188.418167,263.843475 160.121567,179.005692 
	C159.753784,177.903046 159.322220,176.821686 159.044373,175.338058 
	C159.343765,174.961365 159.519180,174.977020 160.196075,174.992889 
	C192.767807,174.964905 224.838089,174.936722 256.959747,174.960785 
	C257.011139,175.013000 257.112640,175.118744 257.112640,175.118744 
z"/>
<path fill="#A00031" opacity="1.000000" stroke="none" 
	d="
M258.347595,468.101776 
	C258.361359,467.621185 258.632416,467.046112 259.235168,466.588531 
	C259.246246,467.139771 258.925568,467.573547 258.347595,468.101776 
z"/>
<path fill="#F53241" opacity="1.000000" stroke="none" 
	d="
M355.506897,175.067871 
	C322.703644,175.078568 290.364288,175.059937 257.568787,175.080017 
	C257.112640,175.118744 257.011139,175.013000 256.995056,174.502777 
	C256.986389,132.924805 256.988953,91.857040 257.016266,50.789299 
	C257.017578,48.806618 257.237305,46.824081 257.608307,45.050526 
	C285.586700,82.171669 313.309540,119.085732 341.040283,155.993866 
	C345.545746,161.990387 350.086121,167.960709 355.202820,174.726562 
	C356.920105,167.432892 358.398590,161.358551 359.777374,155.261658 
	C365.592804,129.546127 371.317566,103.809914 377.204254,78.110764 
	C379.674072,67.328545 382.463776,56.619595 385.108063,45.877335 
	C395.367096,55.868309 405.635071,65.850143 415.876617,75.858986 
	C417.649536,77.591644 419.310730,79.438660 420.882751,81.716492 
	C421.310760,88.339310 425.288879,92.072380 432.178894,92.932495 
	C442.785339,103.703812 453.391754,114.475128 463.860229,125.730225 
	C464.448578,132.562622 469.164948,137.005630 476.166718,137.937271 
	C486.107849,148.040909 496.048950,158.144531 505.829712,168.759598 
	C505.779572,171.163879 505.889801,173.056732 506.000061,174.949585 
	C455.990295,174.979248 405.980560,175.008896 355.506897,175.067871 
z"/>
<path fill="#FE7E52" opacity="1.000000" stroke="none" 
	d="
M158.350449,175.070038 
	C106.519073,175.061234 54.687702,175.052429 2.380593,175.014648 
	C9.207435,167.265503 16.403084,159.440796 23.830843,151.843033 
	C58.631870,116.245384 93.496796,80.710213 128.891708,45.372772 
	C135.491470,72.413078 141.570267,99.226219 147.573502,126.056274 
	C151.226089,142.380707 154.762085,158.731232 158.350449,175.070038 
z"/>
<path fill="#CE0145" opacity="1.000000" stroke="none" 
	d="
M158.420425,175.048645 
	C154.762085,158.731232 151.226089,142.380707 147.573502,126.056274 
	C141.570267,99.226219 135.491470,72.413078 129.217422,45.284687 
	C130.420837,44.757847 131.851196,44.349274 133.281891,44.348072 
	C173.274368,44.314442 213.266861,44.322056 253.916992,44.563297 
	C254.295578,46.098915 254.402740,47.682789 253.681595,48.647503 
	C229.502182,80.994080 205.206146,113.253456 181.019913,145.594940 
	C173.770508,155.288757 166.795395,165.187714 159.694611,174.992676 
	C159.519180,174.977020 159.343765,174.961365 158.902344,174.981262 
	C158.636353,175.016800 158.490402,175.027267 158.420425,175.048645 
z"/>
<path fill="#A00031" opacity="1.000000" stroke="none" 
	d="
M385.007385,45.471161 
	C382.463776,56.619595 379.674072,67.328545 377.204254,78.110764 
	C371.317566,103.809914 365.592804,129.546127 359.777374,155.261658 
	C358.398590,161.358551 356.920105,167.432892 355.202820,174.726562 
	C350.086121,167.960709 345.545746,161.990387 341.040283,155.993866 
	C313.309540,119.085732 285.586700,82.171669 257.552917,44.905975 
	C257.244568,44.552383 257.068756,44.299637 257.068756,44.299637 
	C284.674500,44.256767 312.280243,44.207214 339.885986,44.173893 
	C353.357849,44.157635 366.829956,44.143044 380.301483,44.211197 
	C381.837982,44.218971 383.371704,44.767296 385.007385,45.471161 
z"/>
<path fill="#FD7D53" opacity="1.000000" stroke="none" 
	d="
M256.712097,44.206192 
	C257.068756,44.299637 257.244568,44.552383 257.299988,44.696930 
	C257.237305,46.824081 257.017578,48.806618 257.016266,50.789299 
	C256.988953,91.857040 256.986389,132.924805 256.943665,174.450562 
	C224.838089,174.936722 192.767807,174.964905 160.196075,174.992889 
	C166.795395,165.187714 173.770508,155.288757 181.019913,145.594940 
	C205.206146,113.253456 229.502182,80.994080 253.681595,48.647503 
	C254.402740,47.682789 254.295578,46.098915 254.397598,44.601555 
	C254.932220,44.303844 255.643845,44.208298 256.712097,44.206192 
z"/>
<path fill="#F53241" opacity="1.000000" stroke="none" 
	d="
M476.029419,137.627258 
	C469.164948,137.005630 464.448578,132.562622 464.009521,126.037079 
	C468.161926,129.679184 472.027008,133.498230 476.029419,137.627258 
z"/>
<path fill="#F53241" opacity="1.000000" stroke="none" 
	d="
M432.040161,92.622833 
	C425.288879,92.072380 421.310760,88.339310 421.033447,82.023445 
	C424.850433,85.335571 428.375946,88.824379 432.040161,92.622833 
z"/>
<path fill="#F53241" opacity="1.000000" stroke="none" 
	d="
M506.439087,174.983337 
	C505.889801,173.056732 505.779572,171.163879 505.974609,169.067902 
	C508.175964,170.678574 510.072083,172.492340 512.073120,174.627350 
	C510.411377,174.971405 508.644745,174.994247 506.439087,174.983337 
z"/>
</svg>